<?xml version="1.0" standalone="no"?>
<!DOCTYPE svg PUBLIC "-//W3C//DTD SVG 1.1//EN" "http://www.w3.org/Graphics/SVG/1.1/DTD/svg11.dtd" >
<svg xmlns="http://www.w3.org/2000/svg" xmlns:xlink="http://www.w3.org/1999/xlink" version="1.1">
<metadata>
Created by FontForge 20160405 at Fri Nov  2 23:39:19 2018
 By www-data
(c) the.bend aka Dimitri Castrique 2007, www.thebend.be
</metadata>
<defs>
<font id="QlassikMedium" horiz-adv-x="444" >
  <font-face 
    font-family="Qlassik Medium"
    font-weight="500"
    font-stretch="normal"
    units-per-em="1000"
    panose-1="5 7 0 0 0 0 0 0 0 0"
    ascent="800"
    descent="-200"
    x-height="474"
    cap-height="664"
    bbox="-67 -256 954 915"
    underline-thickness="50"
    underline-position="-100"
    unicode-range="U+000D-FB02"
  />
<missing-glyph horiz-adv-x="227" 
 />
    <glyph glyph-name=".notdef" horiz-adv-x="227" 
 />
    <glyph glyph-name=".null" horiz-adv-x="0" 
 />
    <glyph glyph-name=".null" horiz-adv-x="0" 
 />
    <glyph glyph-name="CR" unicode="&#xd;" horiz-adv-x="227" 
 />
    <glyph glyph-name="space" unicode=" " horiz-adv-x="227" 
 />
    <glyph glyph-name="numbersign" unicode="#" 
d="M93 203h-61c0 9 0 15 1 20c-3 4 -5 8 -5 11s9 23 13 31h60c6 40 11 79 17 119h-67v19c-3 5 -4 8 -4 11s10 28 13 32h66c7 44 -12 106 75 106c3 -3 4 -6 4 -11c0 -29 -10 -64 -15 -95h93c6 41 -13 106 75 106c3 -3 3 -6 3 -10c0 -31 -10 -64 -14 -96h58c0 -8 0 -15 -1 -19
c3 -5 5 -9 5 -13c0 -2 -8 -24 -13 -30h-58c-5 -40 -11 -79 -16 -119h67v-19c3 -5 4 -9 4 -12c0 -1 -9 -27 -12 -31h-68c-8 -49 13 -121 -75 -121c-3 2 -4 6 -4 11c0 34 11 75 17 110h-95c-6 -38 -8 -120 -36 -120c-10 0 -27 4 -45 8c6 37 12 74 18 112zM181 384
c-5 -40 -11 -79 -16 -119h94c5 40 10 79 16 119h-94z" />
    <glyph glyph-name="dollar" unicode="$" 
d="M329 275c41 -36 59 -73 59 -124c0 -80 -48 -138 -138 -154l-10 -84c0 -28 -24 -32 -74 -32l10 112c-55 2 -93 16 -110 30c-9 7 -12 12 -12 19c0 15 9 47 19 61c28 -21 72 -35 120 -35c60 0 101 21 101 77c0 37 -16 63 -64 102c-15 15 -33 30 -51 46c-29 24 -55 45 -74 66
c-33 37 -44 68 -44 100c0 59 38 118 132 133l10 86c0 28 26 32 74 32l-10 -116c63 -4 96 -23 104 -34c0 -13 -7 -36 -17 -50c-3 -2 -7 -2 -11 -2s-10 1 -17 4c-20 8 -46 14 -77 14c-58 0 -95 -24 -95 -70v-4c4 -21 17 -39 37 -59c22 -22 48 -43 77 -66c23 -19 43 -34 61 -52
z" />
    <glyph glyph-name="percent" unicode="%" horiz-adv-x="700" 
d="M44 482c0 100 46 175 139 175h1c79 0 132 -41 132 -173c0 -106 -46 -177 -137 -177c-82 0 -135 41 -135 175zM384 162c0 102 47 177 140 177h1c80 0 131 -44 131 -175c0 -106 -46 -175 -136 -175c-80 0 -136 36 -136 173zM162 -29c-3 1 -37 18 -38 31
c50 92 294 494 390 652c7 12 12 17 14 17s9 -3 17 -8c12 -8 21 -15 23 -26c-43 -75 -261 -443 -385 -642c-10 -17 -16 -24 -21 -24zM456 161c0 -81 21 -117 64 -117c38 0 65 37 65 119c0 86 -22 118 -63 118s-66 -40 -66 -120zM117 481c0 -81 22 -117 63 -117
c39 0 65 38 65 120c0 85 -23 117 -62 117h-1c-39 0 -65 -39 -65 -120z" />
    <glyph glyph-name="ampersand" unicode="&#x26;" horiz-adv-x="580" 
d="M333 130c-54 55 -114 121 -151 170c-48 -36 -75 -77 -75 -132c0 -56 37 -103 104 -103c45 0 84 18 122 65zM430 431c8 2 44 7 74 9c22 1 49 7 49 -30c0 -14 -9 -20 -37 -34h-25c1 -5 1 -10 1 -16c0 -31 0 -102 -66 -213c67 -64 99 -96 116 -106c-6 -38 -37 -48 -56 -48
c-25 0 -22 9 -102 84c-51 -61 -112 -84 -174 -84c-121 0 -184 74 -184 174c0 84 60 144 116 184c-43 57 -68 114 -68 172c0 88 66 142 160 142c63 0 105 -17 105 -41c0 -8 -8 -38 -19 -52c-26 19 -53 26 -84 26c-47 0 -85 -24 -85 -80c0 -76 135 -218 218 -315
c51 101 63 158 63 205c0 10 0 12 -2 23z" />
    <glyph glyph-name="quoteright" unicode="&#x2019;" horiz-adv-x="187" 
d="M55 692c8 20 31 37 55 37c5 0 9 -1 12 -2c22 -3 31 -24 31 -53c0 -4 0 -8 -1 -12c-4 -52 -33 -111 -58 -138c-10 -11 -19 -17 -31 -19c-11 0 -23 3 -30 11c23 41 35 88 36 132c-3 1 -6 3 -7 6c-4 11 -5 25 -7 38z" />
    <glyph glyph-name="parenleft" unicode="(" horiz-adv-x="312" 
d="M141 292c0 -195 61 -349 137 -425c-7 -32 -24 -54 -45 -54c-47 23 -172 184 -172 468v1c0 269 112 424 178 472c21 -4 35 -25 39 -53c-80 -92 -137 -231 -137 -409z" />
    <glyph glyph-name="parenright" unicode=")" horiz-adv-x="312" 
d="M171 293c0 178 -54 325 -136 411c7 33 24 50 44 50c46 -24 172 -177 172 -452v-1c0 -270 -111 -441 -177 -488c-23 4 -37 30 -39 57c76 87 136 230 136 418v5z" />
    <glyph glyph-name="asterisk" unicode="*" horiz-adv-x="450" 
d="M254 525c-3 -13 -7 -19 -32 -13l-19 139c-1 13 10 18 25 18c14 0 30 -4 43 -10zM387 562c23 11 32 -33 28 -61l-133 -25c-12 -2 -19 1 -21 26zM262 462l97 -101c17 -19 -22 -41 -49 -47l-66 119c-5 12 -5 19 18 29zM192 456c10 9 17 11 33 -8l-66 -123
c-13 -22 -46 8 -60 32zM198 513c11 -7 15 -12 2 -34l-138 25c-25 5 -6 46 13 66z" />
    <glyph glyph-name="plus" unicode="+" horiz-adv-x="499" 
d="M284 96c2 -41 -36 -39 -70 -39v176h-166c0 46 4 67 24 67h142v83c0 24 -1 52 -2 72c8 9 26 10 60 11c10 -5 12 -14 12 -36v-130h166c0 -45 -3 -67 -25 -67h-141v-137z" />
    <glyph glyph-name="comma" unicode="," horiz-adv-x="183" 
d="M146 50c-4 -56 -38 -122 -81 -154c-16 -11 -41 -11 -56 2c27 43 48 73 51 116c-5 1 -8 3 -9 6c-4 14 -14 40 -14 52c9 20 33 37 58 37c42 0 53 -15 51 -59z" />
    <glyph glyph-name="hyphen" unicode="-" horiz-adv-x="292" 
d="M220 229c-45 -7 -115 -16 -162 -16c-8 0 -15 2 -23 4c5 47 12 69 26 69c55 5 127 14 173 20c7 -1 16 -4 22 -7c-3 -37 -13 -67 -36 -70z" />
    <glyph glyph-name="period" unicode="." horiz-adv-x="183" 
d="M37 50c0 38 18 58 59 58c45 0 53 -19 52 -56c-1 -36 -12 -62 -59 -62c-39 0 -52 19 -52 60z" />
    <glyph glyph-name="slash" unicode="/" horiz-adv-x="350" 
d="M326 702c-65 -222 -129 -445 -194 -668c-10 -34 -22 -67 -36 -80c-12 -10 -23 -11 -72 -11c72 244 144 489 216 734c4 14 7 21 26 23c14 2 33 3 60 2z" />
    <glyph glyph-name="zero" unicode="0" 
d="M30 295c0 144 36 231 92 271c27 22 63 35 103 35c153 0 189 -144 189 -293c0 -213 -62 -322 -195 -322c-119 0 -189 91 -189 309zM121 292c0 -179 41 -237 101 -237c56 0 102 55 102 257c0 167 -40 221 -97 221h-1c-61 0 -105 -67 -105 -241z" />
    <glyph glyph-name="one" unicode="1" horiz-adv-x="383" 
d="M294 76c25 -12 66 -18 66 -27c0 -34 -1 -43 -11 -47c-10 -2 -21 -2 -33 -3c-61 -1 -127 -2 -184 -2c0 12 -1 31 -1 48c0 16 42 21 73 33c2 121 4 276 6 433c-35 -9 -113 -29 -133 -33c-5 9 -9 20 -10 32c5 10 14 21 26 32c69 25 151 49 185 59c7 -2 16 -6 21 -9
c-2 -111 -4 -352 -5 -516z" />
    <glyph glyph-name="two" unicode="2" 
d="M73 485c-4 -3 -7 -6 -10 -6c-15 0 -19 41 -19 52c24 40 98 70 179 70h1c118 0 157 -68 157 -153c0 -8 -1 -17 -2 -25c-6 -49 -30 -98 -65 -146c-38 -53 -85 -103 -163 -204c44 -1 93 -1 144 -1c46 0 97 4 115 4c-3 -42 -15 -70 -30 -72c-24 -2 -61 -5 -107 -5
c-89 0 -168 0 -232 4c-3 7 -5 15 -6 21c3 20 6 32 21 52c139 182 232 263 232 360c0 58 -31 88 -87 88c-51 0 -104 -23 -128 -39z" />
    <glyph glyph-name="three" unicode="3" 
d="M265 315c85 -16 135 -69 135 -155c0 -146 -107 -225 -242 -225c-53 0 -85 12 -99 24c-13 11 -15 26 -15 40c0 12 2 22 4 31c0 3 0 3 1 2c24 -15 62 -25 104 -25c100 0 156 67 154 151c-1 7 -1 13 -2 19c-8 61 -65 87 -141 87c-11 0 -24 -1 -35 -2c-1 6 -3 11 -4 17
c4 14 8 28 14 38c68 26 134 72 134 135c0 38 -20 73 -78 73c-46 0 -88 -15 -117 -35c-3 -2 -7 -5 -10 -5c-2 0 -4 1 -6 4c-7 13 -10 30 -10 44v5c15 32 80 63 165 63c119 0 150 -73 150 -127c0 -31 -8 -57 -22 -80c-17 -29 -42 -54 -80 -79z" />
    <glyph glyph-name="four" unicode="4" 
d="M255 76c0 20 1 45 1 70c-80 0 -167 3 -210 7c-17 16 -24 37 -27 56c31 78 161 306 225 364c18 17 45 28 64 31c13 0 29 -4 38 -6c0 -63 -1 -131 -1 -193c0 -61 0 -132 -1 -194c26 2 53 4 69 4c3 -10 6 -13 6 -23c-7 -20 -17 -36 -42 -43c-8 -2 -14 -2 -20 -2h-13v-118
c0 -18 -4 -30 -26 -34c-14 -2 -40 -3 -63 -3v84zM260 352c1 41 1 83 3 125c-61 -74 -123 -186 -155 -262c43 -3 92 -4 148 -4c2 45 3 98 4 141z" />
    <glyph glyph-name="five" unicode="5" 
d="M364 538c-37 -10 -145 -13 -207 -14c-9 -46 -18 -96 -24 -149c16 -1 39 -1 69 -4c15 -2 30 -4 45 -7c77 -16 141 -56 151 -155c0 -12 1 -24 1 -36c0 -8 0 -17 -1 -25c-9 -133 -101 -212 -236 -213c-67 0 -98 18 -104 30c-5 15 -8 31 -8 46c0 6 0 11 1 16c0 1 1 1 1 1
c20 -14 56 -22 98 -22c92 0 158 69 158 164c0 73 -36 108 -96 124c-36 10 -80 14 -111 16c-23 2 -43 3 -53 3c11 86 35 216 46 281c73 0 217 5 283 8l-4 -53c-1 -5 -4 -10 -9 -11z" />
    <glyph glyph-name="six" unicode="6" 
d="M29 233c0 20 0 42 2 66c6 111 35 198 80 256c67 85 150 109 210 109c36 0 66 -5 73 -30c0 -11 -2 -24 -5 -35c-88 5 -163 -14 -211 -79c-30 -38 -52 -92 -62 -164c-4 -35 -9 -70 -9 -108c0 -133 47 -194 116 -194c59 0 108 54 108 153c0 74 -30 109 -70 120
c-5 1 -10 2 -17 2c-18 0 -39 -5 -53 -9v20c0 24 6 42 21 50c15 7 34 11 54 11c6 0 11 0 16 -1c92 -9 128 -95 128 -183c0 -134 -60 -230 -194 -230c-112 0 -184 75 -187 246z" />
    <glyph glyph-name="seven" unicode="7" horiz-adv-x="422" 
d="M67 -31c61 163 174 412 236 561c-37 -1 -90 -2 -168 -2c-43 0 -72 6 -94 13c-1 2 -2 6 -2 10c0 14 6 37 14 56c23 -6 53 -7 86 -7h264c-6 -21 -13 -43 -19 -62c-46 -151 -197 -477 -233 -585c-32 -1 -87 -2 -84 16z" />
    <glyph glyph-name="eight" unicode="8" 
d="M342 304c44 -37 69 -78 69 -138c0 -99 -67 -176 -188 -176c-143 0 -190 91 -190 173c0 41 12 73 32 100c20 26 49 52 87 76c-30 18 -53 39 -70 59c-21 25 -32 57 -32 89c0 101 70 167 172 167c10 0 19 -1 28 -1c98 -7 144 -72 144 -152c0 -40 -14 -70 -32 -94
c-17 -23 -41 -42 -73 -64c20 -13 38 -26 53 -39zM134 497c0 -30 11 -50 35 -72c14 -14 36 -29 64 -45c48 31 83 69 83 117c0 59 -41 88 -90 88c-47 0 -92 -28 -92 -88zM223 59c52 0 102 34 102 102c0 42 -12 62 -39 87c-16 16 -42 34 -74 52c-53 -32 -97 -76 -97 -132
c0 -69 48 -109 108 -109z" />
    <glyph glyph-name="nine" unicode="9" 
d="M72 -6c65 -1 140 35 186 89c31 42 53 95 62 157c4 31 6 63 6 96c0 126 -28 204 -106 204c-71 0 -112 -59 -112 -148c0 -71 31 -110 73 -120c8 -1 16 -2 24 -2c16 0 33 3 45 6c1 -7 1 -15 1 -23c0 -19 -3 -39 -20 -46c-12 -5 -30 -10 -52 -10c-5 0 -11 1 -17 1
c-88 11 -134 88 -134 184c0 134 67 225 195 225c135 0 180 -83 182 -281c-1 -139 -32 -248 -111 -320c-58 -53 -131 -72 -171 -72h-9c-27 1 -42 6 -50 19c-6 12 -7 29 -7 42c5 -1 10 -1 15 -1z" />
    <glyph glyph-name="colon" unicode=":" horiz-adv-x="183" 
d="M37 374c0 38 19 58 59 58c45 0 53 -19 52 -56c-1 -36 -13 -62 -58 -62c-39 0 -53 19 -53 60zM37 50c0 38 19 58 59 58c45 0 53 -19 52 -56c-1 -36 -13 -62 -58 -62c-39 0 -53 19 -53 60z" />
    <glyph glyph-name="semicolon" unicode=";" horiz-adv-x="183" 
d="M37 374c0 38 19 58 59 58c45 0 53 -19 52 -56c-1 -36 -13 -62 -58 -62c-39 0 -53 19 -53 60zM146 50c-4 -56 -38 -122 -81 -154c-16 -11 -41 -11 -56 2c27 43 48 73 51 116c-5 1 -8 3 -9 6c-4 14 -14 40 -14 52c9 20 33 37 58 37c42 0 53 -15 51 -59z" />
    <glyph glyph-name="equal" unicode="=" horiz-adv-x="499" 
d="M48 328c1 47 5 67 25 67h378c-1 -45 -4 -67 -25 -67h-378zM48 136c1 46 5 67 25 67h378c-1 -45 -4 -67 -25 -67h-378z" />
    <glyph glyph-name="question" unicode="?" horiz-adv-x="312" 
d="M224 368c-32 -42 -50 -78 -50 -106c0 -22 7 -43 7 -53v-2c-4 -7 -21 -11 -35 -11c-18 0 -39 12 -46 38c-3 13 -5 27 -5 40c0 20 4 39 12 58c11 23 25 44 40 65c26 37 56 74 56 117c0 47 -29 67 -68 67c-24 0 -50 -7 -80 -26c-13 1 -25 18 -25 54c19 33 81 49 130 49
c98 0 133 -56 133 -132c0 -66 -32 -111 -69 -158zM150 105c40 0 47 -18 46 -54c-1 -35 -11 -60 -52 -60c-35 0 -47 18 -47 58c0 37 17 56 53 56z" />
    <glyph glyph-name="at" unicode="@" horiz-adv-x="733" 
d="M559 -55c8 -12 14 -30 15 -45c-15 -11 -28 -21 -43 -26c-65 -21 -127 -32 -184 -32c-178 0 -308 108 -302 377c0 10 1 21 2 31c13 239 151 364 354 364c181 0 290 -96 290 -295c0 -233 -96 -300 -180 -300c-28 0 -51 10 -63 27c-16 -13 -52 -32 -104 -32
c-59 2 -108 22 -110 120c0 53 18 90 51 116c29 22 65 32 90 34c6 0 11 1 17 1c11 0 21 -1 29 -3c0 3 0 16 1 22c4 50 -11 82 -57 80c-24 0 -47 -6 -68 -17c-9 -4 -17 -6 -24 -6c-7 8 -10 23 -12 32c0 4 -1 6 -1 9c0 4 1 7 2 9c17 17 66 39 120 39c47 0 79 -13 96 -45
c8 -14 12 -31 14 -55c2 -19 2 -39 2 -60c-1 -18 -1 -36 -1 -54c-1 -20 -1 -41 -2 -61c0 -31 -1 -58 -2 -79c6 -5 14 -11 23 -11c41 0 102 53 102 227c0 165 -73 237 -212 237c-175 0 -280 -108 -280 -334c0 -220 85 -301 239 -301c53 2 93 11 130 20c25 7 49 13 68 11z
M341 78c7 -1 17 0 26 1c26 4 47 20 52 47l2 103c-69 0 -113 -20 -113 -99c0 -5 1 -9 1 -14c3 -27 21 -35 32 -38z" />
    <glyph glyph-name="A" unicode="A" horiz-adv-x="524" 
d="M423 13c-18 55 -30 102 -53 170h-208c-23 -66 -44 -128 -59 -173c-3 -9 -9 -14 -31 -14c-14 0 -42 3 -60 7c1 13 4 24 8 35c56 167 165 458 210 601c3 13 5 21 10 21c6 1 14 4 21 4c11 2 21 2 27 2c8 -2 15 -5 19 -10c45 -136 108 -325 150 -452c28 -79 47 -140 64 -191
c0 -1 1 -3 1 -3c0 -3 -2 -5 -4 -7c-12 -4 -39 -7 -56 -7c-12 0 -23 3 -39 17zM206 324l-22 -70h165c-14 46 -26 90 -39 130c-21 66 -33 112 -42 147c-17 -63 -34 -123 -62 -207z" />
    <glyph glyph-name="B" unicode="B" 
d="M59 3v518v105v9c0 6 0 13 1 20c5 2 14 3 27 4c28 3 70 6 110 6c131 0 184 -65 184 -149c0 -70 -25 -107 -49 -127c-9 -7 -19 -14 -35 -20c17 -4 30 -9 42 -16c31 -19 78 -54 78 -140c0 -151 -96 -218 -220 -218c-51 1 -87 3 -138 8zM147 324v-258c8 -2 38 -5 53 -5
c65 0 118 46 118 150c0 8 0 14 -1 21c-9 74 -55 94 -120 94c-15 0 -41 0 -50 -2zM147 595v-205c9 2 40 2 59 3c11 0 22 1 34 3c25 12 50 47 50 105c0 6 0 12 -1 17c-6 56 -44 80 -96 80c-12 0 -40 -2 -46 -3z" />
    <glyph glyph-name="C" unicode="C" horiz-adv-x="465" 
d="M308 677c83 0 128 -32 137 -50c0 -22 -6 -39 -14 -50h-4c-7 -1 -16 4 -28 9c-13 6 -29 11 -47 14c-10 1 -20 2 -32 2c-7 0 -14 0 -21 -1c-92 -8 -171 -88 -171 -281c0 -176 67 -255 184 -255c48 0 98 15 120 29c4 -7 7 -18 8 -31c-2 -18 -9 -34 -23 -46
c-19 -16 -65 -32 -119 -32c-162 0 -264 79 -264 329c0 129 28 224 86 287c54 58 120 76 188 76z" />
    <glyph glyph-name="D" unicode="D" horiz-adv-x="527" 
d="M72 656c25 3 90 9 141 9c221 0 280 -130 280 -309c0 -137 -25 -232 -91 -295c-58 -54 -133 -66 -186 -66c-58 0 -104 4 -156 10v583c0 40 2 54 12 68zM396 356c0 152 -46 218 -137 233c-18 4 -38 6 -60 6c-20 0 -37 -1 -51 -3v-521c20 -3 44 -5 71 -5
c85 0 177 49 177 290z" />
    <glyph glyph-name="E" unicode="E" horiz-adv-x="383" 
d="M148 71c20 -2 52 -3 84 -3c41 0 91 0 131 2c0 0 1 0 1 -1c-5 -51 -13 -65 -33 -70c-26 -1 -62 -2 -118 -2c-62 0 -114 2 -146 5c-3 14 -5 27 -7 41v479c0 44 0 85 -2 125c11 3 28 14 51 15h242c-3 -48 -8 -61 -22 -67c-24 -4 -53 -4 -92 -4h-89v-204h186
c-7 -63 -15 -72 -39 -72h-147v-244z" />
    <glyph glyph-name="F" unicode="F" horiz-adv-x="375" 
d="M102 -3c-17 0 -31 2 -42 8v532c0 44 -1 78 -2 110c9 3 29 14 54 15h249c-4 -49 -9 -60 -23 -65c-14 -4 -32 -4 -62 -4h-128v-217h191c-4 -62 -15 -71 -40 -71h-151c0 -109 1 -204 2 -296c-7 -3 -26 -12 -48 -12z" />
    <glyph glyph-name="G" unicode="G" horiz-adv-x="520" 
d="M328 364c0 0 0 8 10 8c29 2 100 3 128 3c6 -21 8 -70 8 -102v-237c-12 -9 -33 -23 -51 -31c-29 -11 -70 -20 -119 -20c-11 0 -22 0 -33 1c-142 10 -239 89 -239 335c0 144 42 234 90 285c45 48 111 70 194 70s128 -32 137 -50c0 -22 -6 -35 -14 -46h-4c-7 -1 -16 5 -28 9
c-25 9 -55 14 -85 14c-122 0 -195 -85 -195 -276c0 -214 87 -270 183 -270c36 0 67 10 78 20v224c-25 0 -56 1 -60 63z" />
    <glyph glyph-name="H" unicode="H" horiz-adv-x="534" 
d="M394 -3c-5 14 -8 30 -8 51v269c-23 -1 -52 -2 -108 -2h-130v-254c0 -24 -3 -39 -13 -54c-8 -10 -24 -10 -77 -10c1 48 2 106 2 177v329c0 62 -1 111 -2 149c10 10 31 12 80 12c8 -12 10 -27 10 -62v-215h238v209c0 25 3 42 10 58c10 9 27 10 80 10
c-1 -48 -2 -106 -2 -176v-332c0 -63 1 -108 2 -147c-9 -10 -33 -12 -82 -12z" />
    <glyph glyph-name="I" unicode="I" horiz-adv-x="207" 
d="M68 -3c-6 0 -9 5 -9 19c0 75 1 194 1 316c0 76 -1 153 -1 213c0 54 -1 87 -2 96c8 20 33 23 82 23c8 0 9 -20 9 -66c0 -79 -1 -176 -1 -264c0 -86 1 -167 1 -231c0 -55 1 -84 1 -94c-8 -10 -32 -12 -81 -12z" />
    <glyph glyph-name="J" unicode="J" horiz-adv-x="276" 
d="M28 1c38 1 107 -3 100 174v337c0 55 -1 98 -2 129c10 20 33 23 83 23c7 -12 8 -26 8 -60v-415c0 -120 -7 -194 -67 -234c-16 -11 -35 -19 -58 -22c-11 -2 -21 -2 -30 -2c-15 0 -27 2 -37 5c-19 5 -30 22 -33 38c1 16 5 24 8 30c9 -2 19 -3 28 -3z" />
    <glyph glyph-name="K" unicode="K" horiz-adv-x="454" 
d="M68 -3c-7 11 -9 24 -9 42v480c0 56 -1 98 -2 133c8 7 33 11 83 11c7 -13 8 -28 8 -62v-236c67 94 142 203 212 298c6 1 13 1 21 1c13 0 27 -1 37 -1c17 -1 25 -7 25 -14c0 -6 -2 -11 -7 -20c-5 -8 -12 -19 -18 -26c-51 -70 -120 -164 -176 -238c96 -94 186 -318 223 -353
c0 -7 -1 -8 -11 -12c-7 -3 -23 -6 -40 -6h-14c-36 4 -53 42 -67 74c-27 59 -74 143 -127 203c-25 28 -47 52 -58 59v-196c0 -56 1 -94 1 -126c-7 -10 -31 -11 -81 -11z" />
    <glyph glyph-name="L" unicode="L" horiz-adv-x="377" 
d="M140 664c6 -15 8 -33 8 -72v-519c25 -3 61 -4 96 -4c37 0 82 0 117 3c1 -11 1 -20 1 -31c-3 -17 -12 -37 -32 -42c-20 -1 -50 -2 -99 -2c-67 0 -125 2 -164 5c-3 17 -5 35 -8 52v488c0 47 -1 82 -2 106c10 13 29 16 83 16z" />
    <glyph glyph-name="M" unicode="M" horiz-adv-x="664" 
d="M91 639c0 6 1 16 7 19c4 2 11 2 18 3c17 2 35 3 56 3c22 -45 63 -161 98 -263c3 -10 7 -20 10 -31c8 -24 17 -53 25 -77c8 -25 14 -45 21 -63c7 18 15 42 24 64c10 28 21 62 31 87c33 91 65 184 93 259c3 7 5 14 10 18c18 3 50 6 74 6c4 -13 7 -24 9 -46
c9 -124 19 -247 30 -370c10 -91 16 -174 20 -237c-7 -12 -31 -14 -83 -14c-8 12 -11 24 -11 41c-1 20 -4 35 -4 55c-3 35 -6 77 -10 123c-1 20 -3 39 -4 57c-3 37 -3 90 -4 135c-2 40 -2 67 -3 93c0 -1 -1 -1 -1 -2c-21 -66 -51 -157 -70 -209c-23 -61 -46 -126 -69 -190
c-4 -13 -10 -18 -22 -20c-13 -3 -30 -4 -45 -4c-17 56 -48 144 -77 230c-3 9 -15 47 -28 89c-15 49 -29 91 -35 108v-84c-1 -43 -1 -104 -4 -139c-9 -85 -17 -169 -21 -231c-3 -18 -4 -30 -10 -42c-6 -5 -15 -8 -32 -8c-12 0 -27 0 -45 3c-2 0 -3 1 -3 2
c10 163 34 407 55 635z" />
    <glyph glyph-name="N" unicode="N" horiz-adv-x="557" 
d="M293 397l34 -61c34 -65 68 -136 90 -188v8c0 7 0 14 -1 21c-3 46 -5 122 -5 177v245c0 25 3 40 9 54c17 11 23 11 76 11c-1 -59 -2 -128 -2 -207v-447c-3 -2 -24 -16 -43 -16c-9 0 -31 1 -41 5c-42 77 -92 162 -143 252l-41 75c-21 43 -44 94 -65 139
c-10 22 -15 32 -24 52c4 -75 6 -160 7 -217v-236c0 -26 -3 -40 -9 -54c-11 -12 -24 -13 -77 -13c1 58 2 126 2 206v427c-4 5 -12 15 -12 17c0 0 0 6 1 9c10 6 52 8 68 8c9 0 20 -3 30 -9c22 -42 55 -100 92 -163c18 -31 35 -62 54 -95z" />
    <glyph glyph-name="O" unicode="O" horiz-adv-x="572" 
d="M130 324c0 193 63 279 156 279h1c90 0 159 -80 159 -269s-59 -275 -157 -275c-93 0 -159 86 -159 265zM290 677c-166 0 -257 -119 -257 -348c0 -212 71 -344 251 -344c173 0 257 129 257 352c0 214 -79 340 -251 340z" />
    <glyph glyph-name="P" unicode="P" horiz-adv-x="423" 
d="M59 202l-2 432c0 8 -1 19 -1 29c5 3 14 6 26 7h3c31 2 67 3 103 3c134 0 215 -58 215 -206c0 -144 -97 -191 -164 -199c-22 0 -53 2 -53 42c0 5 7 10 15 10c48 0 106 36 106 151c0 97 -51 130 -111 130c-23 0 -39 0 -50 -2v-254v-188l1 -111c0 -18 -3 -29 -10 -39
c-8 -9 -21 -10 -48 -10h-32c1 58 2 125 2 205z" />
    <glyph glyph-name="Q" unicode="Q" horiz-adv-x="576" 
d="M695 -68c32 -8 53 -28 68 -44c-5 -12 -8 -20 -13 -29c-13 10 -38 20 -74 23c-43 4 -98 -6 -156 -19c-58 -14 -114 -27 -157 -22c-77 10 -117 108 -116 150c-152 16 -213 157 -213 338c0 229 91 348 258 348c172 0 250 -126 250 -340c1 -215 -75 -319 -191 -345
c3 -26 13 -64 55 -79c12 -3 23 -5 36 -5c34 0 72 10 113 17c36 6 69 11 99 11c14 0 29 -1 41 -4zM290 58c98 0 157 86 157 275c0 193 -59 268 -156 270c-99 0 -159 -87 -159 -280c0 -178 67 -265 158 -265z" />
    <glyph glyph-name="R" unicode="R" horiz-adv-x="453" 
d="M465 12c12 -16 -51 -18 -51 -18h-13c-36 3 -54 42 -68 74c-27 59 -73 143 -125 202c-5 1 -10 2 -17 2h-44v-226c0 -17 -3 -28 -10 -38c-10 -12 -31 -11 -80 -11c1 59 2 126 2 205v338c0 36 0 66 -1 94c0 5 0 12 1 19c4 3 10 4 21 6c7 1 12 2 21 3c15 1 28 2 43 2
c17 0 33 1 49 0l26 -1c116 -6 176 -62 176 -188c0 -91 -78 -170 -96 -180c73 -107 137 -255 166 -283zM239 344c32 12 62 53 62 133c0 81 -41 122 -101 122c-24 0 -43 -2 -53 -3v-255c8 -1 32 -1 50 -1c16 0 33 0 42 4z" />
    <glyph glyph-name="S" unicode="S" horiz-adv-x="390" 
d="M214 677c80 0 122 -26 131 -40c0 -15 -5 -32 -15 -48c-3 -2 -7 -3 -11 -3c-5 0 -11 2 -18 5c-19 9 -47 17 -78 17c-58 0 -95 -28 -95 -81v-14c4 -24 17 -45 37 -68c22 -25 48 -49 77 -76c23 -21 43 -39 61 -59c41 -42 59 -84 59 -143c0 -109 -67 -182 -192 -182
c-66 0 -111 18 -130 35c-9 8 -12 14 -12 22c0 17 9 42 19 58c28 -24 72 -40 120 -40c60 0 101 36 101 100c0 43 -16 73 -64 118c-15 17 -33 34 -51 52c-29 28 -55 52 -74 76c-33 42 -44 78 -44 115c0 78 50 156 179 156z" />
    <glyph glyph-name="T" unicode="T" horiz-adv-x="458" 
d="M423 590h-151v-453c0 -57 1 -96 2 -128c-12 -10 -27 -12 -81 -12c-6 11 -9 24 -9 43v550h-128c-15 0 -29 1 -42 3c-1 4 -1 7 -1 11c0 14 4 33 8 43c3 8 8 13 12 17c6 0 13 -1 24 -1c22 -1 49 -1 88 -1h306c0 -18 -3 -36 -7 -52c-4 -14 -17 -19 -21 -20z" />
    <glyph glyph-name="U" unicode="U" horiz-adv-x="552" 
d="M280 57c65 0 92 12 108 22c14 68 20 155 20 238l1 274c0 26 4 45 10 62c15 10 24 11 76 11c-1 -52 -2 -114 -2 -188v-159c0 -108 -9 -195 -27 -270c-39 -47 -114 -62 -192 -62c-153 0 -198 90 -212 213c-3 33 -5 68 -5 106v190c0 65 -1 116 -2 157c8 10 32 13 82 13
c9 -16 10 -35 10 -75v-277c0 -42 2 -78 7 -111c15 -88 47 -144 126 -144z" />
    <glyph glyph-name="V" unicode="V" horiz-adv-x="491" 
d="M262 -7c-28 -2 -57 24 -57 24c-3 5 -6 11 -9 20c-23 77 -66 222 -101 337c-41 139 -71 241 -82 267c4 12 11 18 31 20c18 2 36 3 53 3c10 -11 14 -28 29 -72c24 -87 54 -188 87 -302c17 -69 35 -129 47 -189c12 52 30 116 49 191c18 66 37 134 54 195
c16 58 29 100 41 141c4 13 7 23 12 33c7 2 13 2 18 2h9c18 -1 33 -2 50 -4c3 -1 4 -6 4 -13c0 -10 -5 -25 -9 -44c-13 -43 -29 -104 -55 -190c-46 -165 -101 -345 -126 -402c-15 -10 -25 -15 -45 -17z" />
    <glyph glyph-name="W" unicode="W" horiz-adv-x="771" 
d="M366 640c9 2 17 3 25 4c9 1 18 2 27 2c7 -9 12 -23 16 -42c15 -64 41 -169 74 -305c15 -70 28 -130 40 -193c12 63 25 120 39 189c37 144 63 252 83 344c3 9 4 16 7 21c3 3 9 3 19 3c11 -1 23 -1 34 -3c11 0 18 -1 26 -4v-4c0 -6 -1 -18 -6 -38c-11 -40 -22 -85 -37 -143
c-41 -166 -98 -407 -120 -458c-13 -9 -24 -18 -44 -20c-26 -4 -55 22 -55 22c-2 6 -3 11 -5 18c-15 63 -32 136 -52 213c-16 66 -35 161 -51 241c-12 -62 -33 -166 -52 -240c-7 -29 -51 -210 -56 -232c-14 -11 -25 -18 -45 -20c-27 -3 -56 24 -56 24c-2 6 -6 17 -10 32
c-24 90 -64 256 -98 390c-22 95 -39 177 -47 196c5 12 13 21 32 23c18 2 32 3 49 3c7 -1 18 -52 19 -60c19 -84 44 -186 74 -310c14 -67 27 -124 38 -184c7 47 17 101 31 169c25 104 53 220 82 336l4 20c2 2 4 4 15 6z" />
    <glyph glyph-name="X" unicode="X" horiz-adv-x="497" 
d="M484 11c1 -2 1 -2 1 -5c0 -1 0 -1 -1 -1c-10 -9 -43 -9 -69 -9c-13 0 -26 2 -39 9c-19 39 -39 77 -61 119c-23 46 -48 98 -72 142c-21 -39 -48 -92 -75 -142c-24 -42 -47 -83 -63 -115c-6 -9 -13 -11 -22 -11s-31 0 -49 4c-11 1 -16 3 -23 4c50 94 120 216 186 332
c-51 101 -123 227 -163 307c0 4 1 8 8 11c21 4 49 8 82 8c8 -7 14 -17 24 -36c16 -28 30 -55 43 -80c23 -49 45 -95 66 -134c22 39 46 91 72 141c17 31 33 63 48 92l4 9c3 4 9 7 20 7c14 0 38 -3 66 -7c-2 -9 -4 -17 -7 -27c-35 -70 -95 -175 -158 -281
c88 -153 142 -256 182 -337z" />
    <glyph glyph-name="Y" unicode="Y" horiz-adv-x="462" 
d="M236 375l131 282c11 4 19 6 31 6c10 0 24 -1 47 -3c1 -4 2 -10 2 -12c0 -12 -5 -22 -11 -36c-28 -68 -122 -221 -146 -278c-6 -16 -12 -34 -14 -50v-146c0 -56 1 -97 1 -128c-9 -11 -22 -14 -82 -14c-6 14 -8 27 -8 45v235c0 10 0 17 -2 23c-11 29 -28 67 -53 115
c-37 75 -86 164 -120 234l-1 2c0 5 7 7 47 7h50c26 -56 108 -240 128 -282z" />
    <glyph glyph-name="Z" unicode="Z" horiz-adv-x="467" 
d="M45 606c3 16 5 30 8 43c2 4 5 15 16 17c16 -2 35 -4 61 -4h298v-3c0 -5 1 -11 1 -19c0 -15 -4 -31 -12 -48c-53 -116 -173 -336 -279 -522c58 -2 149 -3 226 -3c41 0 71 4 81 5c2 -10 2 -21 1 -32c-7 -18 -20 -38 -35 -40c-22 -2 -51 -3 -126 -3c-122 0 -199 2 -249 4
c-2 2 -9 10 -11 21c0 5 -1 9 -1 13s1 8 1 12c108 180 229 399 302 545h-231c-38 0 -51 4 -51 12v2z" />
    <glyph glyph-name="bracketleft" unicode="[" horiz-adv-x="358" 
d="M229 798c35 -5 69 -14 101 -22c0 -36 -2 -40 -24 -42c-27 -2 -53 -3 -73 -5c-17 -2 -31 -5 -45 -12v-31c0 -89 -3 -220 -3 -402c0 -171 0 -240 1 -295c1 -23 5 -42 11 -59c22 -2 47 -3 79 -5c19 -1 35 -3 49 -7c0 -46 -4 -53 -19 -57c-81 0 -157 6 -198 9
c-1 37 -1 80 -1 127c0 94 1 203 1 308c0 125 2 309 4 446c0 16 0 27 5 36c6 4 75 11 112 11z" />
    <glyph glyph-name="backslash" unicode="\" horiz-adv-x="326" 
d="M99 702c61 -224 121 -448 182 -672c7 -27 11 -48 11 -66c0 -5 0 -10 -1 -15c-5 -10 -17 -11 -65 -11c-67 246 -133 492 -200 739c-1 4 -1 7 -1 9c0 11 11 16 55 16h19z" />
    <glyph glyph-name="bracketright" unicode="]" horiz-adv-x="358" 
d="M129 -139c-35 5 -69 13 -101 22c0 35 2 41 24 42c27 2 53 4 73 5c17 1 31 5 44 12c1 87 4 228 4 433v191s0 76 -1 104c-1 23 -5 42 -11 59c-22 2 -48 3 -79 5c-19 1 -35 3 -49 7c0 46 4 53 19 57c81 0 158 -6 198 -9c1 -37 1 -80 1 -127c0 -94 -1 -203 -1 -308v-1
c0 -125 -2 -308 -4 -445c0 -17 0 -28 -5 -36c-6 -4 -75 -11 -112 -11z" />
    <glyph glyph-name="underscore" unicode="_" horiz-adv-x="439" 
d="M423 -98h-416c0 34 0 52 8 61h417c0 -34 0 -52 -9 -61z" />
    <glyph glyph-name="quoteleft" unicode="&#x2018;" horiz-adv-x="187" 
d="M131 546c-6 -20 -27 -36 -52 -36c-5 0 -10 0 -15 1c-21 3 -31 24 -31 52c0 4 0 8 1 13c4 52 33 110 58 138c12 12 22 18 35 18c10 0 19 -3 26 -11c-22 -40 -35 -86 -36 -131c3 -1 6 -3 7 -6c4 -12 5 -25 7 -38z" />
    <glyph glyph-name="a" unicode="a" horiz-adv-x="395" 
d="M57 412c-1 3 -1 7 -1 11s1 8 2 11c21 20 81 46 148 48c16 0 18 0 35 -1c74 -5 98 -54 98 -139v-45c0 -69 -2 -149 -2 -202c0 0 -4 -52 28 -46c-1 -14 -1 -31 -1 -37c-8 -11 -27 -22 -53 -23c-24 0 -50 22 -60 36c-6 -6 -18 -17 -29 -23c-22 -11 -46 -13 -73 -13
c-64 0 -125 40 -125 132c0 123 109 154 169 160c10 1 19 1 28 1c13 0 24 -1 33 -3v57c0 45 -5 70 -48 70c-35 0 -76 -14 -105 -26c-11 -5 -21 -8 -29 -8c-9 10 -13 28 -15 40zM252 103c2 12 2 27 2 48v71c-6 1 -13 1 -20 1c-12 0 -23 -1 -33 -2c-48 -8 -89 -29 -89 -92
c0 -51 22 -69 53 -71h7c30 0 63 14 77 31c1 2 2 8 3 14z" />
    <glyph glyph-name="b" unicode="b" horiz-adv-x="453" 
d="M67 14c-7 16 -9 34 -9 57v512c0 44 -1 73 -2 97c10 23 39 27 80 27c6 -14 8 -31 8 -76v-186c28 20 68 37 116 37c92 0 163 -60 163 -208c0 -138 -46 -212 -97 -250c-41 -28 -91 -37 -131 -37c-54 0 -100 10 -128 27zM144 383v-317c13 -7 36 -13 60 -13
c57 0 125 45 125 207c0 112 -39 151 -105 151c-27 0 -58 -9 -80 -28z" />
    <glyph glyph-name="c" unicode="c" horiz-adv-x="368" 
d="M349 442c0 -13 -5 -35 -13 -49h-5c-7 0 -17 3 -27 6c-18 8 -40 13 -60 13c-5 0 -9 0 -14 -1c-63 -5 -108 -60 -108 -180c0 -144 63 -174 128 -174c33 0 65 9 86 19c3 -10 6 -21 6 -28c-1 -14 -10 -31 -22 -40c-19 -13 -52 -22 -88 -22c-108 0 -200 40 -200 240
c0 106 34 171 73 207c39 37 89 49 137 49c59 0 103 -27 107 -40z" />
    <glyph glyph-name="d" unicode="d" horiz-adv-x="455" 
d="M393 94c0 0 -4 -53 28 -46c-1 -14 -1 -32 -1 -37c-8 -12 -27 -22 -53 -23c-24 -1 -50 22 -60 35c-6 -6 -18 -17 -29 -22c-22 -11 -46 -15 -73 -14c-100 5 -173 61 -173 231c0 91 26 159 66 204c37 41 85 60 133 60c35 0 62 -8 78 -18v119c0 44 -1 73 -2 97
c10 23 39 27 80 27c6 -14 8 -31 8 -76v-336c0 -69 -2 -148 -2 -201zM309 149v247c-15 13 -36 19 -64 19c-59 0 -119 -50 -119 -187c0 -128 45 -169 106 -169c30 0 59 11 73 28c1 2 3 9 3 14c1 12 1 27 1 48z" />
    <glyph glyph-name="e" unicode="e" horiz-adv-x="398" 
d="M238 61c42 0 79 7 111 24c3 -9 5 -28 6 -40c-1 -20 -30 -41 -58 -48c-15 -4 -45 -10 -76 -10c-47 0 -97 9 -136 48c-35 36 -53 99 -53 182c0 193 82 265 192 265c90 0 136 -55 145 -141c1 -15 2 -31 2 -48c0 -21 -2 -43 -6 -59c-10 -8 -43 -19 -70 -23
c-31 -4 -83 -6 -130 -6c-16 0 -29 0 -45 1c1 -110 48 -145 118 -145zM214 417c-3 0 -6 0 -9 -1c-40 -6 -78 -51 -83 -148h38c39 0 80 1 99 3c9 1 17 2 23 6c3 8 5 20 5 33c0 8 -1 15 -1 22c-5 56 -27 85 -72 85z" />
    <glyph glyph-name="f" unicode="f" horiz-adv-x="263" 
d="M330 690c4 -5 3 -11 3 -16c-1 -8 -2 -15 -5 -22c-4 -9 -7 -15 -12 -20c-3 -1 -12 2 -20 4c-10 3 -27 4 -40 4c-45 0 -86 -20 -90 -106c-1 -21 -1 -43 -1 -65h54c22 0 44 0 57 1c-3 -47 -8 -57 -22 -62c-2 -1 -6 -3 -11 -4c-21 -2 -48 -2 -79 -2c0 -113 1 -275 2 -382
c0 -5 0 -16 -8 -19c-16 -3 -45 -4 -57 -4c-8 0 -15 1 -22 2c-1 6 -1 14 -1 23c0 40 1 81 1 122c0 82 -1 168 -1 258c-32 1 -51 4 -62 12c4 37 7 42 23 46c8 2 21 5 39 9c0 27 1 52 4 75c11 133 103 165 173 165c41 0 66 -9 75 -19z" />
    <glyph glyph-name="g" unicode="g" horiz-adv-x="421" 
d="M368 311c0 -105 -62 -166 -164 -166c-19 0 -32 2 -47 5c-9 -9 -17 -16 -24 -24c-5 -6 -7 -12 -7 -17c0 -12 21 -23 61 -27c28 -2 58 -5 88 -7c13 -1 25 -2 35 -4c62 -10 99 -44 102 -102c0 -89 -86 -189 -210 -215c-26 -6 -60 -10 -92 -10c-47 0 -90 10 -98 41
c-13 50 85 132 147 173c20 -11 22 -39 5 -54c-34 -30 -72 -66 -66 -86c3 -12 17 -15 35 -15c23 0 52 6 70 10c72 18 127 85 126 128c0 4 -1 13 -2 16c-9 24 -18 41 -60 46c-22 3 -45 4 -69 5l-18 1c-44 4 -76 14 -76 14c-44 14 -68 39 -69 68c0 6 4 13 11 21
c19 19 43 41 60 57c-42 26 -66 75 -66 138c0 112 72 175 170 175c34 0 63 -10 80 -19c4 -2 7 -6 15 0c38 1 77 4 103 5c3 -6 6 -17 6 -30c0 -23 -9 -40 -27 -40c-17 0 -29 1 -46 3c18 -26 27 -54 27 -90zM198 424c-46 0 -78 -37 -71 -112c6 -66 33 -108 89 -108
c54 0 75 47 69 117c-6 65 -35 103 -87 103z" />
    <glyph glyph-name="h" unicode="h" horiz-adv-x="450" 
d="M55 -3c1 58 2 126 2 208v382c0 42 -1 71 -2 94c12 22 38 26 80 26c6 -11 8 -24 8 -66v-212c20 19 43 33 63 41c18 7 40 12 65 12c97 0 125 -55 125 -188v-147c0 -55 0 -101 1 -138c-10 -10 -22 -12 -82 -12c-5 12 -7 27 -7 46v242c0 19 0 33 -2 43c-3 63 -28 80 -65 80
c-40 0 -75 -22 -98 -45v-304c0 -21 -2 -38 -10 -52c-13 -10 -25 -10 -78 -10z" />
    <glyph glyph-name="i" unicode="i" horiz-adv-x="202" 
d="M137 472c7 -14 8 -29 8 -71v-340c0 -23 -3 -39 -12 -53c-7 -10 -21 -10 -77 -11c0 51 1 110 1 171v177c0 46 -1 77 -2 103c10 21 41 24 82 24zM52 642c0 37 17 56 53 56c40 0 47 -18 46 -54c-1 -35 -11 -60 -52 -60c-35 0 -47 18 -47 58z" />
    <glyph glyph-name="j" unicode="j" horiz-adv-x="206" 
d="M140 472c6 -11 8 -25 8 -64v-318c0 -46 -2 -88 -6 -127c-4 -40 -12 -74 -29 -101c-20 -32 -50 -52 -88 -57c-8 -1 -16 -1 -23 -1c-14 0 -25 1 -34 4c-19 3 -32 15 -35 33c0 9 2 22 6 29c3 0 6 -1 10 -1c20 0 43 6 65 16c33 14 42 44 45 105c1 24 2 51 2 80v255
c0 53 -1 90 -2 123c10 21 40 24 81 24zM55 642c0 37 17 56 53 56c40 0 47 -18 46 -54c-1 -35 -11 -60 -52 -60c-35 0 -47 18 -47 58z" />
    <glyph glyph-name="k" unicode="k" horiz-adv-x="396" 
d="M55 -3c1 35 2 159 2 196v366c0 34 -1 64 -2 91l-1 28c10 24 36 30 76 30c8 -13 12 -28 12 -79v-180c37 31 79 42 124 42c66 0 84 -54 84 -96c0 -114 -102 -168 -134 -179c40 -27 156 -177 202 -231c11 -8 -1 -16 -15 -21c-10 -3 -23 -5 -36 -5c-20 0 -31 6 -53 23
c-16 15 -57 71 -93 110c-12 13 -52 55 -62 66c-3 3 -12 11 -17 15v-145c0 -31 -7 -31 -87 -31zM142 364v-117c62 28 115 76 115 134c0 23 -10 40 -33 40s-56 -20 -82 -57z" />
    <glyph glyph-name="l" unicode="l" horiz-adv-x="201" 
d="M143 94c0 0 -3 -52 28 -46c-1 -14 -1 -32 -1 -37c-8 -12 -27 -22 -53 -23c-12 0 -25 6 -36 13c-16 11 -24 30 -24 50v10v507c0 49 -1 83 -2 113c10 23 40 26 81 26c6 -20 7 -43 7 -93v-520z" />
    <glyph glyph-name="m" unicode="m" horiz-adv-x="679" 
d="M386 14c0 -10 -5 -14 -13 -16c-7 -1 -18 -1 -35 -1h-41c2 51 2 112 2 187v120c0 78 -17 106 -67 106c-37 0 -66 -19 -87 -42v-324c0 -17 -2 -27 -10 -37c-13 -10 -24 -10 -77 -10c1 51 1 113 1 188v179c0 32 -5 55 -12 75c5 6 18 13 40 23c3 1 6 1 7 1
c19 0 27 -13 31 -30c24 20 48 32 69 39s40 10 63 10c5 0 12 0 18 -1c45 -3 71 -21 88 -50c24 20 49 33 72 40c21 7 40 10 61 10c7 0 14 0 20 -1c88 -7 109 -72 109 -172v-168c0 -50 0 -95 2 -131c-12 -9 -26 -12 -82 -12c-4 8 -7 18 -7 32v274c0 78 -16 106 -67 106
c-35 0 -64 -19 -85 -42v-118v-235z" />
    <glyph glyph-name="n" unicode="n" horiz-adv-x="452" 
d="M231 408c-36 0 -65 -19 -86 -42v-312c0 -21 -2 -34 -11 -47c-12 -10 -23 -9 -77 -10c1 54 2 118 2 195v170c0 32 -5 55 -12 75c5 6 18 13 40 23c3 1 6 1 7 1c18 0 27 -13 31 -30c24 20 47 32 69 39c21 7 40 11 62 11c119 0 142 -63 142 -176v-153c0 -55 1 -103 2 -143
c-10 -9 -25 -12 -82 -12c-6 11 -8 25 -8 41v265c0 77 -19 105 -79 105z" />
    <glyph glyph-name="o" unicode="o" horiz-adv-x="443" 
d="M414 238c0 -167 -82 -252 -193 -252c-124 0 -193 73 -193 246c0 172 81 250 196 250c126 0 190 -83 190 -244zM121 236c0 -138 43 -185 102 -185c53 0 99 46 99 184c0 131 -39 180 -99 180h-2c-53 0 -100 -49 -100 -179z" />
    <glyph glyph-name="p" unicode="p" horiz-adv-x="458" 
d="M144 -197c-7 -5 -29 -9 -51 -9c-11 0 -22 1 -31 3c-3 17 -3 50 -3 100v467c0 32 -4 55 -11 75c4 6 18 13 39 23c4 1 7 1 7 1c18 0 28 -13 32 -30c24 20 46 32 69 39c21 7 38 11 60 11c95 0 172 -62 172 -216c0 -126 -36 -203 -87 -244c-36 -29 -74 -37 -105 -37
c-39 0 -72 13 -89 26v-166c0 -16 0 -30 -2 -43zM220 53c46 0 113 41 113 207c0 107 -36 150 -99 150c-35 0 -67 -21 -88 -39v-286c14 -18 43 -32 74 -32z" />
    <glyph glyph-name="q" unicode="q" horiz-adv-x="456" 
d="M397 377v-170v26v-409c0 -25 -6 -30 -43 -32h-45c1 45 2 97 2 163v67c-24 -23 -63 -38 -104 -38c-90 0 -175 60 -175 229c0 97 32 168 82 212c31 29 69 48 116 54c12 1 25 2 37 2c49 0 97 -10 142 -29c-7 -20 -12 -43 -12 -75zM311 94v290c0 7 1 16 3 21
c-20 7 -44 10 -65 11c-60 0 -123 -59 -123 -199c0 -115 47 -159 108 -159c30 0 62 13 77 36z" />
    <glyph glyph-name="r" unicode="r" horiz-adv-x="300" 
d="M224 398c-33 0 -59 -11 -79 -32v-319c0 -17 -1 -29 -9 -40c-13 -9 -25 -10 -79 -10c1 54 2 118 2 196l1 169c0 32 -6 55 -13 75c6 6 18 13 41 23c3 1 5 1 7 1c18 0 26 -13 31 -30c23 20 47 32 68 39c19 6 36 11 54 8c26 -3 40 -11 43 -25c0 -14 -4 -40 -16 -58
c-4 -1 -4 -1 -9 -1c-7 0 -16 1 -24 2c-7 2 -13 2 -18 2z" />
    <glyph glyph-name="s" unicode="s" horiz-adv-x="346" 
d="M188 482c11 0 21 -1 29 -2c60 -4 85 -28 89 -40c0 -13 -7 -34 -15 -45c-14 3 -29 4 -46 10c-15 6 -31 9 -49 9c-41 0 -68 -21 -68 -52c0 -17 8 -32 32 -51c25 -20 71 -50 101 -75c43 -34 59 -67 59 -109c0 -93 -75 -140 -167 -140c-62 0 -115 18 -125 43c0 16 6 37 16 50
h4c8 0 17 -3 27 -8c21 -9 48 -16 76 -16c6 0 13 1 19 2c36 4 58 27 58 60c0 23 -12 43 -43 65c-26 19 -58 42 -81 61l-24 21c-30 29 -44 60 -44 94c0 77 62 123 152 123z" />
    <glyph glyph-name="t" unicode="t" horiz-adv-x="317" 
d="M290 75c1 -6 2 -14 2 -22c0 -9 0 -19 -1 -28c-2 -8 -7 -14 -15 -20c-19 -12 -53 -19 -84 -19c-93 0 -110 87 -110 168v247c-32 0 -48 4 -60 10c0 31 1 27 9 35c14 12 45 15 60 22l5 90c7 20 28 37 75 40c-1 -46 -2 -88 -2 -129h129c-3 -50 -9 -61 -23 -64
c-8 -1 -16 -2 -24 -2c-26 -1 -39 -1 -82 -1c-1 -46 -2 -93 -2 -136c0 -44 1 -83 1 -116c4 -56 13 -95 53 -95c15 -1 61 13 69 20z" />
    <glyph glyph-name="u" unicode="u" horiz-adv-x="455" 
d="M143 450c6 -23 11 -45 11 -96l-10 -183c0 -90 28 -109 76 -109c35 -2 71 14 88 35v318c0 21 2 34 11 47c12 10 23 9 77 10c-1 -54 -2 -118 -2 -195v-170c0 -32 5 -55 12 -75c-5 -6 -18 -13 -40 -23c-3 -1 -6 -1 -7 -1c-18 0 -27 13 -31 30c-24 -20 -47 -32 -69 -39
c-21 -7 -40 -11 -62 -11c-116 5 -139 64 -141 170l10 209c0 37 -6 64 -14 88c6 7 21 16 47 28c4 1 7 1 8 1c22 0 32 -18 36 -34z" />
    <glyph glyph-name="v" unicode="v" horiz-adv-x="392" 
d="M202 100c10 28 32 136 56 224c14 52 28 101 39 143c6 4 11 5 22 5c12 0 27 -1 52 -4c3 -4 3 -8 3 -12c0 -13 -4 -27 -11 -47c-37 -121 -74 -247 -122 -397c-11 -11 -29 -14 -42 -17c-3 -1 -6 -1 -7 -1c-17 0 -37 9 -41 21c-22 80 -47 163 -86 284c-9 24 -44 136 -48 151
c6 18 27 25 80 25c8 -8 14 -22 18 -38c9 -30 21 -75 35 -121c21 -83 42 -185 52 -216z" />
    <glyph glyph-name="w" unicode="w" horiz-adv-x="607" 
d="M251 99l-18 -70c-7 -21 -9 -31 -19 -35c-8 -1 -28 -3 -54 -4c-10 8 -23 29 -28 46c-18 67 -47 175 -73 267c-22 83 -37 136 -43 150c7 14 32 21 84 21c8 -7 12 -17 15 -31c10 -40 20 -81 30 -123c20 -95 35 -172 45 -210c8 24 22 77 38 147c6 24 38 158 43 182
c1 3 1 7 1 8v10c2 3 51 14 67 10c8 -7 11 -18 16 -39c11 -49 25 -108 40 -171s28 -119 35 -147c16 49 33 129 51 217c13 49 22 94 29 129c2 7 2 11 5 15c4 3 8 3 13 3c14 0 58 -5 61 -7c2 0 3 -4 3 -7c1 -10 -3 -21 -8 -39c-30 -105 -74 -277 -109 -392
c-7 -21 -9 -31 -19 -35c-8 -1 -28 -3 -54 -4c-10 8 -23 29 -28 46c-7 25 -14 52 -20 74c-18 70 -33 144 -48 214c-10 -53 -35 -151 -55 -225z" />
    <glyph glyph-name="x" unicode="x" horiz-adv-x="421" 
d="M410 4c-11 -4 -33 -6 -56 -7c-11 0 -27 2 -47 7c-10 17 -23 37 -36 59c-21 36 -48 84 -66 118c-24 -44 -56 -105 -98 -169c-7 -14 -16 -15 -46 -15c-14 0 -31 1 -46 3l9 24c41 66 89 141 138 219c-37 63 -96 156 -128 210l-3 9c7 4 34 13 52 13h33c12 -10 24 -32 41 -60
c19 -33 44 -78 62 -108c14 25 34 62 52 92c12 20 24 38 36 58c9 13 13 17 34 17c15 0 38 -3 58 -7c-4 -8 -7 -17 -11 -25c-38 -57 -84 -129 -125 -192c45 -75 96 -158 142 -234z" />
    <glyph glyph-name="y" unicode="y" horiz-adv-x="391" 
d="M98 475c6 0 16 -24 20 -40c10 -32 38 -124 57 -194c16 -61 30 -124 33 -133c5 14 20 77 34 138c17 76 37 155 51 217c8 7 14 9 30 9c10 0 24 -1 44 -2c3 -6 5 -13 5 -21s-2 -17 -5 -27c-27 -111 -77 -287 -131 -437c-55 -141 -106 -184 -150 -184c-47 0 -71 16 -76 33
c0 9 6 27 6 27c22 7 48 -4 79 9c27 14 58 95 72 154c-2 2 -4 3 -5 5c-9 13 -13 25 -20 46c-9 30 -79 261 -121 377c7 17 25 23 77 23z" />
    <glyph glyph-name="z" unicode="z" horiz-adv-x="361" 
d="M49 474c24 -5 50 -5 87 -5h194v-3c0 -6 2 -12 2 -22c1 -8 -2 -19 -11 -37c-39 -78 -116 -212 -189 -338c29 -1 70 -2 109 -2c56 0 99 5 107 7c0 -10 -1 -23 -3 -34c-3 -22 -10 -33 -20 -36c-22 -4 -50 -5 -109 -5c-63 0 -134 0 -183 3c-3 4 -12 14 -14 31c1 8 4 15 9 24
c56 94 143 236 202 346h-107c-16 0 -30 -1 -44 -1c-35 0 -52 3 -52 10v2c4 38 10 57 22 60z" />
    <glyph glyph-name="bar" unicode="|" horiz-adv-x="306" 
d="M193 782v-997c-13 -10 -27 -10 -80 -10v996c13 11 26 11 80 11z" />
    <glyph glyph-name="exclamdown" unicode="&#xa1;" horiz-adv-x="193" 
d="M132 267c4 -98 14 -314 17 -427c-1 -18 -38 -24 -96 -24c-6 15 -10 33 -10 59c2 85 14 278 18 355c3 28 36 37 71 37zM97 367c-40 0 -47 18 -46 54c1 35 11 60 52 60c35 0 47 -18 47 -58c0 -37 -17 -56 -53 -56z" />
    <glyph glyph-name="cent" unicode="&#xa2;" 
d="M303 602c-1 -32 -2 -62 -4 -94c38 -5 68 -19 76 -34c0 -7 -3 -30 -11 -45c-4 -2 -10 -3 -16 -3c-4 0 -10 1 -16 3c-10 4 -21 7 -33 8c-6 1 -12 2 -17 2c-82 0 -120 -62 -120 -171c0 -128 53 -156 116 -156c32 0 64 8 89 21c0 -29 -4 -50 -11 -61c0 -3 -2 -6 -6 -9
c-15 -10 -41 -20 -76 -22c-1 -24 -2 -48 -3 -73c-1 -19 -10 -26 -31 -28c-13 -2 -27 -3 -43 -3l6 108c-57 12 -130 53 -130 215c0 173 93 229 155 245c1 22 2 45 3 67c1 18 10 25 36 28c11 1 23 1 36 2z" />
    <glyph glyph-name="fraction" unicode="&#x2044;" horiz-adv-x="503" 
d="M71 -41c-6 6 -34 18 -37 32c49 93 288 491 382 652c7 12 12 18 14 18c1 0 9 -3 17 -8c12 -7 22 -16 24 -29c-41 -75 -258 -439 -377 -641c-10 -17 -16 -25 -20 -25c-1 0 -2 0 -3 1z" />
    <glyph glyph-name="yen" unicode="&#xa5;" 
d="M187 292c-1 2 -1 5 -2 7c-11 29 -28 67 -53 115c-37 75 -86 164 -120 234l-1 2c0 5 7 7 47 7h50c26 -56 108 -240 128 -282l131 282c11 4 19 6 31 6c10 0 24 -1 47 -3c1 -4 2 -10 2 -12c0 -12 -5 -22 -11 -36c-28 -68 -122 -221 -146 -278c-4 -8 -9 -24 -10 -33l108 11
c3 -36 1 -65 -23 -67l-89 -9v-98c0 -56 1 -97 1 -128c-9 -11 -22 -14 -82 -14c-6 14 -8 27 -8 45v186l-110 -11c-2 25 -1 53 5 61c6 4 14 5 23 6z" />
    <glyph glyph-name="quotesingle" unicode="'" horiz-adv-x="150" 
d="M94 520c-4 -6 -38 -12 -49 -12c-1 34 -12 174 -12 205c12 7 37 13 57 13c5 0 11 -1 14 -2c10 -3 13 -18 13 -37v-8c-2 -56 -14 -141 -23 -159z" />
    <glyph glyph-name="quotedblleft" unicode="&#x201c;" horiz-adv-x="342" 
d="M287 546c-6 -20 -27 -36 -52 -36c-5 0 -10 0 -15 1c-21 3 -31 24 -31 53c0 4 0 8 1 12c3 52 32 110 57 138c11 12 24 18 36 18c10 0 19 -3 26 -11c-23 -40 -35 -86 -36 -130c3 -2 5 -4 7 -6c4 -13 6 -26 7 -39zM131 546c-6 -20 -27 -36 -52 -36c-5 0 -10 0 -15 1
c-21 3 -31 24 -31 52c0 4 0 8 1 13c4 52 33 110 58 138c12 12 22 18 35 18c10 0 19 -3 26 -11c-22 -40 -35 -86 -36 -131c3 -1 6 -3 7 -6c4 -12 5 -25 7 -38z" />
    <glyph glyph-name="guillemotleft" unicode="&#xab;" horiz-adv-x="452" 
d="M33 243c28 42 129 182 151 218c22 -2 41 -33 41 -40c0 -31 -99 -171 -107 -183c10 -14 105 -149 105 -183c0 -9 -19 -42 -42 -43c-19 32 -96 141 -140 203c-5 10 -8 21 -8 28zM214 242c30 44 130 176 156 214c20 -3 40 -31 40 -41c0 -32 -101 -166 -110 -178
c9 -12 108 -145 108 -176c0 -9 -20 -40 -42 -43c-21 37 -98 136 -142 196c-7 10 -10 22 -10 28z" />
    <glyph glyph-name="guilsinglleft" unicode="&#x2039;" horiz-adv-x="277" 
d="M33 241c31 45 134 189 160 227c22 -3 41 -33 42 -43c0 -33 -107 -176 -117 -188c10 -12 114 -156 114 -187c0 -10 -19 -42 -42 -45c-24 37 -102 145 -147 208c-6 11 -10 21 -10 28z" />
    <glyph glyph-name="guilsinglright" unicode="&#x203a;" horiz-adv-x="277" 
d="M243 232c-29 -45 -134 -188 -161 -226c-6 2 -42 18 -42 45c0 33 108 173 117 186c-9 12 -112 157 -112 190c0 22 35 38 43 41c23 -37 101 -145 146 -208c6 -11 9 -21 9 -28z" />
    <glyph glyph-name="fi" unicode="&#xfb01;" horiz-adv-x="465" 
d="M389 472c7 -14 8 -29 8 -71v-340c0 -23 -3 -39 -12 -53c-7 -10 -21 -10 -77 -11c0 51 1 110 1 171v236c-54 -1 -123 -2 -145 -2c0 -113 1 -275 2 -382c0 -5 0 -16 -8 -19c-16 -3 -45 -4 -57 -4c-8 0 -15 1 -22 2c-1 6 -1 14 -1 23c0 40 1 81 1 122c0 82 -1 168 -1 258
c-32 1 -51 4 -62 12c4 37 7 43 23 46c12 3 24 6 39 9c0 27 1 52 4 75c11 133 103 165 173 165c39 2 71 -9 95 -17c21 -8 28 -10 35 -18c4 -5 3 -11 3 -16c-1 -8 -2 -15 -5 -22c-4 -9 -7 -15 -12 -20c-6 0 -23 6 -38 10c-19 6 -52 14 -77 14c-45 0 -86 -20 -90 -106
c-1 -21 -1 -43 -1 -65l167 2c22 0 44 0 57 1z" />
    <glyph glyph-name="fl" unicode="&#xfb02;" horiz-adv-x="457" 
d="M309 51v479c0 44 -1 75 -2 103c-16 4 -35 7 -51 7c-45 0 -86 -20 -90 -106c-1 -21 -1 -43 -1 -65h54c22 0 44 0 57 1c-3 -47 -8 -57 -22 -62c-2 -1 -6 -3 -11 -4c-21 -2 -48 -2 -79 -2c0 -113 1 -275 2 -382c0 -5 0 -16 -8 -19c-16 -3 -45 -4 -57 -4c-8 0 -15 1 -22 2
c-1 6 -1 14 -1 23c0 40 1 81 1 122c0 82 -1 168 -1 258c-32 1 -51 4 -62 12c4 37 7 43 23 46c12 3 24 6 39 9c0 27 1 52 4 75c11 133 103 165 173 165c39 2 71 -9 94 -17c30 -10 36 -15 39 -23c6 -20 7 -43 7 -93v-482s-3 -52 28 -46c-1 -14 -1 -32 -1 -37
c-8 -12 -27 -22 -53 -23c-12 0 -25 6 -36 13c-16 11 -24 30 -24 50z" />
    <glyph glyph-name="endash" unicode="&#x2013;" horiz-adv-x="488" 
d="M400 214h-383c-1 16 -1 35 -1 38c1 49 21 67 47 67h382c1 -17 0 -33 0 -34c-4 -54 -18 -71 -45 -71z" />
    <glyph glyph-name="periodcentered" unicode="&#xb7;" horiz-adv-x="202" 
d="M45 255c0 38 18 58 59 58c45 0 53 -19 52 -56c-1 -36 -12 -62 -59 -62c-39 0 -52 19 -52 60z" />
    <glyph glyph-name="bullet" unicode="&#x2022;" horiz-adv-x="247" 
d="M48 262c0 53 25 81 82 81c63 0 74 -27 73 -78c-2 -50 -17 -86 -82 -86c-54 0 -73 26 -73 83z" />
    <glyph glyph-name="quotesinglbase" unicode="&#x201a;" horiz-adv-x="176" 
d="M43 82c8 19 31 37 56 37c5 0 9 -1 13 -2c22 -4 31 -28 31 -56c0 -61 -43 -136 -74 -161c-5 -3 -9 -6 -14 -7c-3 -1 -6 -1 -10 -1c-10 0 -21 3 -30 10c27 43 41 90 42 133c-3 1 -6 3 -7 6c-4 15 -6 28 -7 41z" />
    <glyph glyph-name="quotedblbase" unicode="&#x201e;" horiz-adv-x="332" 
d="M201 60c0 24 10 43 23 48c3 1 6 3 10 5c9 3 18 4 27 4c26 0 38 -27 38 -55c0 -62 -42 -136 -74 -161c-8 -6 -14 -8 -23 -8c-10 0 -20 3 -29 10c25 43 39 89 40 132c-9 5 -12 14 -12 25zM43 82c8 19 31 37 56 37c4 0 8 -1 12 -2c23 -4 32 -28 32 -55
c0 -61 -42 -136 -73 -161c-5 -3 -9 -6 -14 -7c-3 -1 -6 -1 -10 -1c-10 0 -20 3 -29 10c26 43 39 89 40 132c-3 2 -5 4 -7 6c-3 15 -6 28 -7 41z" />
    <glyph glyph-name="quotedblright" unicode="&#x201d;" horiz-adv-x="342" 
d="M211 692c5 18 22 33 45 35c4 1 8 1 12 1c3 0 7 0 10 -1c21 -3 31 -24 31 -53c0 -4 0 -8 -1 -12c-4 -52 -33 -111 -58 -138c-10 -11 -20 -17 -31 -19c-11 0 -23 3 -30 11c22 41 34 88 35 132c-3 1 -5 3 -7 6c-3 11 -4 25 -6 38zM55 692c8 20 31 37 55 37c5 0 9 -1 12 -2
c22 -3 31 -24 31 -53c0 -4 0 -8 -1 -12c-4 -52 -33 -110 -58 -138c-10 -11 -19 -17 -31 -19c-11 0 -23 3 -30 11c23 41 35 88 36 132c-3 1 -6 3 -7 6c-4 11 -5 25 -7 38z" />
    <glyph glyph-name="guillemotright" unicode="&#xbb;" horiz-adv-x="451" 
d="M418 232c-28 -43 -130 -184 -153 -220c-6 2 -41 19 -41 43c0 31 100 170 109 182c-9 14 -104 150 -104 185c0 22 34 38 42 39c19 -33 94 -140 138 -200c6 -11 9 -22 9 -29zM237 231c-30 -45 -133 -176 -158 -215c-5 3 -39 19 -39 46c0 33 102 162 112 174
c-7 13 -107 148 -107 180c0 23 33 39 41 42c21 -37 96 -139 141 -199c6 -10 10 -20 10 -28z" />
    <glyph glyph-name="ellipsis" unicode="&#x2026;" horiz-adv-x="647" 
d="M56 50c0 38 18 58 59 58c45 0 53 -19 52 -56c-1 -36 -12 -62 -59 -62c-39 0 -52 19 -52 60zM268 50c0 38 18 58 59 58c45 0 53 -19 52 -56c-1 -36 -12 -62 -59 -62c-39 0 -52 19 -52 60zM485 50c0 38 18 58 59 58c45 0 53 -19 52 -56c-1 -36 -12 -62 -59 -62
c-39 0 -52 19 -52 60z" />
    <glyph glyph-name="perthousand" unicode="&#x2030;" horiz-adv-x="989" 
d="M682 161c0 102 47 177 141 177c80 0 131 -44 131 -175c0 -106 -46 -175 -135 -175c-81 0 -137 36 -137 173zM755 161c0 -81 22 -117 64 -117c38 0 64 37 64 119c0 86 -22 118 -63 118c-40 0 -65 -40 -65 -120zM44 482c0 100 46 175 139 175h1c79 0 132 -41 132 -173
c0 -106 -46 -177 -137 -177c-82 0 -135 41 -135 175zM380 162c0 102 47 177 140 177h1c80 0 131 -44 131 -175c0 -106 -46 -175 -136 -175c-80 0 -136 36 -136 173zM157 -29c-3 1 -37 18 -38 31c50 92 294 494 390 652c7 12 12 17 14 17s9 -3 17 -8c12 -8 21 -15 23 -26
c-43 -75 -261 -443 -385 -642c-10 -17 -16 -24 -21 -24zM452 161c0 -81 21 -117 64 -117c38 0 65 37 65 119c0 86 -22 118 -63 118s-66 -40 -66 -120zM117 481c0 -81 22 -117 63 -117c39 0 65 38 65 120c0 85 -23 117 -62 117h-1c-39 0 -65 -39 -65 -120z" />
    <glyph glyph-name="questiondown" unicode="&#xbf;" horiz-adv-x="318" 
d="M93 108c32 42 50 78 50 106c0 22 -7 43 -7 53v2c4 7 21 11 35 11c18 0 39 -12 46 -38c3 -13 5 -27 5 -40c0 -20 -4 -39 -12 -58c-11 -23 -25 -44 -40 -65c-26 -37 -56 -74 -56 -117c0 -47 29 -67 68 -67c24 0 50 7 80 26c13 -1 25 -18 25 -54c-19 -33 -81 -49 -130 -49
c-98 0 -133 56 -133 132c0 66 32 111 69 158zM167 371c-40 0 -47 18 -46 54c1 35 11 60 52 60c35 0 47 -18 47 -58c0 -37 -17 -56 -53 -56z" />
    <glyph glyph-name="grave" unicode="`" horiz-adv-x="321" 
d="M187 554c-16 19 -96 90 -125 120c-1 2 -1 4 -1 6c0 6 2 12 7 18c11 16 28 30 43 30h1c12 -1 88 -93 107 -132c1 -2 1 -3 1 -5c0 -14 -21 -36 -33 -37z" />
    <glyph glyph-name="acute" unicode="&#xb4;" horiz-adv-x="335" 
d="M215 725c22 0 51 -28 51 -47c-2 -3 -5 -6 -11 -12c-36 -36 -90 -88 -118 -115c-14 3 -31 21 -31 37c0 2 0 5 1 8c32 46 94 129 108 129z" />
    <glyph glyph-name="circumflex" unicode="&#x2c6;" horiz-adv-x="398" 
d="M209 709c25 -27 85 -98 108 -136c-9 -14 -27 -34 -42 -34c-6 0 -12 4 -19 12c-21 25 -49 62 -60 81c-17 -29 -34 -52 -52 -76c-7 -9 -16 -16 -19 -16c-16 6 -33 15 -39 25c15 32 50 79 79 120c7 8 13 14 20 18c9 4 18 6 24 6z" />
    <glyph glyph-name="tilde" unicode="&#x2dc;" horiz-adv-x="440" 
d="M169 618c-15 -3 -28 -17 -37 -38c-3 -6 -6 -11 -11 -11c-17 0 -38 22 -41 25c20 59 49 94 98 94c28 0 42 -20 61 -38c9 -9 17 -16 26 -16c21 0 31 15 38 39c3 7 6 10 12 10c13 0 31 -25 34 -30c-6 -41 -40 -90 -91 -90c-33 0 -44 22 -63 41c-10 10 -16 14 -26 14z" />
    <glyph glyph-name="dotaccent" unicode="&#x2d9;" horiz-adv-x="299" 
d="M104 630c0 36 15 54 50 54c38 0 45 -17 44 -52c-1 -34 -11 -58 -51 -58c-32 0 -43 18 -43 56z" />
    <glyph glyph-name="dieresis" unicode="&#xa8;" horiz-adv-x="364" 
d="M55 621c0 34 16 52 50 52c37 0 44 -17 43 -50s-11 -56 -49 -56c-32 0 -44 17 -44 54zM212 621c0 34 16 52 50 52c37 0 44 -17 43 -50s-11 -56 -49 -56c-32 0 -44 17 -44 54z" />
    <glyph glyph-name="ring" unicode="&#x2da;" horiz-adv-x="393" 
d="M102 666c0 54 41 100 100 100c58 0 97 -48 97 -98c0 -56 -43 -98 -101 -98c-52 0 -96 39 -96 96zM151 667c0 -30 22 -53 50 -53c31 0 50 25 50 53s-19 54 -51 54c-29 0 -49 -26 -49 -54z" />
    <glyph glyph-name="cedilla" unicode="&#xb8;" horiz-adv-x="275" 
d="M94 -29c20 1 43 1 63 -4c43 -10 75 -39 75 -77c0 -70 -82 -94 -133 -102c-14 2 -23 22 -23 31c0 8 4 11 13 13c56 18 78 31 78 58c0 28 -48 38 -85 38c2 12 5 32 12 43z" />
    <glyph glyph-name="caron" unicode="&#x2c7;" horiz-adv-x="357" 
d="M172 545c-24 27 -84 98 -107 136c8 14 27 34 41 34c6 0 13 -4 20 -12c21 -25 49 -62 59 -81c17 29 35 52 52 76c9 9 17 16 19 16c16 -6 33 -15 39 -25c-15 -32 -50 -79 -79 -120c-6 -8 -12 -14 -20 -18c-9 -3 -17 -6 -24 -6z" />
    <glyph glyph-name="emdash" unicode="&#x2014;" horiz-adv-x="817" 
d="M779 244c-20 -16 -43 -18 -67 -18h-685c0 32 1 48 10 54c20 13 46 17 71 17h682c-1 -31 -2 -47 -11 -53z" />
    <glyph glyph-name="AE" unicode="&#xc6;" horiz-adv-x="703" 
d="M469 71c22 -2 54 -3 90 -3c42 0 93 0 126 2l1 -1c-3 -51 -12 -65 -33 -70c-26 -1 -62 -2 -112 -2c-67 0 -118 3 -151 5c-2 13 -5 26 -7 39c-4 63 -8 126 -11 189h-169c-57 -125 -81 -180 -99 -221c-4 -9 -8 -16 -29 -16c-14 0 -23 2 -33 5c-6 2 -17 6 -27 10
c71 155 199 438 273 599c7 16 13 29 18 43c12 6 39 11 60 12h291c-1 -45 -6 -60 -18 -66c-21 -3 -50 -5 -84 -5h-110c3 -70 7 -139 10 -209h188c-5 -56 -13 -71 -36 -71h-149c4 -80 8 -160 11 -240zM306 464c-30 -63 -53 -115 -75 -165h137l-9 285c-14 -30 -33 -72 -53 -120
z" />
    <glyph glyph-name="Oslash" unicode="&#xd8;" horiz-adv-x="593" 
d="M103 -28c-4 -3 -8 -4 -12 -4c-6 0 -12 2 -17 6c-9 7 -18 16 -20 26c9 17 32 58 50 88c-45 61 -62 148 -62 240c0 135 32 230 92 286c42 42 96 63 165 63c59 0 109 -15 148 -49c10 17 20 33 29 47c6 9 10 15 13 17h3c17 0 39 -19 40 -31c-6 -19 -28 -61 -44 -91
c43 -59 62 -142 62 -233c0 -222 -79 -352 -256 -352c-62 0 -114 16 -151 50c-14 -25 -29 -48 -40 -63zM137 321c0 -66 11 -121 30 -161l225 405c-24 26 -57 38 -97 38c-91 0 -158 -86 -158 -282zM457 336c0 68 -12 125 -32 166c-73 -129 -162 -302 -226 -404
c26 -26 58 -39 95 -39c96 0 163 66 163 277z" />
    <glyph glyph-name="OE" unicode="&#x152;" horiz-adv-x="772" 
d="M535 72c20 -3 53 -4 83 -4c43 0 94 0 133 2l1 -1c-3 -51 -12 -65 -32 -70c-16 -1 -41 -2 -87 -2c-71 0 -130 2 -170 5c-2 7 -5 13 -7 20v47c-39 -55 -102 -81 -176 -81c-180 0 -248 126 -248 339c0 144 37 241 103 296c43 35 91 51 153 51c73 0 131 -24 168 -73v47
c8 3 26 13 48 14h236c-2 -47 -8 -61 -22 -67c-15 -4 -34 -4 -66 -4h-117v-204h187c-6 -63 -16 -72 -40 -72h-147v-243zM128 322c0 -187 69 -263 159 -263c92 0 158 77 158 275c0 205 -69 269 -157 269c-89 0 -160 -84 -160 -280v-1z" />
    <glyph glyph-name="ae" unicode="&#xe6;" horiz-adv-x="625" 
d="M517 213c-16 -1 -35 -2 -55 -2c-41 0 -88 2 -122 5c0 -117 46 -155 120 -155c46 0 86 12 110 24c3 -9 5 -28 6 -40c-1 -19 -24 -38 -43 -45c-18 -6 -54 -13 -92 -13c-53 0 -105 18 -134 57c-35 -32 -88 -57 -166 -57c-64 3 -112 42 -112 138c0 91 75 164 169 164
c20 0 37 0 56 -3v31c0 13 -1 25 -2 36c-5 39 -30 56 -72 56c-34 0 -67 -13 -92 -25c-12 -6 -23 -10 -33 -11c-9 13 -15 28 -15 44c0 6 1 12 3 16c23 21 86 49 163 49c57 0 92 -23 108 -65c31 46 77 65 132 65c100 0 145 -70 147 -164c0 -29 -2 -61 -7 -83
c-10 -8 -43 -19 -69 -22zM175 57c33 0 64 14 85 39c-4 38 -7 91 -7 133c-7 1 -16 1 -24 1c-7 0 -13 0 -19 -1c-51 -7 -93 -31 -93 -98c0 -51 21 -74 58 -74zM342 278c36 -3 79 -6 113 -6c17 0 31 1 41 2c6 5 10 14 11 26c0 77 -18 116 -71 116h-1c-44 0 -85 -36 -93 -138z
" />
    <glyph glyph-name="dotlessi" unicode="&#x131;" horiz-adv-x="202" 
d="M137 472c7 -14 8 -29 8 -71v-340c0 -23 -3 -39 -12 -53c-7 -10 -21 -10 -77 -11c0 51 1 110 1 171v177c0 46 -1 77 -2 103c10 21 41 24 82 24z" />
    <glyph glyph-name="oslash" unicode="&#xf8;" horiz-adv-x="464" 
d="M117 20c-17 -22 -37 -59 -45 -58c-15 2 -32 16 -35 33c4 9 24 41 45 73c-28 38 -42 95 -42 164c0 82 21 147 62 190c34 38 81 59 134 59c48 0 83 -11 111 -35c18 25 38 57 44 56c17 -2 33 -17 36 -35c-6 -13 -26 -47 -43 -74c28 -38 42 -94 42 -157
c0 -87 -26 -147 -57 -186c-31 -42 -79 -65 -134 -65c-50 0 -89 10 -118 35zM130 233c0 -35 5 -63 16 -85c50 77 101 157 151 235c-16 24 -37 32 -64 32c-57 0 -103 -52 -103 -182zM235 50c54 0 101 47 101 183c0 38 -6 69 -16 93c-49 -77 -109 -171 -153 -238
c17 -30 40 -38 68 -38z" />
    <glyph glyph-name="oe" unicode="&#x153;" horiz-adv-x="692" 
d="M588 212c-16 -1 -35 -1 -55 -1c-41 0 -88 1 -122 4c0 -116 46 -154 120 -154c46 0 86 11 110 24c3 -10 5 -28 6 -41c-1 -18 -24 -38 -43 -45c-18 -5 -54 -12 -92 -12c-58 0 -113 27 -149 74c-30 -49 -83 -76 -144 -76c-122 0 -191 70 -191 247c0 88 24 157 69 200
c33 31 78 49 127 49h1c65 0 116 -25 147 -77c32 53 84 77 145 77c100 0 145 -70 147 -164c0 -29 -2 -60 -7 -82c-10 -9 -43 -20 -69 -23zM222 50c52 0 101 46 101 186c0 132 -41 178 -101 178c-55 0 -101 -48 -101 -179c0 -140 45 -185 101 -185zM413 278
c36 -4 79 -7 113 -7c17 0 31 1 41 3c6 4 10 14 11 25c0 77 -18 116 -71 116h-1c-44 0 -85 -36 -93 -137z" />
    <glyph glyph-name="germandbls" unicode="&#xdf;" horiz-adv-x="497" 
d="M386 129c-3 22 -14 43 -28 60c-22 26 -50 52 -74 75c-28 27 -50 59 -50 100c0 51 39 89 93 123c12 13 23 32 23 53c0 44 -25 73 -67 79c-9 2 -18 3 -28 3c-7 0 -14 -1 -22 -2c-51 -8 -75 -47 -81 -127c-2 -34 -3 -70 -3 -108c1 -119 1 -227 2 -334c0 -20 0 -37 -3 -51
c-11 -8 -31 -10 -54 -10c-24 0 -35 6 -35 7c0 4 4 17 4 41c0 38 1 76 1 115c0 79 -1 160 -1 244c-21 21 -28 48 -28 76c7 7 16 11 29 18c0 9 0 18 1 27c6 68 37 115 85 143c33 20 72 28 111 28c11 0 22 -1 33 -2c99 -9 144 -72 145 -143c0 -38 -16 -62 -32 -76
c-41 -28 -84 -53 -84 -93c0 -23 17 -44 40 -65c18 -15 41 -33 60 -52c33 -32 55 -70 55 -120c0 -97 -70 -150 -165 -150c-60 0 -101 18 -112 35c1 17 5 30 12 41c6 9 14 12 22 12c14 -8 39 -20 71 -20c46 0 86 28 80 73z" />
    <glyph glyph-name="trademark" unicode="&#x2122;" horiz-adv-x="478" 
d="M222 421c4 63 12 142 18 215c0 6 0 12 -1 17v5c1 2 5 3 11 4c10 0 22 1 29 1c5 -9 9 -19 17 -39c7 -20 15 -40 22 -60c5 -15 13 -38 15 -43c2 4 9 28 15 42c12 31 25 63 36 92c0 2 1 5 5 6c1 0 3 0 6 1c11 0 22 1 30 1c2 -5 2 -11 2 -18c3 -45 5 -89 7 -134
c3 -32 5 -61 6 -86c-4 -5 -13 -6 -39 -6c-2 4 -4 11 -4 18c-1 21 -1 42 -2 64c-1 13 0 31 0 48s0 34 -1 46c-6 -20 -16 -47 -21 -60c-9 -24 -19 -51 -29 -77c-5 -2 -8 -3 -10 -3h-17c-7 20 -19 53 -30 81c-4 11 -12 37 -19 56c0 -5 1 -29 1 -52c0 -37 -4 -69 -7 -101
c0 -7 -1 -11 -3 -16c-4 -2 -8 -3 -14 -3c-5 0 -13 1 -23 1zM198 627h-57v-151c0 -20 1 -36 1 -51c-6 -5 -11 -5 -38 -5c-2 5 -3 11 -3 18v189h-55c-6 0 -12 0 -17 1v11c1 6 2 11 3 16s5 7 7 7h4h169c0 -7 -1 -16 -3 -24s-9 -10 -11 -11z" />
    <glyph glyph-name="divide" unicode="&#xf7;" horiz-adv-x="499" 
d="M48 231c1 47 5 68 24 68h379c0 -46 -4 -68 -25 -68h-378zM199 111c0 34 16 52 52 52c40 0 47 -17 46 -50c-1 -32 -10 -55 -52 -55c-35 0 -46 17 -46 53zM199 418c0 34 16 52 52 52c40 0 47 -17 46 -50c-1 -32 -10 -55 -52 -55c-35 0 -46 17 -46 53z" />
    <glyph glyph-name="registered" unicode="&#xae;" horiz-adv-x="396" 
d="M33 524c0 112 63 176 168 176s162 -58 162 -175c0 -108 -61 -177 -166 -177c-106 0 -164 58 -164 176zM81 524c0 -91 44 -133 115 -133c67 0 119 45 119 135c0 85 -42 132 -114 132h-1c-70 0 -119 -43 -119 -134zM170 623c10 0 19 0 28 -1c41 -1 61 -21 61 -56
c0 -25 -13 -42 -29 -51c10 -12 30 -41 38 -77v-2c0 -2 0 -4 -1 -5c-5 -2 -10 -2 -18 -2c-2 0 -4 0 -5 1c-4 0 -11 1 -16 3c-5 35 -18 55 -28 68h-6c-3 3 -7 4 -13 4h-4v-71c-5 -4 -12 -4 -34 -4v188c2 1 3 3 9 3c2 0 4 1 6 1c4 1 8 1 12 1zM223 567c0 17 -10 29 -29 29
c-6 0 -12 -1 -17 -1v-63h12c7 0 13 1 18 3c10 5 16 16 16 32z" />
    <glyph glyph-name="minus" unicode="&#x2212;" horiz-adv-x="499" 
d="M48 231c1 47 5 68 24 68h379c-1 -45 -4 -68 -25 -68h-378z" />
    <glyph glyph-name="multiply" unicode="&#xd7;" horiz-adv-x="499" 
d="M199 263c-41 43 -81 86 -122 129c2 9 6 19 14 29c11 14 23 21 35 21c40 -43 81 -86 121 -128c34 36 68 71 102 107c8 8 20 21 27 21c5 0 11 -3 18 -9c10 -9 24 -24 30 -33c-43 -46 -86 -91 -129 -137c37 -39 74 -77 111 -116c6 -6 11 -14 15 -21c-5 -9 -10 -16 -17 -23
c-13 -15 -25 -21 -36 -21c-40 44 -81 87 -122 130c-40 -43 -80 -86 -120 -130c-11 0 -21 6 -35 22c-8 10 -11 20 -12 31c40 43 80 86 120 128z" />
    <glyph glyph-name="copyright" unicode="&#xa9;" horiz-adv-x="578" 
d="M36 428c0 169 105 267 257 267c150 0 248 -92 248 -266c0 -165 -102 -268 -252 -268c-152 0 -253 92 -253 267zM95 428c0 -136 75 -216 194 -216c112 0 193 82 193 218c0 132 -72 216 -189 216c-116 0 -198 -79 -198 -215v-3zM377 554c0 -8 -4 -25 -7 -31
c-2 -1 -4 -2 -7 -2c-4 0 -8 1 -12 3c-6 2 -13 4 -22 5c-8 1 -17 1 -27 1c-36 -3 -73 -30 -73 -105c0 -7 1 -14 3 -20c7 -58 35 -76 82 -76c20 0 42 7 54 11c3 -6 6 -16 7 -20c-1 -8 -5 -16 -13 -23c-9 -5 -27 -13 -59 -13c-82 0 -128 39 -128 139c0 111 63 151 134 151
c35 0 63 -11 68 -20z" />
    <glyph glyph-name="Aacute" unicode="&#xc1;" horiz-adv-x="532" 
d="M421 13c-18 55 -30 102 -53 170h-208c-23 -66 -44 -128 -59 -173c-3 -9 -9 -14 -31 -14c-14 0 -42 3 -60 7c1 13 4 24 8 35c56 167 165 458 210 601c3 13 5 21 10 21c6 1 14 4 21 4c11 2 21 2 27 2c8 -2 15 -5 19 -10c45 -136 108 -325 150 -452c28 -79 47 -140 64 -191
c0 -1 1 -3 1 -3c0 -3 -2 -5 -4 -7c-12 -4 -39 -7 -56 -7c-12 0 -23 3 -39 17zM204 324l-22 -70h165c-14 46 -26 90 -39 130c-21 66 -33 112 -42 147c-17 -63 -34 -123 -62 -207zM232 716c-13 4 -25 34 -25 40c5 6 10 13 18 20c42 37 117 87 134 87c19 -3 35 -36 39 -56
c0 -7 -6 -12 -14 -16c-48 -22 -118 -60 -152 -75z" />
    <glyph glyph-name="Acircumflex" unicode="&#xc2;" horiz-adv-x="532" 
d="M421 13c-18 55 -30 102 -53 170h-208c-23 -66 -44 -128 -59 -173c-3 -9 -9 -14 -31 -14c-14 0 -42 3 -60 7c1 13 4 24 8 35c56 167 165 458 210 601c3 13 5 21 10 21c6 1 14 4 21 4c11 2 21 2 27 2c8 -2 15 -5 19 -10c45 -136 108 -325 150 -452c28 -79 47 -140 64 -191
c0 -1 1 -3 1 -3c0 -3 -2 -5 -4 -7c-12 -4 -39 -7 -56 -7c-12 0 -23 3 -39 17zM204 324l-22 -70h165c-14 46 -26 90 -39 130c-21 66 -33 112 -42 147c-17 -63 -34 -123 -62 -207zM277 868c27 -19 90 -82 118 -109c-6 -17 -25 -39 -39 -39c-7 0 -15 3 -22 9
c-21 17 -53 52 -67 65c-25 -30 -51 -54 -68 -67c-1 -1 -5 -4 -8 -5s-5 -1 -5 -1c-18 5 -34 19 -38 30c19 22 69 75 100 106c5 8 22 11 29 11z" />
    <glyph glyph-name="Adieresis" unicode="&#xc4;" horiz-adv-x="532" 
d="M421 13c-18 55 -30 102 -53 170h-208c-23 -66 -44 -128 -59 -173c-3 -9 -9 -14 -31 -14c-14 0 -42 3 -60 7c1 13 4 24 8 35c56 167 165 458 210 601c3 13 5 21 10 21c6 1 14 4 21 4c11 2 21 2 27 2c8 -2 15 -5 19 -10c45 -136 108 -325 150 -452c28 -79 47 -140 64 -191
c0 -1 1 -3 1 -3c0 -3 -2 -5 -4 -7c-12 -4 -39 -7 -56 -7c-12 0 -23 3 -39 17zM204 324l-22 -70h165c-14 46 -26 90 -39 130c-21 66 -33 112 -42 147c-17 -63 -34 -123 -62 -207zM136 787c0 34 16 52 50 52c37 0 44 -17 43 -50s-11 -56 -49 -56c-32 0 -44 17 -44 54zM303 787
c0 34 16 52 50 52c37 0 44 -17 43 -50s-11 -56 -49 -56c-32 0 -44 17 -44 54z" />
    <glyph glyph-name="Agrave" unicode="&#xc0;" horiz-adv-x="532" 
d="M296 738c-23 10 -100 57 -148 82c-5 3 -9 6 -11 9c0 6 1 12 4 18c4 10 15 24 24 24c3 9 9 17 16 17c13 0 92 -58 129 -94c6 -6 11 -11 13 -16v-1c0 -9 -18 -36 -27 -39zM421 13c-18 55 -30 102 -53 170h-208c-23 -66 -44 -128 -59 -173c-3 -9 -9 -14 -31 -14
c-14 0 -42 3 -60 7c1 13 4 24 8 35c56 167 165 458 210 601c3 13 5 21 10 21c6 1 14 4 21 4c11 2 21 2 27 2c8 -2 15 -5 19 -10c45 -136 108 -325 150 -452c28 -79 47 -140 64 -191c0 -1 1 -3 1 -3c0 -3 -2 -5 -4 -7c-12 -4 -39 -7 -56 -7c-12 0 -23 3 -39 17zM204 324
l-22 -70h165c-14 46 -26 90 -39 130c-21 66 -33 112 -42 147c-17 -63 -34 -123 -62 -207z" />
    <glyph glyph-name="Aring" unicode="&#xc5;" horiz-adv-x="532" 
d="M168 815c0 54 41 100 100 100c58 0 97 -48 97 -98c0 -56 -43 -98 -101 -98c-52 0 -96 39 -96 96zM217 816c0 -30 22 -53 50 -53c31 0 50 25 50 53s-19 54 -51 54c-29 0 -49 -26 -49 -54zM421 13c-18 55 -30 102 -53 170h-208c-23 -66 -44 -128 -59 -173
c-3 -9 -9 -14 -31 -14c-14 0 -42 3 -60 7c1 13 4 24 8 35c56 167 165 458 210 601c3 13 5 21 10 21c6 1 14 4 21 4c11 2 21 2 27 2c8 -2 15 -5 19 -10c45 -136 108 -325 150 -452c28 -79 47 -140 64 -191c0 -1 1 -3 1 -3c0 -3 -2 -5 -4 -7c-12 -4 -39 -7 -56 -7
c-12 0 -23 3 -39 17zM204 324l-22 -70h165c-14 46 -26 90 -39 130c-21 66 -33 112 -42 147c-17 -63 -34 -123 -62 -207z" />
    <glyph glyph-name="Atilde" unicode="&#xc3;" horiz-adv-x="532" 
d="M421 13c-18 55 -30 102 -53 170h-208c-23 -66 -44 -128 -59 -173c-3 -9 -9 -14 -31 -14c-14 0 -42 3 -60 7c1 13 4 24 8 35c56 167 165 458 210 601c3 13 5 21 10 21c6 1 14 4 21 4c11 2 21 2 27 2c8 -2 15 -5 19 -10c45 -136 108 -325 150 -452c28 -79 47 -140 64 -191
c0 -1 1 -3 1 -3c0 -3 -2 -5 -4 -7c-12 -4 -39 -7 -56 -7c-12 0 -23 3 -39 17zM204 324l-22 -70h165c-14 46 -26 90 -39 130c-21 66 -33 112 -42 147c-17 -63 -34 -123 -62 -207zM219 780c-15 -3 -28 -17 -37 -38c-3 -6 -6 -11 -11 -11c-17 0 -38 22 -41 25
c20 59 49 94 98 94c28 0 42 -20 61 -38c9 -9 17 -16 26 -16c21 0 31 15 38 39c3 7 6 10 12 10c13 0 31 -25 34 -30c-6 -41 -40 -90 -91 -90c-33 0 -44 22 -63 41c-10 10 -16 14 -26 14z" />
    <glyph glyph-name="Ccedilla" unicode="&#xc7;" horiz-adv-x="465" 
d="M227 -29c20 1 43 1 63 -4c43 -10 75 -39 75 -77c0 -70 -82 -94 -133 -102c-14 2 -23 22 -23 31c0 8 4 11 13 13c56 18 78 31 78 58c0 28 -48 38 -85 38c2 12 5 32 12 43zM308 677c83 0 128 -32 137 -50c0 -22 -6 -39 -14 -50h-4c-7 -1 -16 4 -28 9c-13 6 -29 11 -47 14
c-10 1 -20 2 -32 2c-7 0 -14 0 -21 -1c-92 -8 -171 -88 -171 -281c0 -176 67 -255 184 -255c48 0 98 15 120 29c4 -7 7 -18 8 -31c-2 -18 -9 -34 -23 -46c-19 -16 -65 -32 -119 -32c-162 0 -264 79 -264 329c0 129 28 224 86 287c54 58 120 76 188 76z" />
    <glyph glyph-name="Eacute" unicode="&#xc9;" horiz-adv-x="385" 
d="M148 71c20 -2 52 -3 84 -3c41 0 91 0 131 2c0 0 1 0 1 -1c-5 -51 -13 -65 -33 -70c-26 -1 -62 -2 -118 -2c-62 0 -114 2 -146 5c-3 14 -5 27 -7 41v479c0 44 0 85 -2 125c11 3 28 14 51 15h242c-3 -48 -8 -61 -22 -67c-24 -4 -53 -4 -92 -4h-89v-204h186
c-7 -63 -15 -72 -39 -72h-147v-244zM182 716c-13 4 -25 34 -25 40c5 6 10 13 18 20c42 37 117 87 134 87c19 -3 35 -36 39 -56c0 -7 -6 -12 -14 -16c-48 -22 -118 -60 -152 -75z" />
    <glyph glyph-name="Ecircumflex" unicode="&#xca;" horiz-adv-x="385" 
d="M148 71c20 -2 52 -3 84 -3c41 0 91 0 131 2c0 0 1 0 1 -1c-5 -51 -13 -65 -33 -70c-26 -1 -62 -2 -118 -2c-62 0 -114 2 -146 5c-3 14 -5 27 -7 41v479c0 44 0 85 -2 125c11 3 28 14 51 15h242c-3 -48 -8 -61 -22 -67c-24 -4 -53 -4 -92 -4h-89v-204h186
c-7 -63 -15 -72 -39 -72h-147v-244zM213 868c27 -19 90 -82 118 -109c-6 -17 -25 -39 -39 -39c-7 0 -15 3 -22 9c-21 17 -53 52 -67 65c-25 -30 -51 -54 -68 -67c-1 -1 -5 -4 -8 -5s-5 -1 -5 -1c-18 5 -34 19 -38 30c19 22 69 75 100 106c5 8 22 11 29 11z" />
    <glyph glyph-name="Edieresis" unicode="&#xcb;" horiz-adv-x="385" 
d="M148 71c20 -2 52 -3 84 -3c41 0 91 0 131 2c0 0 1 0 1 -1c-5 -51 -13 -65 -33 -70c-26 -1 -62 -2 -118 -2c-62 0 -114 2 -146 5c-3 14 -5 27 -7 41v479c0 44 0 85 -2 125c11 3 28 14 51 15h242c-3 -48 -8 -61 -22 -67c-24 -4 -53 -4 -92 -4h-89v-204h186
c-7 -63 -15 -72 -39 -72h-147v-244zM75 787c0 34 16 52 50 52c37 0 44 -17 43 -50s-11 -56 -49 -56c-32 0 -44 17 -44 54zM242 787c0 34 16 52 50 52c37 0 44 -17 43 -50s-11 -56 -49 -56c-32 0 -44 17 -44 54z" />
    <glyph glyph-name="Egrave" unicode="&#xc8;" horiz-adv-x="385" 
d="M247 735c-24 10 -100 57 -148 82c-5 4 -9 7 -11 10c0 5 1 11 4 17c4 11 15 24 24 24c3 9 9 17 16 17c13 0 92 -58 129 -94c6 -5 10 -11 13 -16c0 -8 -17 -37 -27 -40zM148 71c20 -2 52 -3 84 -3c41 0 91 0 131 2c0 0 1 0 1 -1c-5 -51 -13 -65 -33 -70
c-26 -1 -62 -2 -118 -2c-62 0 -114 2 -146 5c-3 14 -5 27 -7 41v479c0 44 0 85 -2 125c11 3 28 14 51 15h242c-3 -48 -8 -61 -22 -67c-24 -4 -53 -4 -92 -4h-89v-204h186c-7 -63 -15 -72 -39 -72h-147v-244z" />
    <glyph glyph-name="Iacute" unicode="&#xcd;" horiz-adv-x="207" 
d="M68 -3c-6 0 -9 5 -9 19c0 75 1 194 1 316c0 76 -1 153 -1 213c0 54 -1 87 -2 96c8 20 33 23 82 23c8 0 9 -20 9 -66c0 -79 -1 -176 -1 -264c0 -86 1 -167 1 -231c0 -55 1 -84 1 -94c-8 -10 -32 -12 -81 -12zM62 716c-13 4 -25 34 -25 40c5 6 10 13 18 20
c42 37 117 87 134 87c19 -3 35 -36 39 -56c0 -7 -6 -12 -14 -16c-48 -22 -118 -60 -152 -75z" />
    <glyph glyph-name="Icircumflex" unicode="&#xce;" horiz-adv-x="207" 
d="M68 -3c-6 0 -9 5 -9 19c0 75 1 194 1 316c0 76 -1 153 -1 213c0 54 -1 87 -2 96c8 20 33 23 82 23c8 0 9 -20 9 -66c0 -79 -1 -176 -1 -264c0 -86 1 -167 1 -231c0 -55 1 -84 1 -94c-8 -10 -32 -12 -81 -12zM113 868c27 -19 90 -82 118 -109c-6 -17 -25 -39 -39 -39
c-7 0 -15 3 -22 9c-21 17 -53 52 -67 65c-25 -30 -51 -54 -68 -67c-1 -1 -5 -4 -8 -5s-5 -1 -5 -1c-18 5 -34 19 -38 30c19 22 69 75 100 106c5 8 22 11 29 11z" />
    <glyph glyph-name="Idieresis" unicode="&#xcf;" horiz-adv-x="207" 
d="M68 -3c-6 0 -9 5 -9 19c0 75 1 194 1 316c0 76 -1 153 -1 213c0 54 -1 87 -2 96c8 20 33 23 82 23c8 0 9 -20 9 -66c0 -79 -1 -176 -1 -264c0 -86 1 -167 1 -231c0 -55 1 -84 1 -94c-8 -10 -32 -12 -81 -12zM-28 785c0 29 18 52 49 52h1c32 0 47 -23 47 -50
c0 -31 -19 -52 -49 -52s-48 17 -48 50zM139 785c0 29 18 52 50 52c33 0 47 -23 47 -50c0 -31 -19 -52 -49 -52s-48 17 -48 50z" />
    <glyph glyph-name="Igrave" unicode="&#xcc;" horiz-adv-x="207" 
d="M144 735c-23 10 -100 57 -147 82c-6 4 -9 7 -11 10c0 5 1 11 4 17c4 11 14 24 23 24c3 9 9 17 16 17c13 0 92 -58 129 -94c6 -5 11 -11 13 -16v-1c0 -9 -18 -36 -27 -39zM68 -3c-6 0 -9 5 -9 19c0 75 1 194 1 316c0 76 -1 153 -1 213c0 54 -1 87 -2 96c8 20 33 23 82 23
c8 0 9 -20 9 -66c0 -79 -1 -176 -1 -264c0 -86 1 -167 1 -231c0 -55 1 -84 1 -94c-8 -10 -32 -12 -81 -12z" />
    <glyph glyph-name="Ntilde" unicode="&#xd1;" horiz-adv-x="557" 
d="M293 397l34 -61c34 -65 68 -136 90 -188v8c0 7 0 14 -1 21c-3 46 -5 122 -5 177v245c0 25 3 40 9 54c17 11 23 11 76 11c-1 -59 -2 -128 -2 -207v-447c-3 -2 -24 -16 -43 -16c-9 0 -31 1 -41 5c-42 77 -92 162 -143 252l-41 75c-21 43 -44 94 -65 139
c-10 22 -15 32 -24 52c4 -75 6 -160 7 -217v-236c0 -26 -3 -40 -9 -54c-11 -12 -24 -13 -77 -13c1 58 2 126 2 206v427c-4 5 -12 15 -12 17c0 0 0 6 1 9c10 6 52 8 68 8c9 0 20 -3 30 -9c22 -42 55 -100 92 -163c18 -31 35 -62 54 -95zM232 780c-15 -3 -28 -17 -37 -38
c-3 -6 -6 -11 -11 -11c-17 0 -38 22 -41 25c20 59 49 94 98 94c28 0 42 -20 61 -38c9 -9 17 -16 26 -16c21 0 31 15 38 39c3 7 6 10 12 10c13 0 31 -25 34 -30c-6 -41 -40 -90 -91 -90c-33 0 -44 22 -63 41c-10 10 -16 14 -26 14z" />
    <glyph glyph-name="Oacute" unicode="&#xd3;" horiz-adv-x="572" 
d="M129 324c0 193 63 279 156 279h1c90 0 159 -80 159 -269s-59 -275 -157 -275c-93 0 -159 86 -159 265zM289 677c-166 0 -257 -119 -257 -348c0 -212 71 -344 251 -344c173 0 257 129 257 352c0 214 -79 340 -251 340zM248 719c-13 4 -25 34 -25 40c5 6 10 13 18 20
c42 37 117 87 134 87c19 -3 35 -36 39 -56c0 -7 -6 -12 -14 -16c-48 -22 -118 -60 -152 -75z" />
    <glyph glyph-name="Ocircumflex" unicode="&#xd4;" horiz-adv-x="572" 
d="M129 324c0 193 63 279 156 279h1c90 0 159 -80 159 -269s-59 -275 -157 -275c-93 0 -159 86 -159 265zM289 677c-166 0 -257 -119 -257 -348c0 -212 71 -344 251 -344c173 0 257 129 257 352c0 214 -79 340 -251 340zM296 871c27 -19 90 -82 118 -109
c-6 -17 -25 -39 -39 -39c-7 0 -15 3 -22 9c-21 17 -53 52 -67 65c-25 -30 -51 -54 -68 -67c-1 -1 -5 -4 -8 -5s-5 -1 -5 -1c-18 5 -34 19 -38 30c19 22 69 75 100 106c5 8 22 11 29 11z" />
    <glyph glyph-name="Odieresis" unicode="&#xd6;" horiz-adv-x="572" 
d="M130 324c0 193 63 279 156 279h1c90 0 159 -80 159 -269s-59 -275 -157 -275c-93 0 -159 86 -159 265zM290 677c-166 0 -257 -119 -257 -348c0 -212 71 -344 251 -344c173 0 257 129 257 352c0 214 -79 340 -251 340zM157 787c0 34 16 52 50 52c37 0 44 -17 43 -50
s-11 -56 -49 -56c-32 0 -44 17 -44 54zM324 787c0 34 16 52 50 52c37 0 44 -17 43 -50s-11 -56 -49 -56c-32 0 -44 17 -44 54z" />
    <glyph glyph-name="Ograve" unicode="&#xd2;" horiz-adv-x="572" 
d="M330 739c-24 10 -100 56 -148 82c-5 3 -9 6 -11 9c0 6 1 12 4 18c4 10 15 23 24 23c3 9 9 18 16 18c13 0 92 -58 129 -94c6 -6 10 -11 13 -16c0 -8 -17 -37 -27 -40zM129 324c0 193 63 279 156 279h1c90 0 159 -80 159 -269s-59 -275 -157 -275c-93 0 -159 86 -159 265z
M289 677c-166 0 -257 -119 -257 -348c0 -212 71 -344 251 -344c173 0 257 129 257 352c0 214 -79 340 -251 340z" />
    <glyph glyph-name="Otilde" unicode="&#xd5;" horiz-adv-x="572" 
d="M129 324c0 193 63 279 156 279h1c90 0 159 -80 159 -269s-59 -275 -157 -275c-93 0 -159 86 -159 265zM289 677c-166 0 -257 -119 -257 -348c0 -212 71 -344 251 -344c173 0 257 129 257 352c0 214 -79 340 -251 340zM238 780c-15 -3 -28 -17 -37 -38
c-3 -6 -6 -11 -11 -11c-17 0 -38 22 -41 25c20 59 49 94 98 94c28 0 42 -20 61 -38c9 -9 17 -16 26 -16c21 0 31 15 38 39c3 7 6 10 12 10c13 0 31 -25 34 -30c-6 -41 -40 -90 -91 -90c-33 0 -44 22 -63 41c-10 10 -16 14 -26 14z" />
    <glyph glyph-name="Scaron" unicode="&#x160;" horiz-adv-x="390" 
d="M194 730c-27 19 -90 82 -118 109c6 17 25 39 39 39c7 0 15 -3 22 -9c21 -17 53 -52 67 -65c25 30 51 54 68 67c1 1 5 4 8 5s5 1 5 1c18 -5 34 -19 38 -30c-19 -22 -69 -75 -100 -106c-5 -8 -22 -11 -29 -11zM214 677c80 0 122 -26 131 -40c0 -15 -5 -32 -15 -48
c-3 -2 -7 -3 -11 -3c-5 0 -11 2 -18 5c-19 9 -47 17 -78 17c-58 0 -95 -28 -95 -81v-14c4 -24 17 -45 37 -68c22 -25 48 -49 77 -76c23 -21 43 -39 61 -59c41 -42 59 -84 59 -143c0 -109 -67 -182 -192 -182c-66 0 -111 18 -130 35c-9 8 -12 14 -12 22c0 17 9 42 19 58
c28 -24 72 -40 120 -40c60 0 101 36 101 100c0 43 -16 73 -64 118c-15 17 -33 34 -51 52c-29 28 -55 52 -74 76c-33 42 -44 78 -44 115c0 78 50 156 179 156z" />
    <glyph glyph-name="Uacute" unicode="&#xda;" horiz-adv-x="552" 
d="M280 57c65 0 92 12 108 22c14 68 20 155 20 238l1 274c0 26 4 45 10 62c15 10 24 11 76 11c-1 -52 -2 -114 -2 -188v-159c0 -108 -9 -195 -27 -270c-39 -47 -114 -62 -192 -62c-153 0 -198 90 -212 213c-3 33 -5 68 -5 106v190c0 65 -1 116 -2 157c8 10 32 13 82 13
c9 -16 10 -35 10 -75v-277c0 -42 2 -78 7 -111c15 -88 47 -144 126 -144zM231 716c-13 4 -25 34 -25 40c5 6 10 13 18 20c42 37 117 87 134 87c19 -3 35 -36 39 -56c0 -7 -6 -12 -14 -16c-48 -22 -118 -60 -152 -75z" />
    <glyph glyph-name="Ucircumflex" unicode="&#xdb;" horiz-adv-x="552" 
d="M280 57c65 0 92 12 108 22c14 68 20 155 20 238l1 274c0 26 4 45 10 62c15 10 24 11 76 11c-1 -52 -2 -114 -2 -188v-159c0 -108 -9 -195 -27 -270c-39 -47 -114 -62 -192 -62c-153 0 -198 90 -212 213c-3 33 -5 68 -5 106v190c0 65 -1 116 -2 157c8 10 32 13 82 13
c9 -16 10 -35 10 -75v-277c0 -42 2 -78 7 -111c15 -88 47 -144 126 -144zM285 867c27 -19 90 -82 118 -109c-6 -17 -25 -39 -39 -39c-7 0 -15 3 -22 9c-21 17 -53 52 -67 65c-25 -30 -51 -54 -68 -67c-1 -1 -5 -4 -8 -5s-5 -1 -5 -1c-18 5 -34 19 -38 30
c19 22 69 75 100 106c5 8 22 11 29 11z" />
    <glyph glyph-name="Udieresis" unicode="&#xdc;" horiz-adv-x="552" 
d="M280 57c65 0 92 12 108 22c14 68 20 155 20 238l1 274c0 26 4 45 10 62c15 10 24 11 76 11c-1 -52 -2 -114 -2 -188v-159c0 -108 -9 -195 -27 -270c-39 -47 -114 -62 -192 -62c-153 0 -198 90 -212 213c-3 33 -5 68 -5 106v190c0 65 -1 116 -2 157c8 10 32 13 82 13
c9 -16 10 -35 10 -75v-277c0 -42 2 -78 7 -111c15 -88 47 -144 126 -144zM148 787c0 34 16 52 50 52c37 0 44 -17 43 -50s-11 -56 -49 -56c-32 0 -44 17 -44 54zM315 787c0 34 16 52 50 52c37 0 44 -17 43 -50s-11 -56 -49 -56c-32 0 -44 17 -44 54z" />
    <glyph glyph-name="Ugrave" unicode="&#xd9;" horiz-adv-x="552" 
d="M313 731c-24 10 -100 57 -148 82c-6 4 -10 7 -12 10c0 10 13 41 28 41c4 9 10 17 16 17c13 0 93 -58 129 -94c6 -5 11 -11 13 -16v-1c0 -3 -3 -10 -7 -17c-6 -11 -12 -20 -19 -22zM280 57c65 0 92 12 108 22c14 68 20 155 20 238l1 274c0 26 4 45 10 62
c15 10 24 11 76 11c-1 -52 -2 -114 -2 -188v-159c0 -108 -9 -195 -27 -270c-39 -47 -114 -62 -192 -62c-153 0 -198 90 -212 213c-3 33 -5 68 -5 106v190c0 65 -1 116 -2 157c8 10 32 13 82 13c9 -16 10 -35 10 -75v-277c0 -42 2 -78 7 -111c15 -88 47 -144 126 -144z" />
    <glyph glyph-name="Yacute" unicode="&#xdd;" horiz-adv-x="462" 
d="M208 712c-8 2 -14 12 -19 22c-4 7 -6 13 -6 17v1c4 6 10 13 17 20c43 37 117 87 134 87c20 -3 36 -36 40 -56c0 -7 -6 -12 -14 -16c-48 -22 -118 -60 -152 -75zM236 375l131 282c11 4 19 6 31 6c10 0 24 -1 47 -3c1 -4 2 -10 2 -12c0 -12 -5 -22 -11 -36
c-28 -68 -122 -221 -146 -278c-6 -16 -12 -34 -14 -50v-146c0 -56 1 -97 1 -128c-9 -11 -22 -14 -82 -14c-6 14 -8 27 -8 45v235c0 10 0 17 -2 23c-11 29 -28 67 -53 115c-37 75 -86 164 -120 234l-1 2c0 5 7 7 47 7h50c26 -56 108 -240 128 -282z" />
    <glyph glyph-name="Ydieresis" unicode="&#x178;" horiz-adv-x="462" 
d="M236 375l131 282c11 4 19 6 31 6c10 0 24 -1 47 -3c1 -4 2 -10 2 -12c0 -12 -5 -22 -11 -36c-28 -68 -122 -221 -146 -278c-6 -16 -12 -34 -14 -50v-146c0 -56 1 -97 1 -128c-9 -11 -22 -14 -82 -14c-6 14 -8 27 -8 45v235c0 10 0 17 -2 23c-11 29 -28 67 -53 115
c-37 75 -86 164 -120 234l-1 2c0 5 7 7 47 7h50c26 -56 108 -240 128 -282zM103 787c0 34 16 52 50 52c37 0 44 -17 43 -50s-11 -56 -49 -56c-32 0 -44 17 -44 54zM270 787c0 34 16 52 50 52c37 0 44 -17 43 -50s-11 -56 -49 -56c-32 0 -44 17 -44 54z" />
    <glyph glyph-name="Zcaron" unicode="&#x17d;" horiz-adv-x="467" 
d="M228 725c-27 19 -90 82 -118 109c6 17 25 39 39 39c7 0 15 -3 22 -9c21 -17 53 -52 67 -65c25 30 51 54 68 67c1 1 5 4 8 5s5 1 5 1c18 -5 34 -19 38 -30c-19 -22 -69 -75 -100 -106c-5 -8 -22 -11 -29 -11zM45 606c3 16 5 30 8 43c2 4 5 15 16 17c16 -2 35 -4 61 -4h298
v-3c0 -5 1 -11 1 -19c0 -15 -4 -31 -12 -48c-53 -116 -173 -336 -279 -522c58 -2 149 -3 226 -3c41 0 71 4 81 5c2 -10 2 -21 1 -32c-7 -18 -20 -38 -35 -40c-22 -2 -51 -3 -126 -3c-122 0 -199 2 -249 4c-2 2 -9 10 -11 21c0 5 -1 9 -1 13s1 8 1 12
c108 180 229 399 302 545h-231c-38 0 -51 4 -51 12v2z" />
    <glyph glyph-name="aacute" unicode="&#xe1;" horiz-adv-x="395" 
d="M57 412c-1 3 -1 7 -1 11s1 8 2 11c21 20 81 46 148 48c16 0 18 0 35 -1c74 -5 98 -54 98 -139v-45c0 -69 -2 -149 -2 -202c0 0 -4 -52 28 -46c-1 -14 -1 -31 -1 -37c-8 -11 -27 -22 -53 -23c-24 0 -50 22 -60 36c-6 -6 -18 -17 -29 -23c-22 -11 -46 -13 -73 -13
c-64 0 -125 40 -125 132c0 123 109 154 169 160c10 1 19 1 28 1c13 0 24 -1 33 -3v57c0 45 -5 70 -48 70c-35 0 -76 -14 -105 -26c-11 -5 -21 -8 -29 -8c-9 10 -13 28 -15 40zM252 103c2 12 2 27 2 48v71c-6 1 -13 1 -20 1c-12 0 -23 -1 -33 -2c-48 -8 -89 -29 -89 -92
c0 -51 22 -69 53 -71h7c30 0 63 14 77 31c1 2 2 8 3 14zM249 730c22 0 51 -28 51 -47c-2 -3 -5 -6 -11 -12c-36 -36 -90 -88 -118 -115c-14 3 -31 21 -31 37c0 2 0 5 1 8c32 46 94 129 108 129z" />
    <glyph glyph-name="acircumflex" unicode="&#xe2;" horiz-adv-x="395" 
d="M57 412c-1 3 -1 7 -1 11s1 8 2 11c21 20 81 46 148 48c16 0 18 0 35 -1c74 -5 98 -54 98 -139v-45c0 -69 -2 -149 -2 -202c0 0 -4 -52 28 -46c-1 -14 -1 -31 -1 -37c-8 -11 -27 -22 -53 -23c-24 0 -50 22 -60 36c-6 -6 -18 -17 -29 -23c-22 -11 -46 -13 -73 -13
c-64 0 -125 40 -125 132c0 123 109 154 169 160c10 1 19 1 28 1c13 0 24 -1 33 -3v57c0 45 -5 70 -48 70c-35 0 -76 -14 -105 -26c-11 -5 -21 -8 -29 -8c-9 10 -13 28 -15 40zM252 103c2 12 2 27 2 48v71c-6 1 -13 1 -20 1c-12 0 -23 -1 -33 -2c-48 -8 -89 -29 -89 -92
c0 -51 22 -69 53 -71h7c30 0 63 14 77 31c1 2 2 8 3 14zM206 729c25 -27 85 -98 108 -136c-9 -14 -27 -34 -42 -34c-6 0 -12 4 -19 12c-21 25 -49 62 -60 81c-17 -29 -34 -52 -52 -76c-7 -9 -16 -16 -19 -16c-16 6 -33 15 -39 25c15 32 50 79 79 120c7 8 13 14 20 18
c9 4 18 6 24 6z" />
    <glyph glyph-name="adieresis" unicode="&#xe4;" horiz-adv-x="395" 
d="M57 412c-1 3 -1 7 -1 11s1 8 2 11c21 20 81 46 148 48c16 0 18 0 35 -1c74 -5 98 -54 98 -139v-45c0 -69 -2 -149 -2 -202c0 0 -4 -52 28 -46c-1 -14 -1 -31 -1 -37c-8 -11 -27 -22 -53 -23c-24 0 -50 22 -60 36c-6 -6 -18 -17 -29 -23c-22 -11 -46 -13 -73 -13
c-64 0 -125 40 -125 132c0 123 109 154 169 160c10 1 19 1 28 1c13 0 24 -1 33 -3v57c0 45 -5 70 -48 70c-35 0 -76 -14 -105 -26c-11 -5 -21 -8 -29 -8c-9 10 -13 28 -15 40zM252 103c2 12 2 27 2 48v71c-6 1 -13 1 -20 1c-12 0 -23 -1 -33 -2c-48 -8 -89 -29 -89 -92
c0 -51 22 -69 53 -71h7c30 0 63 14 77 31c1 2 2 8 3 14zM65 620c0 34 16 52 50 52c37 0 44 -17 43 -50s-11 -56 -49 -56c-32 0 -44 17 -44 54zM222 620c0 34 16 52 50 52c37 0 44 -17 43 -50s-11 -56 -49 -56c-32 0 -44 17 -44 54z" />
    <glyph glyph-name="agrave" unicode="&#xe0;" horiz-adv-x="395" 
d="M57 412c-1 3 -1 7 -1 11s1 8 2 11c21 20 81 46 148 48c16 0 18 0 35 -1c74 -5 98 -54 98 -139v-45c0 -69 -2 -149 -2 -202c0 0 -4 -52 28 -46c-1 -14 -1 -31 -1 -37c-8 -11 -27 -22 -53 -23c-24 0 -50 22 -60 36c-6 -6 -18 -17 -29 -23c-22 -11 -46 -13 -73 -13
c-64 0 -125 40 -125 132c0 123 109 154 169 160c10 1 19 1 28 1c13 0 24 -1 33 -3v57c0 45 -5 70 -48 70c-35 0 -76 -14 -105 -26c-11 -5 -21 -8 -29 -8c-9 10 -13 28 -15 40zM252 103c2 12 2 27 2 48v71c-6 1 -13 1 -20 1c-12 0 -23 -1 -33 -2c-48 -8 -89 -29 -89 -92
c0 -51 22 -69 53 -71h7c30 0 63 14 77 31c1 2 2 8 3 14zM167 729c-22 0 -51 -28 -51 -47c2 -3 5 -6 11 -12c36 -36 90 -88 118 -115c14 3 31 21 31 37c0 2 0 5 -1 8c-32 46 -94 129 -108 129z" />
    <glyph glyph-name="aring" unicode="&#xe5;" horiz-adv-x="395" 
d="M57 412c-1 3 -1 7 -1 11s1 8 2 11c21 20 81 46 148 48c16 0 18 0 35 -1c74 -5 98 -54 98 -139v-45c0 -69 -2 -149 -2 -202c0 0 -4 -52 28 -46c-1 -14 -1 -31 -1 -37c-8 -11 -27 -22 -53 -23c-24 0 -50 22 -60 36c-6 -6 -18 -17 -29 -23c-22 -11 -46 -13 -73 -13
c-64 0 -125 40 -125 132c0 123 109 154 169 160c10 1 19 1 28 1c13 0 24 -1 33 -3v57c0 45 -5 70 -48 70c-35 0 -76 -14 -105 -26c-11 -5 -21 -8 -29 -8c-9 10 -13 28 -15 40zM252 103c2 12 2 27 2 48v71c-6 1 -13 1 -20 1c-12 0 -23 -1 -33 -2c-48 -8 -89 -29 -89 -92
c0 -51 22 -69 53 -71h7c30 0 63 14 77 31c1 2 2 8 3 14zM93 645c0 55 42 101 100 101h1c60 0 99 -49 99 -100c0 -57 -44 -100 -101 -100c-54 0 -99 40 -99 99zM143 646c0 -31 22 -54 51 -54c30 0 50 25 50 53s-19 55 -51 55c-30 0 -50 -26 -50 -54z" />
    <glyph glyph-name="atilde" unicode="&#xe3;" horiz-adv-x="397" 
d="M57 412c-1 3 -1 7 -1 11s1 8 2 11c21 20 81 46 148 48c16 0 18 0 35 -1c74 -5 98 -54 98 -139v-45c0 -69 -2 -149 -2 -202c0 0 -4 -52 28 -46c-1 -14 -1 -31 -1 -37c-8 -11 -27 -22 -53 -23c-24 0 -50 22 -60 36c-6 -6 -18 -17 -29 -23c-22 -11 -46 -13 -73 -13
c-64 0 -125 40 -125 132c0 123 109 154 169 160c10 1 19 1 28 1c13 0 24 -1 33 -3v57c0 45 -5 70 -48 70c-35 0 -76 -14 -105 -26c-11 -5 -21 -8 -29 -8c-9 10 -13 28 -15 40zM252 103c2 12 2 27 2 48v71c-6 1 -13 1 -20 1c-12 0 -23 -1 -33 -2c-48 -8 -89 -29 -89 -92
c0 -51 22 -69 53 -71h7c30 0 63 14 77 31c1 2 2 8 3 14zM147 618c-15 -3 -28 -17 -37 -38c-3 -6 -6 -11 -11 -11c-17 0 -38 22 -41 25c20 59 49 94 98 94c28 0 42 -20 61 -38c9 -9 17 -16 26 -16c21 0 31 15 38 39c3 7 6 10 12 10c13 0 31 -25 34 -30
c-6 -41 -40 -90 -91 -90c-33 0 -44 22 -63 41c-10 10 -16 14 -26 14z" />
    <glyph glyph-name="ccedilla" unicode="&#xe7;" horiz-adv-x="373" 
d="M349 442c0 -13 -5 -35 -13 -49h-5c-7 0 -17 3 -27 6c-18 8 -40 13 -60 13c-5 0 -9 0 -14 -1c-63 -5 -108 -60 -108 -180c0 -144 63 -174 128 -174c33 0 65 9 86 19c3 -10 6 -21 6 -28c-1 -14 -10 -31 -22 -40c-19 -13 -52 -22 -88 -22c-108 0 -200 40 -200 240
c0 106 34 171 73 207c39 37 89 49 137 49c59 0 103 -27 107 -40zM163 -29c20 1 43 1 63 -4c43 -10 75 -39 75 -77c0 -70 -82 -94 -133 -102c-14 2 -23 22 -23 31c0 8 4 11 13 13c56 18 78 31 78 58c0 28 -48 38 -85 38c2 12 5 32 12 43z" />
    <glyph glyph-name="eacute" unicode="&#xe9;" horiz-adv-x="396" 
d="M238 61c42 0 79 7 111 24c3 -9 5 -28 6 -40c-1 -20 -30 -41 -58 -48c-15 -4 -45 -10 -76 -10c-47 0 -97 9 -136 48c-35 36 -53 99 -53 182c0 193 82 265 192 265c90 0 136 -55 145 -141c1 -15 2 -31 2 -48c0 -21 -2 -43 -6 -59c-10 -8 -43 -19 -70 -23
c-31 -4 -83 -6 -130 -6c-16 0 -29 0 -45 1c1 -110 48 -145 118 -145zM214 417c-3 0 -6 0 -9 -1c-40 -6 -78 -51 -83 -148h38c39 0 80 1 99 3c9 1 17 2 23 6c3 8 5 20 5 33c0 8 -1 15 -1 22c-5 56 -27 85 -72 85zM263 729c22 0 51 -28 51 -47c-2 -3 -5 -6 -11 -12
c-36 -36 -90 -88 -118 -115c-14 3 -31 21 -31 37c0 2 0 5 1 8c32 46 94 129 108 129z" />
    <glyph glyph-name="ecircumflex" unicode="&#xea;" horiz-adv-x="396" 
d="M238 61c42 0 79 7 111 24c3 -9 5 -28 6 -40c-1 -20 -30 -41 -58 -48c-15 -4 -45 -10 -76 -10c-47 0 -97 9 -136 48c-35 36 -53 99 -53 182c0 193 82 265 192 265c90 0 136 -55 145 -141c1 -15 2 -31 2 -48c0 -21 -2 -43 -6 -59c-10 -8 -43 -19 -70 -23
c-31 -4 -83 -6 -130 -6c-16 0 -29 0 -45 1c1 -110 48 -145 118 -145zM214 417c-3 0 -6 0 -9 -1c-40 -6 -78 -51 -83 -148h38c39 0 80 1 99 3c9 1 17 2 23 6c3 8 5 20 5 33c0 8 -1 15 -1 22c-5 56 -27 85 -72 85zM220 729c25 -27 85 -98 108 -136c-9 -14 -27 -34 -42 -34
c-6 0 -12 4 -19 12c-21 25 -49 62 -60 81c-17 -29 -34 -52 -52 -76c-7 -9 -16 -16 -19 -16c-16 6 -33 15 -39 25c15 32 50 79 79 120c7 8 13 14 20 18c9 4 18 6 24 6z" />
    <glyph glyph-name="edieresis" unicode="&#xeb;" horiz-adv-x="396" 
d="M238 61c42 0 79 7 111 24c3 -9 5 -28 6 -40c-1 -20 -30 -41 -58 -48c-15 -4 -45 -10 -76 -10c-47 0 -97 9 -136 48c-35 36 -53 99 -53 182c0 193 82 265 192 265c90 0 136 -55 145 -141c1 -15 2 -31 2 -48c0 -21 -2 -43 -6 -59c-10 -8 -43 -19 -70 -23
c-31 -4 -83 -6 -130 -6c-16 0 -29 0 -45 1c1 -110 48 -145 118 -145zM214 417c-3 0 -6 0 -9 -1c-40 -6 -78 -51 -83 -148h38c39 0 80 1 99 3c9 1 17 2 23 6c3 8 5 20 5 33c0 8 -1 15 -1 22c-5 56 -27 85 -72 85zM86 620c0 34 16 52 50 52c37 0 44 -17 43 -50
s-11 -56 -49 -56c-32 0 -44 17 -44 54zM243 620c0 34 16 52 50 52c37 0 44 -17 43 -50s-11 -56 -49 -56c-32 0 -44 17 -44 54z" />
    <glyph glyph-name="egrave" unicode="&#xe8;" horiz-adv-x="396" 
d="M238 61c42 0 79 7 111 24c3 -9 5 -28 6 -40c-1 -20 -30 -41 -58 -48c-15 -4 -45 -10 -76 -10c-47 0 -97 9 -136 48c-35 36 -53 99 -53 182c0 193 82 265 192 265c90 0 136 -55 145 -141c1 -15 2 -31 2 -48c0 -21 -2 -43 -6 -59c-10 -8 -43 -19 -70 -23
c-31 -4 -83 -6 -130 -6c-16 0 -29 0 -45 1c1 -110 48 -145 118 -145zM214 417c-3 0 -6 0 -9 -1c-40 -6 -78 -51 -83 -148h38c39 0 80 1 99 3c9 1 17 2 23 6c3 8 5 20 5 33c0 8 -1 15 -1 22c-5 56 -27 85 -72 85zM174 729c-22 0 -51 -28 -51 -47c2 -3 5 -6 11 -12
c36 -36 90 -88 118 -115c14 3 31 21 31 37c0 2 0 5 -1 8c-32 46 -94 129 -108 129z" />
    <glyph glyph-name="iacute" unicode="&#xed;" horiz-adv-x="202" 
d="M137 472c7 -14 8 -29 8 -71v-340c0 -23 -3 -39 -12 -53c-7 -10 -21 -10 -77 -11c0 51 1 110 1 171v177c0 46 -1 77 -2 103c10 21 41 24 82 24zM155 729c22 0 51 -28 51 -47c-2 -3 -5 -6 -11 -12c-36 -36 -90 -88 -118 -115c-14 3 -31 21 -31 37c0 2 0 5 1 8
c32 46 94 129 108 129z" />
    <glyph glyph-name="icircumflex" unicode="&#xee;" horiz-adv-x="202" 
d="M137 472c7 -14 8 -29 8 -71v-340c0 -23 -3 -39 -12 -53c-7 -10 -21 -10 -77 -11c0 51 1 110 1 171v177c0 46 -1 77 -2 103c10 21 41 24 82 24zM112 729c25 -27 85 -98 108 -136c-9 -14 -27 -34 -42 -34c-6 0 -12 4 -19 12c-21 25 -49 62 -60 81c-17 -29 -34 -52 -52 -76
c-7 -9 -16 -16 -19 -16c-16 6 -33 15 -39 25c15 32 50 79 79 120c7 8 13 14 20 18c9 4 18 6 24 6z" />
    <glyph glyph-name="idieresis" unicode="&#xef;" horiz-adv-x="202" 
d="M137 472c7 -14 8 -29 8 -71v-340c0 -23 -3 -39 -12 -53c-7 -10 -21 -10 -77 -11c0 51 1 110 1 171v177c0 46 -1 77 -2 103c10 21 41 24 82 24zM-22 620c0 34 16 52 50 52c37 0 44 -17 43 -50s-11 -56 -49 -56c-32 0 -44 17 -44 54zM135 620c0 34 16 52 50 52
c37 0 44 -17 43 -50s-11 -56 -49 -56c-32 0 -44 17 -44 54z" />
    <glyph glyph-name="igrave" unicode="&#xec;" horiz-adv-x="202" 
d="M137 472c7 -14 8 -29 8 -71v-340c0 -23 -3 -39 -12 -53c-7 -10 -21 -10 -77 -11c0 51 1 110 1 171v177c0 46 -1 77 -2 103c10 21 41 24 82 24zM36 729c-22 0 -51 -28 -51 -47c2 -3 5 -6 11 -12c36 -36 90 -88 118 -115c14 3 31 21 31 37c0 2 0 5 -1 8
c-32 46 -94 129 -108 129z" />
    <glyph glyph-name="ntilde" unicode="&#xf1;" horiz-adv-x="452" 
d="M231 408c-36 0 -65 -19 -86 -42v-312c0 -21 -2 -34 -11 -47c-12 -10 -23 -9 -77 -10c1 54 2 118 2 195v170c0 32 -5 55 -12 75c5 6 18 13 40 23c3 1 6 1 7 1c18 0 27 -13 31 -30c24 20 47 32 69 39c21 7 40 11 62 11c119 0 142 -63 142 -176v-153c0 -55 1 -103 2 -143
c-10 -9 -25 -12 -82 -12c-6 11 -8 25 -8 41v265c0 77 -19 105 -79 105zM178 618c-15 -3 -28 -17 -37 -38c-3 -6 -6 -11 -11 -11c-17 0 -38 22 -41 25c20 59 49 94 98 94c28 0 42 -20 61 -38c9 -9 17 -16 26 -16c21 0 31 15 38 39c3 7 6 10 12 10c13 0 31 -25 34 -30
c-6 -41 -40 -90 -91 -90c-33 0 -44 22 -63 41c-10 10 -16 14 -26 14z" />
    <glyph glyph-name="oacute" unicode="&#xf3;" horiz-adv-x="449" 
d="M416 238c0 -167 -82 -252 -193 -252c-124 0 -193 73 -193 246c0 172 81 250 196 250c126 0 190 -83 190 -244zM123 236c0 -138 43 -185 102 -185c53 0 99 46 99 184c0 131 -39 180 -99 180h-2c-53 0 -100 -49 -100 -179zM278 729c22 0 51 -28 51 -47c-2 -3 -5 -6 -11 -12
c-36 -36 -90 -88 -118 -115c-14 3 -31 21 -31 37c0 2 0 5 1 8c32 46 94 129 108 129z" />
    <glyph glyph-name="ocircumflex" unicode="&#xf4;" horiz-adv-x="449" 
d="M416 238c0 -167 -82 -252 -193 -252c-124 0 -193 73 -193 246c0 172 81 250 196 250c126 0 190 -83 190 -244zM123 236c0 -138 43 -185 102 -185c53 0 99 46 99 184c0 131 -39 180 -99 180h-2c-53 0 -100 -49 -100 -179zM238 729c25 -27 85 -98 108 -136
c-9 -14 -27 -34 -42 -34c-6 0 -12 4 -19 12c-21 25 -49 62 -60 81c-17 -29 -34 -52 -52 -76c-7 -9 -16 -16 -19 -16c-16 6 -33 15 -39 25c15 32 50 79 79 120c7 8 13 14 20 18c9 4 18 6 24 6z" />
    <glyph glyph-name="odieresis" unicode="&#xf6;" horiz-adv-x="449" 
d="M416 238c0 -167 -82 -252 -193 -252c-124 0 -193 73 -193 246c0 172 81 250 196 250c126 0 190 -83 190 -244zM123 236c0 -138 43 -185 102 -185c53 0 99 46 99 184c0 131 -39 180 -99 180h-2c-53 0 -100 -49 -100 -179zM97 620c0 34 16 52 50 52c37 0 44 -17 43 -50
s-11 -56 -49 -56c-32 0 -44 17 -44 54zM254 620c0 34 16 52 50 52c37 0 44 -17 43 -50s-11 -56 -49 -56c-32 0 -44 17 -44 54z" />
    <glyph glyph-name="ograve" unicode="&#xf2;" horiz-adv-x="449" 
d="M416 238c0 -167 -82 -252 -193 -252c-124 0 -193 73 -193 246c0 172 81 250 196 250c126 0 190 -83 190 -244zM123 236c0 -138 43 -185 102 -185c53 0 99 46 99 184c0 131 -39 180 -99 180h-2c-53 0 -100 -49 -100 -179zM168 729c-22 0 -51 -28 -51 -47c2 -3 5 -6 11 -12
c36 -36 90 -88 118 -115c14 3 31 21 31 37c0 2 0 5 -1 8c-32 46 -94 129 -108 129z" />
    <glyph glyph-name="otilde" unicode="&#xf5;" horiz-adv-x="449" 
d="M416 238c0 -167 -82 -252 -193 -252c-124 0 -193 73 -193 246c0 172 81 250 196 250c126 0 190 -83 190 -244zM123 236c0 -138 43 -185 102 -185c53 0 99 46 99 184c0 131 -39 180 -99 180h-2c-53 0 -100 -49 -100 -179zM176 618c-15 -3 -28 -17 -37 -38
c-3 -6 -6 -11 -11 -11c-17 0 -38 22 -41 25c20 59 49 94 98 94c28 0 42 -20 61 -38c9 -9 17 -16 26 -16c21 0 31 15 38 39c3 7 6 10 12 10c13 0 31 -25 34 -30c-6 -41 -40 -90 -91 -90c-33 0 -44 22 -63 41c-10 10 -16 14 -26 14z" />
    <glyph glyph-name="scaron" unicode="&#x161;" horiz-adv-x="346" 
d="M188 482c11 0 21 -1 29 -2c60 -4 85 -28 89 -40c0 -13 -7 -34 -15 -45c-14 3 -29 4 -46 10c-15 6 -31 9 -49 9c-41 0 -68 -21 -68 -52c0 -17 8 -32 32 -51c25 -20 71 -50 101 -75c43 -34 59 -67 59 -109c0 -93 -75 -140 -167 -140c-62 0 -115 18 -125 43c0 16 6 37 16 50
h4c8 0 17 -3 27 -8c21 -9 48 -16 76 -16c6 0 13 1 19 2c36 4 58 27 58 60c0 23 -11 43 -43 65c-26 19 -58 42 -81 61l-24 21c-30 29 -44 60 -44 94c0 77 62 123 152 123zM165 539c-24 27 -84 98 -107 136c8 14 27 34 41 34c6 0 13 -4 20 -12c21 -25 49 -62 59 -81
c17 29 35 52 52 76c9 9 17 16 19 16c16 -6 33 -15 39 -25c-15 -32 -50 -79 -79 -120c-6 -8 -12 -14 -20 -18c-9 -3 -17 -6 -24 -6z" />
    <glyph glyph-name="uacute" unicode="&#xfa;" horiz-adv-x="455" 
d="M308 97v318c0 21 2 34 11 47c12 10 23 9 77 10c-1 -54 -2 -118 -2 -195v-170c0 -32 5 -55 12 -75c-5 -6 -18 -13 -40 -23c-3 -1 -6 -1 -7 -1c-18 0 -27 13 -31 30c-24 -20 -47 -32 -69 -39c-21 -7 -40 -11 -62 -11c-116 5 -139 64 -141 170l10 166c0 57 -1 97 -2 134
c10 11 31 14 82 14c6 -23 8 -47 8 -98l-10 -203c0 -90 28 -109 76 -109c35 -2 71 14 88 35zM276 729c22 0 51 -28 51 -47c-2 -3 -5 -6 -11 -12c-36 -36 -90 -88 -118 -115c-14 3 -31 21 -31 37c0 2 0 5 1 8c32 46 94 129 108 129z" />
    <glyph glyph-name="ucircumflex" unicode="&#xfb;" horiz-adv-x="455" 
d="M308 97v318c0 21 2 34 11 47c12 10 23 9 77 10c-1 -54 -2 -118 -2 -195v-170c0 -32 5 -55 12 -75c-5 -6 -18 -13 -40 -23c-3 -1 -6 -1 -7 -1c-18 0 -27 13 -31 30c-24 -20 -47 -32 -69 -39c-21 -7 -40 -11 -62 -11c-116 5 -139 64 -141 170l10 166c0 57 -1 97 -2 134
c10 11 31 14 82 14c6 -23 8 -47 8 -98l-10 -203c0 -90 28 -109 76 -109c35 -2 71 14 88 35zM236 729c25 -27 85 -98 108 -136c-9 -14 -27 -34 -42 -34c-6 0 -12 4 -19 12c-21 25 -49 62 -60 81c-17 -29 -34 -52 -52 -76c-7 -9 -16 -16 -19 -16c-16 6 -33 15 -39 25
c15 32 50 79 79 120c7 8 13 14 20 18c9 4 18 6 24 6z" />
    <glyph glyph-name="udieresis" unicode="&#xfc;" horiz-adv-x="455" 
d="M308 97v318c0 21 2 34 11 47c12 10 23 9 77 10c-1 -54 -2 -118 -2 -195v-170c0 -32 5 -55 12 -75c-5 -6 -18 -13 -40 -23c-3 -1 -6 -1 -7 -1c-18 0 -27 13 -31 30c-24 -20 -47 -32 -69 -39c-21 -7 -40 -11 -62 -11c-116 5 -139 64 -141 170l10 166c0 57 -1 97 -2 134
c10 11 31 14 82 14c6 -23 8 -47 8 -98l-10 -203c0 -90 28 -109 76 -109c35 -2 71 14 88 35zM100 620c0 34 16 52 50 52c37 0 44 -17 43 -50s-11 -56 -49 -56c-32 0 -44 17 -44 54zM257 620c0 34 16 52 50 52c37 0 44 -17 43 -50s-11 -56 -49 -56c-32 0 -44 17 -44 54z" />
    <glyph glyph-name="ugrave" unicode="&#xf9;" horiz-adv-x="455" 
d="M308 97v318c0 21 2 34 11 47c12 10 23 9 77 10c-1 -54 -2 -118 -2 -195v-170c0 -32 5 -55 12 -75c-5 -6 -18 -13 -40 -23c-3 -1 -6 -1 -7 -1c-18 0 -27 13 -31 30c-24 -20 -47 -32 -69 -39c-21 -7 -40 -11 -62 -11c-116 5 -139 64 -141 170l10 166c0 57 -1 97 -2 134
c10 11 31 14 82 14c6 -23 8 -47 8 -98l-10 -203c0 -90 28 -109 76 -109c35 -2 71 14 88 35zM198 729c-22 0 -51 -28 -51 -47c2 -3 5 -6 11 -12c36 -36 90 -88 118 -115c14 3 31 21 31 37c0 2 0 5 -1 8c-32 46 -94 129 -108 129z" />
    <glyph glyph-name="yacute" unicode="&#xfd;" horiz-adv-x="391" 
d="M190 533c-10 2 -18 11 -25 20c-4 5 -6 10 -6 16c0 3 1 6 2 9c31 46 94 129 108 129c17 0 34 -15 44 -30c4 -5 6 -11 6 -17c-1 -3 -5 -7 -11 -12c-36 -36 -90 -88 -118 -115zM98 475c6 0 16 -24 20 -40c10 -32 38 -124 57 -194c16 -60 29 -121 33 -133c6 15 20 77 34 138
c17 76 37 155 51 217c8 7 14 9 30 9c10 0 24 -1 44 -2c3 -6 5 -13 5 -21s-2 -17 -5 -27c-27 -111 -77 -287 -131 -437c-55 -141 -106 -184 -150 -184c-47 0 -71 16 -76 33c0 9 6 27 6 27c22 7 48 -4 79 9c27 14 58 95 72 154c-2 2 -4 3 -5 5c-9 13 -13 25 -20 46
c-9 30 -79 261 -121 377c7 17 25 23 77 23z" />
    <glyph glyph-name="ydieresis" unicode="&#xff;" horiz-adv-x="391" 
d="M98 475c6 0 16 -24 20 -40c10 -32 38 -124 57 -194c16 -61 30 -124 33 -133c5 14 20 77 34 138c17 76 37 155 51 217c8 7 14 9 30 9c10 0 24 -1 44 -2c3 -6 5 -13 5 -21s-2 -17 -5 -27c-27 -111 -77 -287 -131 -437c-55 -141 -106 -184 -150 -184c-47 0 -71 16 -76 33
c0 9 6 27 6 27c22 7 48 -4 79 9c27 14 58 95 72 154c-2 2 -4 3 -5 5c-9 13 -13 25 -20 46c-9 30 -79 261 -121 377c7 17 25 23 77 23zM80 620c0 34 16 52 50 52c37 0 44 -17 43 -50s-11 -56 -49 -56c-32 0 -44 17 -44 54zM237 620c0 34 16 52 50 52c37 0 44 -17 43 -50
s-11 -56 -49 -56c-32 0 -44 17 -44 54z" />
    <glyph glyph-name="zcaron" unicode="&#x17e;" horiz-adv-x="378" 
d="M56 474c24 -5 50 -5 87 -5h194v-3c0 -6 2 -12 2 -22c1 -8 -2 -19 -11 -37c-39 -78 -116 -212 -189 -338c29 -1 70 -2 109 -2c56 0 99 5 107 7c0 -10 -1 -23 -3 -34c-3 -22 -10 -33 -20 -36c-22 -4 -50 -5 -109 -5c-63 0 -134 0 -183 3c-3 4 -12 14 -14 31c1 8 4 15 9 24
c56 94 143 236 202 346h-107c-16 0 -30 -1 -44 -1c-35 0 -52 3 -52 10v2c4 38 10 57 22 60zM178 539c-24 27 -84 98 -107 136c8 14 27 34 41 34c6 0 13 -4 20 -12c21 -25 49 -62 59 -81c17 29 35 52 52 76c9 9 17 16 19 16c16 -6 33 -15 39 -25c-15 -32 -50 -79 -79 -120
c-6 -8 -12 -14 -20 -18c-9 -3 -17 -6 -24 -6z" />
    <glyph glyph-name="braceleft" unicode="{" horiz-adv-x="325" 
d="M166 619c-1 -11 1 -27 3 -36c5 -17 14 -37 23 -57c16 -38 35 -80 35 -120c0 -55 -21 -87 -73 -105c49 -18 74 -48 74 -101c0 -12 -3 -24 -6 -36c-6 -34 -18 -66 -31 -97c-9 -24 -17 -47 -23 -67c-2 -10 -4 -17 -4 -28c0 -39 27 -69 73 -78c8 -2 16 -3 23 -4l16 -3
c5 -1 8 -3 9 -5c0 -2 1 -4 1 -5c0 -7 -4 -15 -8 -23c-3 -4 -6 -12 -7 -15c-63 1 -109 12 -140 35c-32 23 -49 57 -49 102c0 41 18 85 36 128c10 25 19 49 25 71c2 11 5 24 3 38c-2 24 -12 50 -75 56c-11 1 -20 7 -26 15c-4 6 -7 14 -7 23c0 4 1 12 2 16c89 4 105 37 106 64
c1 9 -1 23 -3 33c-6 21 -15 44 -25 68c-17 41 -35 82 -35 118c0 54 30 96 83 118c28 12 68 21 106 23c2 -6 5 -15 7 -19c3 -8 6 -14 6 -18c0 -2 -1 -4 -2 -5c-1 -3 -3 -5 -7 -6c-7 -2 -13 -3 -21 -4l-17 -4c-58 -13 -70 -54 -72 -72z" />
    <glyph glyph-name="Eth" unicode="&#xd0;" horiz-adv-x="527" 
d="M213 665c221 0 280 -130 280 -309c0 -137 -25 -232 -91 -295c-58 -54 -133 -66 -186 -66c-58 0 -104 4 -156 10v316h-60c1 47 6 68 24 68h36v199c0 40 2 54 12 68c25 3 90 9 141 9zM219 66c85 0 177 49 177 290c0 152 -46 218 -137 233c-18 4 -38 6 -60 6
c-20 0 -37 -1 -51 -3v-203h125c-1 -45 -4 -68 -25 -68h-100v-250c20 -3 44 -5 71 -5z" />
    <glyph glyph-name="eth" unicode="&#xf0;" horiz-adv-x="450" 
d="M373 665c10 4 17 5 21 1c5 -3 7 -10 7 -21c0 -28 -2 -41 -21 -53c0 0 -42 -26 -49 -31c55 -71 96 -185 96 -305c0 -81 -23 -149 -57 -197c-34 -47 -85 -72 -140 -72c-60 0 -109 24 -144 68c-32 41 -54 99 -54 163c0 73 26 133 68 178c55 57 115 65 146 65
c25 0 47 -4 68 -12c-14 34 -28 59 -43 78c-19 -10 -38 -21 -55 -31c-19 -11 -39 -22 -58 -32c-11 -6 -16 -4 -20 -1s-8 10 -8 26c0 23 7 33 14 43c0 0 66 37 77 43c-37 28 -83 48 -131 54l-8 22l18 25c6 8 14 13 25 13c41 0 118 -37 162 -77c14 8 28 17 43 26
c14 9 28 20 43 27zM125 224c0 -131 72 -166 117 -166c68 0 93 75 93 200c0 38 -4 75 -11 104c-21 24 -49 32 -77 32c-39 0 -63 -15 -87 -45c-22 -29 -35 -75 -35 -125z" />
    <glyph glyph-name="Lslash" unicode="&#x141;" horiz-adv-x="377" 
d="M233 371l-85 -49v-249c25 -3 61 -4 96 -4c37 0 82 0 117 3c1 -11 1 -20 1 -31c-3 -17 -12 -37 -32 -42c-20 -1 -50 -2 -99 -2c-67 0 -125 2 -164 5c-3 17 -5 35 -8 52v216l-41 -23c-23 41 -29 62 -13 71l54 31v193c0 47 -1 82 -2 106c10 13 29 16 83 16
c6 -15 8 -33 8 -72v-192l72 42c22 -39 31 -61 13 -71z" />
    <glyph glyph-name="lslash" unicode="&#x142;" horiz-adv-x="225" 
d="M233 371l-90 -52v-185c0 -44 1 -91 2 -125c-9 -11 -34 -12 -81 -12c-5 19 -7 39 -7 64v208l-39 -22c-23 41 -29 62 -13 71l52 30v220c0 49 -1 83 -2 113c10 23 40 26 81 26c6 -20 7 -43 7 -93v-217l77 45c22 -39 31 -61 13 -71z" />
    <glyph glyph-name="less" unicode="&#x3c;" horiz-adv-x="458" 
d="M376 549c6 -12 11 -34 11 -43c0 0 -240 -182 -250 -189c10 -7 249 -182 249 -182c0 -11 -4 -38 -11 -49c-5 -8 -11 -13 -17 -14c-7 -1 -14 1 -22 7l-274 204c-8 7 -16 15 -16 27c0 15 3 26 9 33c0 0 267 202 281 214c9 7 15 10 21 9c9 -2 15 -9 19 -17z" />
    <glyph glyph-name="greater" unicode="&#x3e;" horiz-adv-x="455" 
d="M77 84c-6 13 -10 34 -11 44c0 0 241 182 250 189c-9 6 -249 181 -249 181c0 11 5 38 11 49c5 8 11 13 18 14s14 -1 21 -7l275 -204c8 -7 16 -15 16 -26c0 -16 -3 -27 -10 -34c0 0 -267 -202 -281 -214c-8 -7 -15 -10 -21 -9c-8 2 -15 9 -19 17z" />
    <glyph glyph-name="Euro" unicode="&#x20ac;" horiz-adv-x="465" 
d="M320 602c27 0 54 -5 79 -16c12 -5 21 -10 28 -9h4c8 11 14 28 14 50c-9 18 -54 50 -137 50c-68 0 -134 -18 -188 -76c-39 -42 -65 -100 -77 -172l-17 -2c-9 -1 -17 -3 -23 -7c-6 -7 -7 -36 -5 -61l38 4c-2 -16 -2 -32 -2 -49c0 -12 0 -23 1 -34l-9 -1
c-9 -1 -17 -3 -23 -7c-6 -7 -7 -36 -5 -61l42 4c25 -172 120 -230 258 -230c54 0 100 16 119 32c14 12 21 28 23 46c-1 13 -4 24 -8 31c-22 -14 -72 -29 -120 -29c-93 0 -155 51 -176 160l150 16c24 2 26 31 23 67l-180 -18c-1 9 -1 20 -1 30c0 19 1 36 2 53l222 23
c24 3 26 31 23 67l-234 -24c25 108 88 156 158 162c7 1 14 1 21 1z" />
    <glyph glyph-name="asciicircum" unicode="^" horiz-adv-x="389" 
d="M200 683c25 -27 117 -206 140 -244c-9 -14 -27 -34 -42 -34c-6 0 -12 5 -19 13c-21 24 -81 159 -92 178c-17 -29 -66 -150 -84 -174c-7 -8 -16 -15 -19 -15c-16 5 -33 14 -39 25c15 31 82 186 111 227c7 8 13 14 20 18c9 4 18 6 24 6z" />
    <glyph glyph-name="braceright" unicode="}" horiz-adv-x="325" 
d="M158 619c1 -11 -1 -27 -3 -36c-5 -17 -14 -37 -23 -57c-16 -38 -35 -80 -35 -120c0 -55 21 -87 73 -105c-49 -18 -74 -48 -74 -101c0 -12 3 -24 6 -36c6 -34 18 -66 31 -97c9 -24 17 -47 23 -67c2 -10 4 -17 4 -28c0 -39 -27 -69 -73 -78c-8 -2 -16 -3 -23 -4l-16 -3
c-5 -1 -8 -3 -9 -5c0 -2 -1 -4 -1 -5c0 -7 4 -15 8 -23c3 -4 6 -12 7 -15c63 1 109 12 140 35c32 23 49 57 49 102c0 41 -18 85 -36 128c-10 25 -19 49 -25 71c-2 11 -5 24 -3 38c2 24 12 50 75 56c11 1 20 7 26 15c4 6 7 14 7 23c0 4 -1 12 -2 16c-89 4 -105 37 -106 64
c-1 9 1 23 3 33c6 21 15 44 25 68c17 41 35 82 35 118c0 54 -30 96 -83 118c-28 12 -68 21 -106 23c-2 -6 -5 -15 -7 -19c-3 -8 -6 -14 -6 -18c0 -2 1 -4 2 -5c1 -3 3 -5 7 -6c7 -2 13 -3 21 -4l17 -4c58 -13 70 -54 72 -72z" />
    <glyph glyph-name="asciitilde" unicode="~" horiz-adv-x="500" 
d="M62 187c-18 1 -28 3 -37 7c20 146 77 169 121 169c47 -2 85 -25 119 -57c32 -28 62 -57 92 -57c34 0 51 31 57 82c2 13 6 22 10 30c14 0 41 -7 52 -15c-14 -126 -58 -162 -115 -162c-49 0 -97 41 -144 80c-28 24 -47 35 -66 35c-27 0 -51 -16 -64 -104
c-6 -6 -15 -8 -25 -8z" />
    <glyph glyph-name="_204" horiz-adv-x="532" 
d="M136 787c0 34 16 52 50 52c37 0 44 -17 43 -50s-11 -56 -49 -56c-32 0 -44 17 -44 54zM303 787c0 34 16 52 50 52c37 0 44 -17 43 -50s-11 -56 -49 -56c-32 0 -44 17 -44 54z" />
    <glyph glyph-name="_205" horiz-adv-x="396" 
d="M86 620c0 34 16 52 50 52c37 0 44 -17 43 -50s-11 -56 -49 -56c-32 0 -44 17 -44 54zM243 620c0 34 16 52 50 52c37 0 44 -17 43 -50s-11 -56 -49 -56c-32 0 -44 17 -44 54z" />
    <glyph glyph-name="_206" horiz-adv-x="532" 
d="M232 716c-13 4 -25 34 -25 40c5 6 10 13 18 20c42 37 117 87 134 87c19 -3 35 -36 39 -56c0 -7 -6 -12 -14 -16c-48 -22 -118 -60 -152 -75z" />
    <glyph glyph-name="_207" horiz-adv-x="557" 
d="M232 780c-15 -3 -28 -17 -37 -38c-3 -6 -6 -11 -11 -11c-17 0 -38 22 -41 25c20 59 49 94 98 94c28 0 42 -20 61 -38c9 -9 17 -16 26 -16c21 0 31 15 38 39c3 7 6 10 12 10c13 0 31 -25 34 -30c-6 -41 -40 -90 -91 -90c-33 0 -44 22 -63 41c-10 10 -16 14 -26 14z" />
    <glyph glyph-name="_208" horiz-adv-x="395" 
d="M167 728c-22 0 -51 -28 -51 -47c2 -3 5 -6 11 -12c36 -36 90 -88 118 -115c14 3 31 21 31 37c0 2 0 5 -1 8c-32 46 -94 129 -108 129z" />
    <glyph glyph-name="_209" horiz-adv-x="395" 
d="M93 645c0 55 42 101 100 101h1c60 0 99 -49 99 -100c0 -57 -44 -100 -101 -100c-54 0 -99 40 -99 99zM143 646c0 -31 22 -54 51 -54c30 0 50 25 50 53s-19 55 -51 55c-30 0 -50 -26 -50 -54z" />
    <glyph glyph-name="apple" unicode="&#xf8ff;" horiz-adv-x="500" 
d="M140 472c6 -11 8 -25 8 -64v-318c0 -46 -2 -88 -6 -127c-4 -40 -12 -74 -29 -101c-20 -32 -50 -52 -88 -57c-8 -1 -16 -1 -23 -1c-14 0 -25 1 -34 4c-19 3 -32 15 -35 33c0 9 2 22 6 29c3 0 6 -1 10 -1c20 0 43 6 65 16c33 14 42 44 45 105c1 24 2 51 2 80v255
c0 53 -1 90 -2 123c10 21 40 24 81 24zM55 642c0 37 17 56 53 56c40 0 47 -18 46 -54c-1 -35 -11 -60 -52 -60c-35 0 -47 18 -47 58z" />
    <glyph glyph-name="section" unicode="&#xa7;" horiz-adv-x="473" 
d="M81 472c-1 -138 214 -258 266 -320c20 -25 31 -53 31 -80c0 -7 -1 -12 -2 -18c-5 -56 -44 -87 -76 -102c-27 -14 -62 -21 -98 -21h-13c-29 1 -61 7 -80 14c-12 7 -6 38 -1 63c27 -10 70 -17 107 -17c52 0 93 24 93 70c0 3 0 8 -2 13c-3 18 -14 36 -31 53
c-89 88 -242 169 -242 323c0 49 16 89 35 113c14 17 31 25 40 26c8 0 10 -2 8 -8c-18 -27 -35 -63 -35 -109zM196 603c-2 -32 16 -49 33 -66c82 -82 217 -148 217 -291c0 -11 -1 -23 -3 -35c-5 -34 -22 -68 -64 -82c-4 -1 -8 2 -6 6c6 16 12 33 16 51c14 72 -33 157 -83 198
c-48 40 -118 87 -149 127c-20 26 -31 54 -31 80c0 7 1 13 2 19c5 56 44 86 76 101c27 14 61 20 101 19c40 0 68 -11 82 -22c14 -13 -2 -39 -11 -52c-29 10 -54 17 -87 17c-52 0 -93 -24 -93 -70z" />
    <glyph glyph-name="mu" unicode="&#xb5;" horiz-adv-x="455" 
d="M394 107c0 -32 5 -55 12 -75c-5 -6 -18 -13 -40 -23c-3 -1 -6 -1 -7 -1c-18 0 -27 13 -31 30c-25 -20 -47 -32 -69 -39c-21 -7 -40 -11 -62 -11c-28 1 -50 5 -68 13v-165c-5 -17 -13 -30 -31 -30c-2 0 -4 0 -7 1c-23 10 -41 19 -46 25c7 21 12 43 12 75v266l-1 151
c0 57 -1 97 -2 134c10 11 31 14 82 14c6 -23 8 -47 8 -98l-1 -203c0 -90 29 -109 77 -109c34 -2 71 14 88 35v318c0 21 2 34 11 47c12 10 23 9 77 10c-1 -54 -2 -118 -2 -195v-170z" />
    <glyph glyph-name="sterling" unicode="&#xa3;" horiz-adv-x="482" 
d="M217 326c5 -25 11 -66 11 -95c0 -10 -2 -23 -3 -38c-4 -40 -20 -75 -46 -104c42 -9 101 -15 143 -15c30 0 97 1 143 9c1 -9 0 -25 -2 -38c-1 -13 -8 -25 -19 -32c-7 -6 -16 -10 -25 -13c-29 -6 -61 -9 -104 -9c-71 0 -162 9 -261 27l1 57c45 24 72 71 78 132
c1 6 1 13 1 19c0 29 -6 61 -13 90l-60 -6c-2 25 -1 54 5 61c6 4 14 6 23 7l17 2c-4 20 -7 53 -7 80c4 66 22 120 53 158c33 40 78 62 134 66c83 0 128 -32 137 -50c0 -22 -6 -39 -14 -50c-8 -2 -20 3 -32 9c-10 5 -27 11 -47 14c-15 2 -32 4 -47 1c-53 -9 -82 -60 -87 -136
c-1 -7 -1 -13 -1 -20c0 -20 3 -42 7 -62l170 17c3 -36 1 -65 -23 -67z" />
    <glyph glyph-name="dagger" unicode="&#x2020;" horiz-adv-x="500" 
d="M220 594c18 3 43 8 60 8c4 0 7 -2 9 -5c5 -9 5 -20 5 -35v0c-1 -28 -1 -55 -1 -82c0 -24 -1 -48 -1 -72h161c3 0 6 -2 8 -4c1 -2 2 -4 2 -6v-3l-2 -11c-6 -22 -10 -37 -15 -50c-1 -4 -5 -7 -9 -7c-32 -1 -102 -1 -145 -1c0 -107 0 -262 -2 -387c0 -2 0 -3 -1 -5
c-14 -29 -41 -58 -65 -58c-4 0 -8 2 -9 6c-8 21 -12 67 -13 103c-1 89 -1 164 -1 223c0 28 0 55 1 79v39h-152c-3 0 -5 1 -7 3s-3 4 -3 7v0c1 25 6 48 14 66c2 3 5 6 9 6h139v175c0 5 4 8 8 9z" />
    <glyph glyph-name="daggerdbl" unicode="&#x2021;" horiz-adv-x="500" 
d="M202 117h-151c-3 0 -6 1 -7 2c-3 2 -3 5 -3 7c0 26 7 48 14 66c3 3 4 6 10 6h137v129l-151 1c-3 0 -6 0 -7 3c-3 1 -3 4 -3 7c0 25 7 47 14 66c3 2 4 5 10 5h137v164c0 4 3 6 10 8c4 1 8 2 14 3c18 3 39 7 53 7c3 0 7 -1 10 -4c4 -10 7 -21 7 -38c0 -46 -3 -94 -3 -140
h161c3 0 7 -1 7 -4c3 -1 3 -4 3 -6v-2l-3 -12c-4 -22 -8 -36 -14 -50c0 -4 -4 -7 -8 -7c-34 0 -104 -1 -146 -1v-129h161c3 0 7 -2 7 -3c3 -3 3 -4 3 -7v-3l-3 -11c-4 -21 -8 -36 -14 -49c0 -4 -4 -7 -8 -7c-34 -1 -104 -1 -146 -1c0 -59 0 -125 -3 -188c0 -3 0 -4 -1 -4
c-14 -37 -38 -59 -63 -59c-3 0 -7 3 -10 7c-4 15 -11 52 -11 94c-3 49 -3 105 -3 150z" />
    <glyph glyph-name="degree" unicode="&#xb0;" horiz-adv-x="355" 
d="M93 645c0 55 42 101 100 101h1c60 0 99 -49 99 -100c0 -57 -44 -100 -101 -100c-54 0 -99 40 -99 99zM143 646c0 -31 22 -54 51 -54c30 0 50 25 50 53s-19 55 -51 55c-30 0 -50 -26 -50 -54z" />
    <glyph glyph-name="paragraph" unicode="&#xb6;" horiz-adv-x="500" 
d="M334 -63c-31 -23 -60 -30 -89 -30c-22 0 -43 4 -64 8c-9 2 -16 8 -19 17s-5 18 -6 24c16 -4 30 -6 42 -6c21 0 39 4 59 11c60 22 90 84 90 197v79c-42 -8 -83 -17 -129 -21c-102 0 -178 70 -178 200c0 150 106 225 227 225h131h38c4 0 8 -3 8 -7s-2 -9 -5 -12l-19 -16
c-5 -4 -11 -6 -18 -7v-375c0 -35 -1 -67 -1 -96c-3 -91 -22 -147 -67 -191z" />
    <glyph glyph-name="notequal" unicode="&#x2260;" horiz-adv-x="499" 
d="M236 206l-2 -3h217c-1 -45 -4 -67 -25 -67h-237l-55 -83c-12 -18 -32 -29 -54 -29h-12l74 112h-94c1 46 5 67 25 67h113l2 3l82 122h-222c1 47 5 67 25 67h241l59 91c6 8 14 13 23 13h35l-69 -104h89c-1 -45 -4 -67 -25 -67h-108z" />
    <glyph glyph-name="infinity" unicode="&#x221e;" horiz-adv-x="764" 
d="M541 388c95 0 171 -58 171 -142c0 -9 -1 -16 -1 -23c-7 -82 -81 -120 -157 -120c-62 0 -119 41 -142 102c-14 -16 -36 -46 -49 -59c-34 -36 -78 -57 -135 -57c-93 0 -178 56 -178 156c0 118 98 157 176 157c69 0 133 -45 159 -113c18 24 48 59 67 73c24 17 59 26 89 26z
M311 193c15 13 36 42 53 68c-30 44 -76 73 -129 73c-65 0 -108 -39 -108 -89c0 -43 37 -85 101 -85c40 0 59 10 83 33zM546 168c55 0 87 34 87 75c0 38 -31 76 -87 76c-29 0 -48 -9 -68 -29c-14 -12 -32 -37 -48 -60c30 -40 70 -62 116 -62z" />
    <glyph glyph-name="plusminus" unicode="&#xb1;" horiz-adv-x="292" 
d="M113 212v93h-83c0 46 4 67 24 67h59c0 24 -1 52 -2 72c8 9 26 10 60 11c10 -5 12 -14 12 -36v-47h83c0 -45 -3 -67 -25 -67h-58v-54c2 -41 -36 -39 -70 -39zM61 155c55 5 127 14 173 20c7 -1 16 -4 22 -7c-3 -37 -13 -67 -36 -70c-45 -7 -115 -16 -162 -16
c-8 0 -15 2 -23 4c5 47 12 69 26 69z" />
    <glyph glyph-name="lessequal" unicode="&#x2264;" horiz-adv-x="292" 
d="M61 155c55 5 127 14 173 20c7 -1 16 -4 22 -7c-3 -37 -13 -67 -36 -70c-45 -7 -115 -16 -162 -16c-8 0 -15 2 -23 4c5 47 12 69 26 69zM218 444c6 -12 11 -33 11 -43c0 0 -88 -66 -98 -73c10 -7 98 -70 98 -70c0 -11 -4 -38 -11 -49c-5 -8 -11 -13 -17 -14
c-7 -1 -14 1 -22 7l-123 92c-8 7 -16 15 -16 27c0 15 3 26 9 33c0 0 115 86 129 99c9 7 15 9 21 8c9 -1 15 -8 19 -17z" />
    <glyph glyph-name="greaterequal" unicode="&#x2265;" horiz-adv-x="292" 
d="M62 155c54 5 127 14 172 20c7 -1 17 -4 22 -7c-2 -37 -12 -67 -36 -70c-45 -7 -115 -16 -161 -16c-8 0 -15 2 -24 4c6 47 13 69 27 69zM62 401c0 10 5 31 11 43c4 9 10 16 19 17c6 1 12 -1 21 -8c14 -13 129 -99 129 -99c6 -7 9 -18 9 -33c0 -12 -8 -20 -16 -27l-123 -92
c-8 -6 -15 -8 -22 -7c-6 1 -12 6 -17 14c-7 11 -11 38 -11 49c0 0 88 63 98 70c-10 7 -98 73 -98 73z" />
    <glyph glyph-name="pi" unicode="&#x3c0;" horiz-adv-x="644" 
d="M613 55c-3 -30 -46 -63 -86 -63c-90 0 -114 50 -114 133v315h-207v-301c0 -57 1 -96 2 -128c-12 -10 -16 -12 -70 -12c-6 11 -9 24 -9 43v398h-51c-15 0 -29 1 -42 3c-1 4 -1 7 -1 11c0 14 4 33 8 43c3 8 8 13 12 17c6 0 13 -1 24 -1c22 -1 496 -1 535 -1
c0 -18 -3 -36 -7 -52c-4 -14 -17 -19 -21 -20h-96v-317c0 -44 15 -58 50 -58c24 0 46 6 65 16c7 -8 10 -8 8 -26z" />
    <glyph glyph-name="integral" unicode="&#x222b;" horiz-adv-x="321" 
d="M164 437c0 -113 -1 -375 -1 -482c0 -81 -17 -168 -110 -168c-31 0 -62 7 -81 19c-8 6 -13 12 -15 20c-1 9 -1 19 -1 28c0 8 1 16 2 22c8 -7 54 -21 69 -20c40 0 46 39 50 95c2 24 2 51 2 77v51c0 82 -1 268 -1 358c0 27 1 119 4 142c11 133 103 165 173 165
c41 0 66 -9 75 -19c4 -4 3 -11 3 -16c-1 -8 -2 -15 -5 -22c-4 -8 -7 -15 -12 -20c-3 -1 -12 2 -20 5c-10 2 -27 3 -40 3c-45 0 -86 -20 -90 -106c-1 -21 -2 -110 -2 -132z" />
    <glyph glyph-name="florin" unicode="&#x192;" horiz-adv-x="268" 
d="M163 20c0 -81 -17 -168 -110 -168c-31 0 -62 7 -81 19c-8 6 -13 12 -15 20c-1 9 -1 19 -1 28c0 8 1 16 2 22c8 -7 54 -21 69 -20c40 0 46 39 50 95c2 24 2 51 2 77v51c0 82 -1 168 -1 258c-32 1 -51 4 -62 12c4 37 7 42 23 46c12 3 24 6 39 9c0 27 1 52 4 75
c11 133 103 165 173 165c41 0 66 -9 75 -19c4 -5 3 -11 3 -16c-1 -8 -2 -15 -5 -22c-4 -9 -7 -15 -12 -20c-3 -1 -12 2 -20 4c-10 3 -27 4 -40 4c-45 0 -86 -20 -90 -106c-1 -21 -1 -43 -1 -65h54c22 0 44 0 57 1c-3 -47 -8 -57 -22 -62c-2 -1 -6 -3 -11 -4
c-21 -2 -48 -2 -79 -2c0 -113 -1 -275 -1 -382z" />
    <glyph glyph-name="ordfeminine" unicode="&#xaa;" horiz-adv-x="293" 
d="M73 600c-1 2 -1 4 -1 7c0 2 1 5 1 7c13 12 51 28 93 29h22c46 -3 61 -34 61 -87v-28c0 -43 -1 -93 -1 -126c0 0 -3 -33 17 -29c-1 -9 -1 -20 -1 -23c-4 -7 -16 -14 -33 -15c-15 0 -31 14 -37 23c-4 -4 -11 -11 -18 -15c-14 -6 -29 -8 -46 -8c-40 0 -78 25 -78 83
c0 77 68 96 106 100h17c8 0 15 0 21 -1v35c0 28 -3 44 -30 44c-22 0 -48 -9 -66 -16c-7 -3 -13 -5 -18 -5c-6 6 -8 17 -9 25zM194 407c2 7 2 16 2 30v44c-4 1 -8 1 -13 1c-7 0 -14 -1 -20 -2c-30 -5 -56 -18 -56 -57c0 -32 14 -43 33 -45h5c18 0 39 9 48 20c0 1 1 5 1 9z
" />
    <glyph glyph-name="ordmasculine" unicode="&#xba;" horiz-adv-x="321" 
d="M293 492c0 -105 -51 -158 -121 -158c-77 0 -120 46 -120 154s50 156 122 156c79 0 119 -51 119 -152zM110 491c0 -87 27 -116 64 -116c33 0 62 29 62 115c0 82 -25 113 -62 113h-2c-33 0 -62 -31 -62 -112z" />
    <glyph glyph-name="logicalnot" unicode="&#xac;" horiz-adv-x="498" 
d="M57 383h365l32 -6v-218c0 -13 -2 -26 -4 -36c-3 -9 -41 -10 -68 -12v202h-346c0 30 5 54 21 70z" />
    <glyph glyph-name="Omega" unicode="&#x2126;" horiz-adv-x="669" 
d="M290 1h-238c6 49 13 72 28 72h104v5c-55 54 -104 136 -104 258c0 229 91 348 257 348c172 0 251 -126 251 -340c0 -126 -50 -211 -107 -266v-5h114c7 -1 16 -4 22 -7c-3 -34 -13 -62 -36 -65h-204l-5 69c76 19 121 106 121 271c0 189 -69 269 -159 269h-1
c-93 0 -156 -87 -156 -280c0 -150 47 -235 117 -258z" />
    <glyph glyph-name="radical" unicode="&#x221a;" horiz-adv-x="535" 
d="M294 97c0 18 1 43 3 60l60 517h181c1 -13 1 -14 1 -15c-3 -41 -13 -54 -34 -54h-83l-79 -604l-54 -6c-22 -2 -41 17 -50 36c-76 157 -152 327 -220 499c8 2 19 3 31 5c32 4 63 -16 76 -46l151 -338c7 -15 11 -44 17 -54z" />
    <glyph glyph-name="Delta" unicode="&#x2206;" horiz-adv-x="573" 
d="M546 0h-445c-45 0 -77 43 -64 85c54 177 116 361 182 542c10 28 36 47 66 47l56 -5c75 -214 150 -442 215 -655c2 -7 -3 -14 -10 -14zM283 600c0 -17 -8 -54 -11 -62l-135 -428c-7 -21 9 -42 31 -42h266c4 0 6 3 5 7l-144 463c-3 8 -12 47 -12 62z" />
    <glyph glyph-name="lozenge" unicode="&#x25ca;" horiz-adv-x="460" 
d="M407 222c-36 -60 -74 -119 -116 -177c-14 -18 -37 -30 -62 -30l-42 7c-47 63 -88 125 -128 191c-10 16 -15 34 -15 53c0 18 5 37 14 53c34 57 71 114 111 170c14 19 37 30 62 30l40 -4c46 -60 89 -122 127 -189c12 -21 18 -44 18 -68c0 -14 -3 -26 -9 -36zM338 283
l-108 186l-107 -184c-6 -10 -6 -22 0 -32l109 -188l106 186c6 10 6 22 0 32z" />
    <glyph glyph-name="macron" unicode="&#xaf;" horiz-adv-x="440" 
d="M131 657h51c43 0 87 0 119 1c7 -2 16 -6 22 -9c-3 -36 -13 -56 -35 -56c-21 -1 -47 -2 -73 -2c-31 0 -62 1 -87 4c-8 1 -14 3 -22 6c5 45 11 57 25 56z" />
    <glyph glyph-name="breve" unicode="&#x2d8;" horiz-adv-x="441" 
d="M218 548c-64 1 -116 31 -141 124c3 4 21 30 34 30c6 0 9 -3 12 -10c23 -53 48 -80 95 -80c46 0 71 27 94 80c3 7 6 10 12 10c13 0 31 -26 34 -30c-25 -93 -77 -124 -140 -124z" />
    <glyph glyph-name="ogonek" unicode="&#x2db;" horiz-adv-x="275" 
d="M123 -110c0 -27 22 -40 78 -58c9 -2 13 -5 13 -13c0 -9 -9 -29 -23 -31c-51 8 -133 32 -133 102c0 56 40 96 163 144c11 5 23 -5 34 -13c-112 -53 -132 -79 -132 -131z" />
    <glyph glyph-name="hungarumlaut" unicode="&#x2dd;" horiz-adv-x="440" 
d="M215 721c9 -2 4 -18 -6 -36l-4 -8c-30 -56 -64 -96 -82 -114c-7 -5 -40 3 -48 8c17 34 48 108 64 139c15 7 43 14 63 14c5 0 11 -1 13 -3zM351 721c9 -2 4 -18 -5 -36l-5 -8c-30 -56 -64 -96 -82 -114c-7 -5 -40 3 -47 8c16 34 47 108 63 139c15 7 43 14 63 14
c5 0 11 -1 13 -3z" />
    <glyph glyph-name="summation" unicode="&#x2211;" horiz-adv-x="383" 
d="M363 70c0 0 1 0 1 -1c-5 -51 -13 -65 -33 -70c-26 -1 -82 -2 -138 -2c-62 0 -114 2 -146 5c-3 14 -5 27 -7 41v28l190 284l-191 237c0 18 0 37 -1 55c11 3 28 14 51 15h262c-3 -48 -8 -61 -22 -67c-24 -4 -53 -4 -92 -4h-109l190 -236l-190 -284c20 -2 72 -3 104 -3
c41 0 91 0 131 2z" />
    <glyph glyph-name="uni0410" unicode="&#x410;" horiz-adv-x="524" 
d="M423 13c-18 55 -30 102 -53 170h-208c-23 -66 -44 -128 -59 -173c-3 -9 -9 -14 -31 -14c-14 0 -42 3 -60 7c1 13 4 24 8 35c56 167 165 458 210 601c3 13 5 21 10 21c6 1 14 4 21 4c11 2 21 2 27 2c8 -2 15 -5 19 -10c45 -136 108 -325 150 -452c28 -79 47 -140 64 -191
c0 -1 1 -3 1 -3c0 -3 -2 -5 -4 -7c-12 -4 -39 -7 -56 -7c-12 0 -23 3 -39 17zM206 324l-22 -70h165c-14 46 -26 90 -39 130c-21 66 -33 112 -42 147c-17 -63 -34 -123 -62 -207z" />
    <glyph glyph-name="uni0401" unicode="&#x401;" horiz-adv-x="385" 
d="M148 71c20 -2 52 -3 84 -3c41 0 91 0 131 2c0 0 1 0 1 -1c-5 -51 -13 -65 -33 -70c-26 -1 -62 -2 -118 -2c-62 0 -114 2 -146 5c-3 14 -5 27 -7 41v479c0 44 0 85 -2 125c11 3 28 14 51 15h242c-3 -48 -8 -61 -22 -67c-24 -4 -53 -4 -92 -4h-89v-204h186
c-7 -63 -15 -72 -39 -72h-147v-244zM75 787c0 34 16 52 50 52c37 0 44 -17 43 -50s-11 -56 -49 -56c-32 0 -44 17 -44 54zM242 787c0 34 16 52 50 52c37 0 44 -17 43 -50s-11 -56 -49 -56c-32 0 -44 17 -44 54z" />
    <glyph glyph-name="uni0406" unicode="&#x406;" horiz-adv-x="207" 
d="M68 -3c-6 0 -9 5 -9 19c0 75 1 194 1 316c0 76 -1 153 -1 213c0 54 -1 87 -2 96c8 20 33 23 82 23c8 0 9 -20 9 -66c0 -79 -1 -176 -1 -264c0 -86 1 -167 1 -231c0 -55 1 -84 1 -94c-8 -10 -32 -12 -81 -12z" />
    <glyph glyph-name="uni0407" unicode="&#x407;" horiz-adv-x="207" 
d="M68 -3c-6 0 -9 5 -9 19c0 75 1 194 1 316c0 76 -1 153 -1 213c0 54 -1 87 -2 96c8 20 33 23 82 23c8 0 9 -20 9 -66c0 -79 -1 -176 -1 -264c0 -86 1 -167 1 -231c0 -55 1 -84 1 -94c-8 -10 -32 -12 -81 -12zM-28 785c0 29 18 52 49 52h1c32 0 47 -23 47 -50
c0 -31 -19 -52 -49 -52s-48 17 -48 50zM139 785c0 29 18 52 50 52c33 0 47 -23 47 -50c0 -31 -19 -52 -49 -52s-48 17 -48 50z" />
    <glyph glyph-name="uni0451" unicode="&#x451;" horiz-adv-x="396" 
d="M238 61c42 0 79 7 111 24c3 -9 5 -28 6 -40c-1 -20 -30 -41 -58 -48c-15 -4 -45 -10 -76 -10c-47 0 -97 9 -136 48c-35 36 -53 99 -53 182c0 193 82 265 192 265c90 0 136 -55 145 -141c1 -15 2 -31 2 -48c0 -21 -2 -43 -6 -59c-10 -8 -43 -19 -70 -23
c-31 -4 -83 -6 -130 -6c-16 0 -29 0 -45 1c1 -110 48 -145 118 -145zM214 417c-3 0 -6 0 -9 -1c-40 -6 -78 -51 -83 -148h38c39 0 80 1 99 3c9 1 17 2 23 6c3 8 5 20 5 33c0 8 -1 15 -1 22c-5 56 -27 85 -72 85zM86 620c0 34 16 52 50 52c37 0 44 -17 43 -50
s-11 -56 -49 -56c-32 0 -44 17 -44 54zM243 620c0 34 16 52 50 52c37 0 44 -17 43 -50s-11 -56 -49 -56c-32 0 -44 17 -44 54z" />
    <glyph glyph-name="uni0454" unicode="&#x454;" horiz-adv-x="369" 
d="M230 411c-55 -5 -96 -48 -106 -139h171c3 -36 1 -65 -23 -65l-149 -1c7 -123 66 -149 128 -149c32 0 65 9 86 19c2 -10 5 -21 5 -28c0 -14 -10 -31 -21 -40c-19 -13 -53 -22 -88 -22c-108 0 -200 40 -200 240c0 106 33 171 73 207c39 37 89 49 137 49
c59 0 102 -27 106 -40c0 -13 -4 -35 -12 -49h-6c-7 0 -17 3 -27 6c-18 8 -39 13 -60 13c-4 0 -8 0 -14 -1z" />
    <glyph glyph-name="uni0456" unicode="&#x456;" horiz-adv-x="202" 
d="M137 472c7 -14 8 -29 8 -71v-340c0 -23 -3 -39 -12 -53c-7 -10 -21 -10 -77 -11c0 51 1 110 1 171v177c0 46 -1 77 -2 103c10 21 41 24 82 24zM52 642c0 37 17 56 53 56c40 0 47 -18 46 -54c-1 -35 -11 -60 -52 -60c-35 0 -47 18 -47 58z" />
    <glyph glyph-name="uni0457" unicode="&#x457;" horiz-adv-x="202" 
d="M137 472c7 -14 8 -29 8 -71v-340c0 -23 -3 -39 -12 -53c-7 -10 -21 -10 -77 -11c0 51 1 110 1 171v177c0 46 -1 77 -2 103c10 21 41 24 82 24zM-22 620c0 34 16 52 50 52c37 0 44 -17 43 -50s-11 -56 -49 -56c-32 0 -44 17 -44 54zM135 620c0 34 16 52 50 52
c37 0 44 -17 43 -50s-11 -56 -49 -56c-32 0 -44 17 -44 54z" />
    <glyph glyph-name="uni044F" unicode="&#x44f;" horiz-adv-x="396" 
d="M54 22c-9 -11 53 -25 53 -25h9c26 2 39 31 50 54c19 43 50 110 88 153c3 1 7 1 12 1h35v-170c0 -12 2 -20 7 -28c7 -8 42 -8 78 -8c-1 43 -2 102 -2 159v246c0 26 0 48 1 68c0 3 0 9 -1 14c-3 2 -7 2 -15 4c-5 1 -21 1 -28 2c-11 1 -27 2 -38 2h-36l-19 -1
c-84 -5 -151 -45 -151 -137c0 -66 55 -126 68 -133c-53 -78 -90 -180 -111 -201zM234 261c-23 9 -45 34 -45 92s30 82 73 82c18 0 31 -1 39 -2v-174c-6 -1 -24 -1 -37 -1c-11 0 -24 0 -30 3z" />
    <glyph glyph-name="uni0402" unicode="&#x402;" horiz-adv-x="539" 
d="M242 363v-169v-57c0 -57 1 -96 2 -128c-12 -10 -27 -12 -81 -12c-6 11 -9 24 -9 43v550h-98c-15 0 -29 1 -42 3c-1 4 -1 7 -1 11c0 14 4 33 8 43c3 8 8 13 12 17c6 0 13 -1 24 -1c22 -1 19 -1 58 -1h276c0 -18 -3 -36 -7 -52c-4 -14 -17 -19 -21 -20c-50 0 -120 2 -121 0
v-43v-118c20 19 38 33 58 41c18 7 40 12 65 12c97 0 121 -55 120 -188l-2 -200c-1 -149 -64 -202 -107 -212c-13 -3 -24 -4 -34 -4c-25 0 -40 8 -47 20c-2 8 0 27 0 27c20 12 48 7 75 26c23 20 26 106 27 166v168c0 19 -2 27 -2 43c-3 63 -23 80 -60 80
c-40 0 -90 -45 -93 -45z" />
    <glyph glyph-name="uni0431" unicode="&#x431;" horiz-adv-x="433" 
d="M202 610c44 6 91 17 106 26c4 -7 7 -18 8 -31c-2 -18 -9 -34 -23 -46c-15 -13 -48 -25 -87 -30c-20 -3 -40 -11 -50 -29c-22 -37 -37 -81 -44 -130c-4 -31 -6 -63 -6 -96c0 -126 28 -204 106 -204c71 0 112 59 112 148c0 71 -31 110 -73 120c-8 1 -16 2 -24 2
c-16 0 -33 -3 -45 -6c-1 7 -1 15 -1 23c0 19 3 39 20 46c12 5 30 10 52 10c5 0 11 -1 17 -1c88 -11 134 -88 134 -184c0 -134 -67 -225 -195 -225c-135 0 -180 83 -182 281c1 111 20 203 68 272c24 34 66 48 107 54z" />
    <glyph glyph-name="uni0414" unicode="&#x414;" horiz-adv-x="603" 
d="M473 71h70v-189l-56 -13c-7 -2 -14 4 -14 12v119h-340v-114c0 -10 -10 -18 -20 -16l-52 12v189h31c36 18 59 43 70 76c28 86 42 206 42 359v141l204 23c35 3 65 -25 65 -60v-539zM388 71v493c0 18 -15 31 -33 30l-67 -12v-118c0 -139 -17 -254 -48 -347
c-5 -19 -15 -34 -26 -46h174z" />
    <glyph glyph-name="uni0412" unicode="&#x412;" 
d="M59 3v518v105v9c0 6 0 13 1 20c5 2 14 3 27 4c28 3 70 6 110 6c131 0 184 -65 184 -149c0 -70 -25 -107 -49 -127c-9 -7 -19 -14 -35 -20c17 -4 30 -9 42 -16c31 -19 78 -54 78 -140c0 -151 -96 -218 -220 -218c-51 1 -87 3 -138 8zM147 324v-258c8 -2 38 -5 53 -5
c65 0 118 46 118 150c0 8 0 14 -1 21c-9 74 -55 94 -120 94c-15 0 -41 0 -50 -2zM147 595v-205c9 2 40 2 59 3c11 0 22 1 34 3c25 12 50 47 50 105c0 6 0 12 -1 17c-6 56 -44 80 -96 80c-12 0 -40 -2 -46 -3z" />
    <glyph glyph-name="uni0411" unicode="&#x411;" horiz-adv-x="453" 
d="M144 589v-144c28 19 68 36 116 36c92 0 163 -60 163 -207c0 -139 -46 -213 -97 -251c-41 -28 -91 -36 -131 -36c-54 0 -100 10 -128 27c-7 15 -9 33 -9 57v523c0 44 -1 16 -2 40c10 23 40 28 84 27h275c0 -18 -3 -36 -7 -52c-4 -14 -17 -19 -21 -20h-243zM204 53
c57 0 125 44 125 207c0 112 -39 151 -105 151c-27 0 -58 -10 -80 -28v-318c13 -7 36 -12 60 -12z" />
    <glyph glyph-name="uni0413" unicode="&#x413;" horiz-adv-x="453" 
d="M56 603c0 14 4 33 8 43c3 8 8 13 12 17c6 0 13 -1 24 -1c22 -1 1 -1 40 -1h275c0 -18 -3 -36 -7 -52c-4 -14 -17 -19 -21 -20h-243v-453c0 -57 1 -96 2 -128c-12 -10 -27 -12 -81 -12c-6 11 -9 24 -9 43v564z" />
    <glyph glyph-name="uni0415" unicode="&#x415;" 
d="M59 3v518v105v9c0 6 0 13 1 20c5 2 14 3 27 4c28 3 70 6 110 6c131 0 184 -65 184 -149c0 -70 -25 -107 -49 -127c-9 -7 -19 -14 -35 -20c17 -4 30 -9 42 -16c31 -19 78 -54 78 -140c0 -151 -96 -218 -220 -218c-51 1 -87 3 -138 8zM147 324v-258c8 -2 38 -5 53 -5
c65 0 118 46 118 150c0 8 0 14 -1 21c-9 74 -55 94 -120 94c-15 0 -41 0 -50 -2zM147 595v-205c9 2 40 2 59 3c11 0 22 1 34 3c25 12 50 47 50 105c0 6 0 12 -1 17c-6 56 -44 80 -96 80c-12 0 -40 -2 -46 -3z" />
    <glyph glyph-name="uni0416" unicode="&#x416;" horiz-adv-x="722" 
d="M510 365c96 -94 186 -318 223 -353c0 -7 -1 -8 -11 -12c-7 -3 -23 -6 -40 -6h-14c-36 4 -53 42 -67 74c-27 59 -74 143 -127 203c-25 28 -47 52 -58 59v-196c0 -56 1 -94 1 -126c-7 -10 -31 -11 -81 -11c-7 11 -9 24 -9 42v291c-11 -7 -33 -31 -58 -59
c-53 -60 -100 -144 -127 -203c-14 -32 -31 -70 -67 -74h-14c-17 0 -33 3 -40 6c-10 4 -11 5 -11 12c37 35 127 259 223 353c-56 74 -125 168 -176 238c-6 7 -13 18 -18 26c-5 9 -7 14 -7 20c0 7 8 13 25 14c10 0 24 1 37 1c8 0 15 0 21 -1c70 -95 145 -204 212 -298v154
c0 56 -1 98 -2 133c8 7 33 11 83 11c7 -13 8 -28 8 -62v-236c67 94 142 203 212 298c6 1 13 1 21 1c13 0 27 -1 37 -1c17 -1 25 -7 25 -14c0 -6 -2 -11 -7 -20c-5 -8 -12 -19 -18 -26c-51 -70 -120 -164 -176 -238z" />
    <glyph glyph-name="uni0417" unicode="&#x417;" 
d="M265 366c85 -16 135 -69 135 -155c0 -146 -107 -225 -242 -225c-53 0 -85 12 -99 24c-13 11 -15 26 -15 40c0 12 2 22 4 31c0 3 0 3 1 2c24 -15 62 -25 104 -25c100 0 156 67 154 151c-1 7 -1 13 -2 19c-8 61 -65 87 -141 87c-11 0 -24 -1 -35 -2c-1 6 -3 11 -4 17
c4 14 8 28 14 38c68 26 134 72 134 135c0 38 -20 73 -78 73c-46 0 -88 -15 -117 -35c-3 -2 -7 -5 -10 -5c-2 0 -4 1 -6 4c-7 13 -10 30 -10 44v5c15 32 80 63 165 63c119 0 150 -73 150 -127c0 -31 -8 -57 -22 -80c-17 -29 -42 -54 -80 -79z" />
    <glyph glyph-name="uni0418" unicode="&#x418;" horiz-adv-x="557" 
d="M261 397l-34 -61c-34 -65 -68 -136 -90 -188v8c0 7 0 14 1 21c3 46 5 122 5 177v245c0 25 -3 40 -9 54c-17 11 -23 11 -76 11c1 -59 2 -128 2 -207v-447c3 -2 24 -16 43 -16c9 0 31 1 41 5c42 77 92 162 143 252l41 75c21 43 44 94 65 139c10 22 15 32 24 52
c-4 -75 -6 -160 -7 -217v-236c0 -26 3 -40 9 -54c11 -12 24 -13 77 -13c-1 58 -2 126 -2 206v427c4 5 12 15 12 17c0 0 0 6 -1 9c-10 6 -52 8 -68 8c-9 0 -20 -3 -30 -9c-22 -42 -55 -100 -92 -163c-18 -31 -35 -62 -54 -95z" />
    <glyph glyph-name="uni0419" unicode="&#x419;" horiz-adv-x="557" 
d="M261 397l-34 -61c-34 -65 -68 -136 -90 -188v8c0 7 0 14 1 21c3 46 5 122 5 177v245c0 25 -3 40 -9 54c-17 11 -23 11 -76 11c1 -59 2 -128 2 -207v-447c3 -2 24 -16 43 -16c9 0 31 1 41 5c42 77 92 162 143 252l41 75c21 43 44 94 65 139c10 22 15 32 24 52
c-4 -75 -6 -160 -7 -217v-236c0 -26 3 -40 9 -54c11 -12 24 -13 77 -13c-1 58 -2 126 -2 206v427c4 5 12 15 12 17c0 0 0 6 -1 9c-10 6 -52 8 -68 8c-9 0 -20 -3 -30 -9c-22 -42 -55 -100 -92 -163c-18 -31 -35 -62 -54 -95zM290 712c-64 1 -116 31 -141 124
c3 4 21 30 34 30c6 0 9 -3 12 -10c23 -53 48 -80 95 -80c46 0 71 27 94 80c3 7 6 10 12 10c13 0 31 -26 34 -30c-25 -93 -77 -124 -140 -124z" />
    <glyph glyph-name="uni041A" unicode="&#x41a;" horiz-adv-x="454" 
d="M68 -3c-7 11 -9 24 -9 42v480c0 56 -1 98 -2 133c8 7 33 11 83 11c7 -13 8 -28 8 -62v-236c67 94 142 203 212 298c6 1 13 1 21 1c13 0 27 -1 37 -1c17 -1 25 -7 25 -14c0 -6 -2 -11 -7 -20c-5 -8 -12 -19 -18 -26c-51 -70 -120 -164 -176 -238c96 -94 186 -318 223 -353
c0 -7 -1 -8 -11 -12c-7 -3 -23 -6 -40 -6h-14c-36 4 -53 42 -67 74c-27 59 -74 143 -127 203c-25 28 -47 52 -58 59v-196c0 -56 1 -94 1 -126c-7 -10 -31 -11 -81 -11z" />
    <glyph glyph-name="uni041B" unicode="&#x41b;" horiz-adv-x="655" 
d="M265 439l4 151h238v-542c0 -21 3 -37 8 -51c49 0 73 2 82 12c-1 39 -2 84 -2 147v332c0 70 1 128 2 176h-338c-49 0 -70 -2 -80 -12c1 -38 2 -87 2 -149c0 -202 -7 -414 -73 -442c-13 -6 -28 -7 -41 -7c-18 0 -34 2 -47 -2c0 0 -6 -18 -6 -27c5 -17 34 -33 81 -33
c137 0 170 184 170 447z" />
    <glyph glyph-name="uni041C" unicode="&#x41c;" horiz-adv-x="664" 
d="M91 639c0 6 1 16 7 19c4 2 11 2 18 3c17 2 35 3 56 3c22 -45 63 -161 98 -263c3 -10 7 -20 10 -31c8 -24 17 -53 25 -77c8 -25 14 -45 21 -63c7 18 15 42 24 64c10 28 21 62 31 87c33 91 65 184 93 259c3 7 5 14 10 18c18 3 50 6 74 6c4 -13 7 -24 9 -46
c9 -124 19 -247 30 -370c10 -91 16 -174 20 -237c-7 -12 -31 -14 -83 -14c-8 12 -11 24 -11 41c-1 20 -4 35 -4 55c-3 35 -6 77 -10 123c-1 20 -3 39 -4 57c-3 37 -3 90 -4 135c-2 40 -2 67 -3 93c0 -1 -1 -1 -1 -2c-21 -66 -51 -157 -70 -209c-23 -61 -46 -126 -69 -190
c-4 -13 -10 -18 -22 -20c-13 -3 -30 -4 -45 -4c-17 56 -48 144 -77 230c-3 9 -15 47 -28 89c-15 49 -29 91 -35 108v-84c-1 -43 -1 -104 -4 -139c-9 -85 -17 -169 -21 -231c-3 -18 -4 -30 -10 -42c-6 -5 -15 -8 -32 -8c-12 0 -27 0 -45 3c-2 0 -3 1 -3 2
c10 163 34 407 55 635z" />
    <glyph glyph-name="uni041D" unicode="&#x41d;" horiz-adv-x="534" 
d="M394 -3c-5 14 -8 30 -8 51v269c-23 -1 -52 -2 -108 -2h-130v-254c0 -24 -3 -39 -13 -54c-8 -10 -24 -10 -77 -10c1 48 2 106 2 177v329c0 62 -1 111 -2 149c10 10 31 12 80 12c8 -12 10 -27 10 -62v-215h238v209c0 25 3 42 10 58c10 9 27 10 80 10
c-1 -48 -2 -106 -2 -176v-332c0 -63 1 -108 2 -147c-9 -10 -33 -12 -82 -12z" />
    <glyph glyph-name="uni041E" unicode="&#x41e;" horiz-adv-x="572" 
d="M130 324c0 193 63 279 156 279h1c90 0 159 -80 159 -269s-59 -275 -157 -275c-93 0 -159 86 -159 265zM290 677c-166 0 -257 -119 -257 -348c0 -212 71 -344 251 -344c173 0 257 129 257 352c0 214 -79 340 -251 340z" />
    <glyph glyph-name="uni041F" unicode="&#x41f;" horiz-adv-x="557" 
d="M118 664h378c0 -59 -2 -128 -2 -207v-447c-3 -2 -24 -16 -43 -16c-9 0 -31 1 -41 5c2 59 2 130 2 205v150v236h-268v-290v-236c0 -26 -3 -40 -9 -54c-10 -12 -24 -13 -77 -13c1 58 2 126 2 206v427c-4 5 -12 15 -12 17c0 0 0 6 1 9c10 6 52 8 69 8z" />
    <glyph glyph-name="ohungarumlaut" unicode="&#x151;" horiz-adv-x="449" 
d="M416 238c0 -167 -82 -252 -193 -252c-124 0 -193 73 -193 246c0 172 81 250 196 250c126 0 190 -83 190 -244zM123 236c0 -138 43 -185 102 -185c53 0 99 46 99 184c0 131 -39 180 -99 180h-2c-53 0 -100 -49 -100 -179zM249 721c9 -2 4 -18 -6 -36l-4 -8
c-30 -56 -64 -96 -82 -114c-7 -5 -40 3 -48 8c17 34 48 108 64 139c15 7 43 14 63 14c5 0 11 -1 13 -3zM385 721c9 -2 4 -18 -5 -36l-5 -8c-30 -56 -64 -96 -82 -114c-7 -5 -40 3 -47 8c16 34 47 108 63 139c15 7 43 14 63 14c5 0 11 -1 13 -3z" />
    <glyph glyph-name="Ohungarumlaut" unicode="&#x150;" horiz-adv-x="572" 
d="M130 324c0 193 63 279 156 279h1c90 0 159 -80 159 -269s-59 -275 -157 -275c-93 0 -159 86 -159 265zM290 677c-166 0 -257 -119 -257 -348c0 -212 71 -344 251 -344c173 0 257 129 257 352c0 214 -79 340 -251 340zM315 880c9 -2 4 -18 -6 -36l-4 -8
c-30 -56 -64 -96 -82 -114c-7 -5 -40 3 -48 8c17 34 48 108 64 139c15 7 43 14 63 14c5 0 11 -1 13 -3zM451 880c9 -2 4 -18 -5 -36l-5 -8c-30 -56 -64 -96 -82 -114c-7 -5 -40 3 -47 8c16 34 47 108 63 139c15 7 43 14 63 14c5 0 11 -1 13 -3z" />
    <glyph glyph-name="Uhungarumlaut" unicode="&#x170;" horiz-adv-x="552" 
d="M280 57c65 0 92 12 108 22c14 68 20 155 20 238l1 274c0 26 4 45 10 62c15 10 24 11 76 11c-1 -52 -2 -114 -2 -188v-159c0 -108 -9 -195 -27 -270c-39 -47 -114 -62 -192 -62c-153 0 -198 90 -212 213c-3 33 -5 68 -5 106v190c0 65 -1 116 -2 157c8 10 32 13 82 13
c9 -16 10 -35 10 -75v-277c0 -42 2 -78 7 -111c15 -88 47 -144 126 -144zM314 880c9 -2 4 -18 -6 -36l-4 -8c-30 -56 -64 -96 -82 -114c-7 -5 -40 3 -48 8c17 34 48 108 64 139c15 7 43 14 63 14c5 0 11 -1 13 -3zM450 880c9 -2 4 -18 -5 -36l-5 -8
c-30 -56 -64 -96 -82 -114c-7 -5 -40 3 -47 8c16 34 47 108 63 139c15 7 43 14 63 14c5 0 11 -1 13 -3z" />
    <glyph glyph-name="uhungarumlaut" unicode="&#x171;" horiz-adv-x="455" 
d="M143 450c6 -23 11 -45 11 -96l-10 -183c0 -90 28 -109 76 -109c35 -2 71 14 88 35v318c0 21 2 34 11 47c12 10 23 9 77 10c-1 -54 -2 -118 -2 -195v-170c0 -32 5 -55 12 -75c-5 -6 -18 -13 -40 -23c-3 -1 -6 -1 -7 -1c-18 0 -27 13 -31 30c-24 -20 -47 -32 -69 -39
c-21 -7 -40 -11 -62 -11c-116 5 -139 64 -141 170l10 209c0 37 -6 64 -14 88c6 7 21 16 47 28c4 1 7 1 8 1c22 0 32 -18 36 -34zM256 721c9 -2 4 -18 -6 -36l-4 -8c-30 -56 -64 -96 -82 -114c-7 -5 -40 3 -48 8c17 34 48 108 64 139c15 7 43 14 63 14c5 0 11 -1 13 -3z
M392 721c9 -2 4 -18 -5 -36l-5 -8c-30 -56 -64 -96 -82 -114c-7 -5 -40 3 -47 8c16 34 47 108 63 139c15 7 43 14 63 14c5 0 11 -1 13 -3z" />
    <glyph glyph-name="uni0420" unicode="&#x420;" horiz-adv-x="423" 
d="M59 202l-2 432c0 8 -1 19 -1 29c5 3 14 6 26 7h3c31 2 67 3 103 3c134 0 215 -58 215 -206c0 -144 -97 -191 -164 -199c-22 0 -53 2 -53 42c0 5 7 10 15 10c48 0 106 36 106 151c0 97 -51 130 -111 130c-23 0 -39 0 -50 -2v-254v-188l1 -111c0 -18 -3 -29 -10 -39
c-8 -9 -21 -10 -48 -10h-32c1 58 2 125 2 205z" />
    <glyph glyph-name="uni0421" unicode="&#x421;" horiz-adv-x="465" 
d="M308 677c83 0 128 -32 137 -50c0 -22 -6 -39 -14 -50h-4c-7 -1 -16 4 -28 9c-13 6 -29 11 -47 14c-10 1 -20 2 -32 2c-7 0 -14 0 -21 -1c-92 -8 -171 -88 -171 -281c0 -176 67 -255 184 -255c48 0 98 15 120 29c4 -7 7 -18 8 -31c-2 -18 -9 -34 -23 -46
c-19 -16 -65 -32 -119 -32c-162 0 -264 79 -264 329c0 129 28 224 86 287c54 58 120 76 188 76z" />
    <glyph glyph-name="uni0422" unicode="&#x422;" horiz-adv-x="458" 
d="M423 590h-151v-453c0 -57 1 -96 2 -128c-12 -10 -27 -12 -81 -12c-6 11 -9 24 -9 43v550h-128c-15 0 -29 1 -42 3c-1 4 -1 7 -1 11c0 14 4 33 8 43c3 8 8 13 12 17c6 0 13 -1 24 -1c22 -1 49 -1 88 -1h306c0 -18 -3 -36 -7 -52c-4 -14 -17 -19 -21 -20z" />
    <glyph glyph-name="uni0423" unicode="&#x423;" horiz-adv-x="391" 
d="M98 660c6 0 16 -24 20 -40c10 -32 38 -124 57 -194c16 -61 30 -124 33 -133c5 14 20 77 34 138c17 76 37 155 51 217c8 7 14 9 30 9c10 0 24 -1 44 -2c3 -6 5 -13 5 -21s-2 -17 -5 -27c-27 -111 -77 -287 -131 -437c-55 -141 -106 -184 -150 -184c-47 0 -71 16 -76 33
c0 9 6 27 6 27c22 7 48 -4 79 9c27 14 58 95 72 154c-2 2 -4 3 -5 5c-9 13 -13 25 -20 46c-9 30 -79 261 -121 377c7 17 25 23 77 23z" />
    <glyph glyph-name="uni0424" unicode="&#x424;" horiz-adv-x="757" 
d="M724 328c0 -162 -112 -242 -303 -250c0 -39 1 -60 1 -69c-8 -10 -32 -12 -81 -12c-6 0 -9 5 -9 19v62c-191 13 -300 97 -300 256c0 167 114 240 300 250c-1 31 -1 51 -2 57c8 20 33 23 82 23c8 0 9 -20 9 -66v-14c199 -12 303 -101 303 -256zM106 329
c0 -90 71 -146 226 -156c1 50 1 104 1 159c0 53 -1 107 -1 155c-153 -9 -226 -72 -226 -158zM650 331v1c0 84 -71 144 -230 154v-152c0 -57 0 -112 1 -161c160 9 229 74 229 158z" />
    <glyph glyph-name="uni0425" unicode="&#x425;" horiz-adv-x="497" 
d="M484 11c1 -2 1 -2 1 -5c0 -1 0 -1 -1 -1c-10 -9 -43 -9 -69 -9c-13 0 -26 2 -39 9c-19 39 -39 77 -61 119c-23 46 -48 98 -72 142c-21 -39 -48 -92 -75 -142c-24 -42 -47 -83 -63 -115c-6 -9 -13 -11 -22 -11s-31 0 -49 4c-11 1 -16 3 -23 4c50 94 120 216 186 332
c-51 101 -123 227 -163 307c0 4 1 8 8 11c21 4 49 8 82 8c8 -7 14 -17 24 -36c16 -28 30 -55 43 -80c23 -49 45 -95 66 -134c22 39 46 91 72 141c17 31 33 63 48 92l4 9c3 4 9 7 20 7c14 0 38 -3 66 -7c-2 -9 -4 -17 -7 -27c-35 -70 -95 -175 -158 -281
c88 -153 142 -256 182 -337z" />
    <glyph glyph-name="uni0426" unicode="&#x426;" horiz-adv-x="581" 
d="M561 48c1 -55 4 -128 6 -174c-1 -7 -5 -16 -8 -21c-37 5 -66 18 -67 41c-3 30 -5 71 -5 110c-17 -3 -39 -4 -50 -4h-379c1 59 2 128 2 207v447c3 2 24 16 43 16c9 0 31 -1 41 -5c-2 -49 -2 -107 -2 -168s0 -125 1 -187v-235h267v525c0 26 3 40 9 54c11 12 24 13 77 13
c-1 -58 -2 -126 -2 -206v-382c46 -8 68 -17 67 -31z" />
    <glyph glyph-name="uni0427" unicode="&#x427;" horiz-adv-x="452" 
d="M311 253v-190c0 -42 2 -55 8 -66c42 0 68 4 80 26c-1 23 -2 52 -2 94v344c0 82 1 150 2 208c-53 0 -65 0 -78 -10c-8 -14 -10 -31 -10 -52v-284c-15 -15 -47 -18 -79 -18c-17 0 -33 1 -47 1c-20 0 -37 15 -39 35v282c0 19 -2 34 -7 46c-61 0 -72 -2 -82 -12v-138v-99
c0 -133 1 -188 98 -188c49 1 135 -2 156 21z" />
    <glyph glyph-name="uni0428" unicode="&#x428;" horiz-adv-x="768" 
d="M705 34c4 -5 12 -15 12 -17c0 0 0 -6 -1 -9c-10 -6 -52 -8 -69 -8h-589c0 59 2 128 2 207v447c3 2 24 16 43 16c9 0 31 -1 41 -5c-2 -59 -2 -130 -2 -205v-150v-236h198c1 41 1 85 1 133v447c3 2 24 16 43 16c9 0 31 -1 41 -5c-2 -59 -2 -130 -2 -205v-150v-236h198v526
c0 26 3 40 9 54c10 12 24 13 77 13c-1 -58 -2 -126 -2 -206v-427z" />
    <glyph glyph-name="uni0429" unicode="&#x429;" horiz-adv-x="792" 
d="M773 48c1 -55 4 -128 6 -174c-1 -7 -5 -16 -8 -21c-37 5 -66 18 -67 41c-3 30 -5 71 -5 109c-17 -2 -40 -3 -52 -3h-589c0 59 2 128 2 207v447c3 2 24 16 43 16c9 0 31 -1 41 -5c-2 -59 -2 -130 -2 -205v-150v-236h198c1 41 1 85 1 133v447c3 2 24 16 43 16
c9 0 31 -1 41 -5c-2 -59 -2 -130 -2 -205v-150v-236h198v526c0 26 3 40 9 54c10 12 24 13 77 13c-1 -58 -2 -126 -2 -206v-382c45 -8 69 -17 68 -31z" />
    <glyph glyph-name="uni042A" unicode="&#x42a;" horiz-adv-x="531" 
d="M338 482c92 0 163 -60 163 -207c0 -139 -46 -213 -97 -251c-41 -28 -91 -36 -131 -36c-54 0 -100 10 -128 27c-7 15 -9 33 -9 57v518h-80c-15 0 -29 1 -42 3c-1 4 -1 7 -1 11c0 14 4 33 8 43c3 8 9 13 13 17c5 0 12 -1 24 -1c21 -1 49 -1 88 -1h54h17h7h26
c0 -18 -3 -36 -7 -52c-4 -14 -17 -19 -21 -20v-144c28 19 68 36 116 36zM282 54c57 0 125 44 125 207c0 112 -39 151 -105 151c-27 0 -58 -10 -80 -28v-318c13 -7 36 -12 60 -12z" />
    <glyph glyph-name="uni042B" unicode="&#x42b;" horiz-adv-x="626" 
d="M567 102c0 -55 2 -84 2 -94c-9 -10 -33 -12 -82 -12c-5 0 -8 5 -8 19v316v213c0 54 -1 87 -3 96c9 20 34 23 83 23c7 0 8 -20 8 -66c0 -79 -1 -176 -1 -264c0 -86 1 -167 1 -231zM260 482c92 0 163 -60 163 -208c0 -138 -46 -212 -97 -250c-41 -28 -91 -37 -131 -37
c-54 0 -100 10 -128 27c-7 16 -9 34 -9 57v469c0 43 -1 72 -2 96c10 24 39 27 80 27c6 -14 8 -31 8 -76v-142c28 20 68 37 116 37zM204 53c57 0 125 45 125 207c0 112 -39 151 -105 151c-27 0 -58 -9 -80 -28v-317c13 -7 36 -13 60 -13z" />
    <glyph glyph-name="uni042C" unicode="&#x42c;" horiz-adv-x="453" 
d="M67 14c-7 16 -9 34 -9 57v512c0 44 -1 73 -2 97c10 23 39 27 80 27c6 -14 8 -31 8 -76v-186c28 20 68 37 116 37c92 0 163 -60 163 -208c0 -138 -46 -212 -97 -250c-41 -28 -91 -37 -131 -37c-54 0 -100 10 -128 27zM144 383v-317c13 -7 36 -13 60 -13
c57 0 125 45 125 207c0 112 -39 151 -105 151c-27 0 -58 -9 -80 -28z" />
    <glyph glyph-name="uni042D" unicode="&#x42d;" horiz-adv-x="607" 
d="M231 677c191 0 346 -154 346 -346c0 -191 -155 -346 -346 -346c-44 0 -86 9 -125 24c-31 12 -49 44 -49 78c0 10 3 20 8 29c46 -36 103 -57 166 -57c139 0 237 105 251 239h-297c-24 0 -38 29 -35 65h332c-13 136 -112 240 -251 240c-40 0 -79 -8 -115 -25
c-15 -7 -32 -14 -41 -13c-10 14 -18 37 -18 65c51 30 110 47 174 47z" />
    <glyph glyph-name="uni042E" unicode="&#x42e;" horiz-adv-x="739" 
d="M457 677c172 0 251 -126 251 -340c0 -223 -84 -352 -257 -352c-171 0 -244 119 -251 312l-53 1c0 -72 1 -140 1 -195s1 -84 1 -94c-8 -10 -32 -12 -81 -12c-6 0 -9 5 -9 19c0 75 1 194 1 316c0 76 -1 153 -1 213c0 54 -1 87 -2 96c8 20 33 23 82 23c8 0 9 -20 9 -66
c0 -70 -1 -155 -1 -235l53 -1c9 208 99 315 257 315zM456 59c98 0 157 86 157 275s-69 269 -159 269h-1c-93 0 -156 -86 -156 -279c0 -179 66 -265 159 -265z" />
    <glyph glyph-name="uni042F" unicode="&#x42f;" horiz-adv-x="453" 
d="M-11 14c-12 -16 51 -18 51 -18h13c36 3 54 42 68 74c27 59 73 143 125 202c5 1 10 2 17 2h44v-226c0 -17 3 -28 10 -38c10 -12 31 -11 80 -11c-1 59 -2 126 -2 205v338c0 36 0 66 1 94c0 5 0 12 -1 19c-4 3 -10 4 -21 6c-7 1 -12 2 -21 3c-15 1 -28 2 -43 2
c-17 0 -33 1 -49 0l-26 -1c-116 -6 -176 -62 -176 -188c0 -91 78 -170 96 -180c-73 -107 -137 -255 -166 -283zM215 346c-32 12 -62 53 -62 133c0 81 41 122 101 122c24 0 43 -2 53 -3v-255c-8 -1 -32 -1 -50 -1c-16 0 -33 0 -42 4z" />
    <glyph glyph-name="uni0430" unicode="&#x430;" horiz-adv-x="395" 
d="M57 412c-1 3 -1 7 -1 11s1 8 2 11c21 20 81 46 148 48c16 0 18 0 35 -1c74 -5 98 -54 98 -139v-45c0 -69 -2 -149 -2 -202c0 0 -4 -52 28 -46c-1 -14 -1 -31 -1 -37c-8 -11 -27 -22 -53 -23c-24 0 -50 22 -60 36c-6 -6 -18 -17 -29 -23c-22 -11 -46 -13 -73 -13
c-64 0 -125 40 -125 132c0 123 109 154 169 160c10 1 19 1 28 1c13 0 24 -1 33 -3v57c0 45 -5 70 -48 70c-35 0 -76 -14 -105 -26c-11 -5 -21 -8 -29 -8c-9 10 -13 28 -15 40zM252 103c2 12 2 27 2 48v71c-6 1 -13 1 -20 1c-12 0 -23 -1 -33 -2c-48 -8 -89 -29 -89 -92
c0 -51 22 -69 53 -71h7c30 0 63 14 77 31c1 2 2 8 3 14z" />
    <glyph glyph-name="uni0432" unicode="&#x432;" horiz-adv-x="363" 
d="M275 270c26 -17 61 -45 61 -110c0 -54 -17 -96 -49 -126c-29 -26 -70 -40 -119 -40c-37 1 -63 2 -99 6l-10 1v459c0 5 0 10 1 16l1 6l6 3c5 2 11 3 22 3c10 1 43 5 79 5c47 0 83 -11 108 -34c22 -20 34 -49 34 -84c0 -44 -13 -78 -39 -99c-1 0 -2 -2 -4 -2
c3 -2 5 -3 8 -4zM133 432v-146c6 1 28 1 42 2c7 0 15 1 24 2c17 9 35 34 35 75c0 4 0 8 -1 12c-4 40 -31 57 -68 57c-8 0 -28 -2 -32 -2zM170 52c46 0 84 33 84 107c0 6 0 10 -1 15c-6 52 -39 67 -85 67c-11 0 -29 0 -35 -2v-183c5 -1 27 -4 37 -4z" />
    <glyph glyph-name="uni0450" unicode="&#x450;" horiz-adv-x="396" 
d="M238 61c42 0 79 7 111 24c3 -9 5 -28 6 -40c-1 -20 -30 -41 -58 -48c-15 -4 -45 -10 -76 -10c-47 0 -97 9 -136 48c-35 36 -53 99 -53 182c0 193 82 265 192 265c90 0 136 -55 145 -141c1 -15 2 -31 2 -48c0 -21 -2 -43 -6 -59c-10 -8 -43 -19 -70 -23
c-31 -4 -83 -6 -130 -6c-16 0 -29 0 -45 1c1 -110 48 -145 118 -145zM214 417c-3 0 -6 0 -9 -1c-40 -6 -78 -51 -83 -148h38c39 0 80 1 99 3c9 1 17 2 23 6c3 8 5 20 5 33c0 8 -1 15 -1 22c-5 56 -27 85 -72 85zM174 729c-22 0 -51 -28 -51 -47c2 -3 5 -6 11 -12
c36 -36 90 -88 118 -115c14 3 31 21 31 37c0 2 0 5 -1 8c-32 46 -94 129 -108 129z" />
    <glyph glyph-name="uni0433" unicode="&#x433;" horiz-adv-x="370" 
d="M75 492c17 -1 33 -2 50 -2h207v-11c0 -12 -2 -25 -5 -40h-1c-3 -13 -14 -20 -23 -22h-1h-163v-311c0 -39 1 -67 2 -90v-6l-4 -3c-12 -10 -25 -11 -65 -11h-7l-3 6c-5 9 -8 21 -8 36v400c0 12 3 27 7 35c3 8 7 12 11 16z" />
    <glyph glyph-name="uni0434" unicode="&#x434;" horiz-adv-x="486" 
d="M376 74h50v-155l-49 -11h1c-6 -2 -12 0 -17 3c-4 4 -8 10 -8 17v72h-218v-69c0 -7 -3 -13 -9 -18c-5 -4 -12 -6 -19 -5l-46 11v155h30c22 11 36 26 42 46c20 60 30 144 30 251v111l154 17h1c15 1 30 -4 41 -14s17 -25 17 -40v-371zM305 62v350c0 13 -11 22 -24 22l-47 -9
v-84c0 -98 -13 -180 -35 -246c-3 -13 -10 -24 -18 -33h124z" />
    <glyph glyph-name="uni0435" unicode="&#x435;" horiz-adv-x="398" 
d="M238 61c42 0 79 7 111 24c3 -9 5 -28 6 -40c-1 -20 -30 -41 -58 -48c-15 -4 -45 -10 -76 -10c-47 0 -97 9 -136 48c-35 36 -53 99 -53 182c0 193 82 265 192 265c90 0 136 -55 145 -141c1 -15 2 -31 2 -48c0 -21 -2 -43 -6 -59c-10 -8 -43 -19 -70 -23
c-31 -4 -83 -6 -130 -6c-16 0 -29 0 -45 1c1 -110 48 -145 118 -145zM214 417c-3 0 -6 0 -9 -1c-40 -6 -78 -51 -83 -148h38c39 0 80 1 99 3c9 1 17 2 23 6c3 8 5 20 5 33c0 8 -1 15 -1 22c-5 56 -27 85 -72 85z" />
    <glyph glyph-name="uni0436" unicode="&#x436;" horiz-adv-x="530" 
d="M456 487h16h16h11c19 -1 26 -11 26 -19c0 -6 -2 -12 -6 -19s-9 -14 -13 -19c-27 -37 -78 -107 -121 -163c41 -43 79 -114 109 -171c19 -35 35 -65 44 -74l3 -3v-3c0 -11 -5 -14 -13 -17c-7 -3 -20 -5 -32 -5h-11c-31 3 -45 35 -55 58c-19 41 -52 100 -88 142
c-7 7 -17 19 -26 27v-119v-57l1 -35l-2 -2c-8 -11 -26 -12 -65 -12h-5l-2 4c-7 11 -8 23 -8 35v186c-9 -8 -19 -20 -26 -27c-36 -42 -69 -101 -88 -142c-10 -23 -24 -55 -55 -58h-11c-12 0 -25 2 -32 5c-8 3 -13 6 -13 17v3l3 3c9 9 25 39 43 74c31 57 69 128 109 171
c-40 53 -87 118 -120 163c-4 5 -9 12 -13 19c-3 7 -7 13 -7 19c0 8 7 18 27 19h11h15h17l3 -1l2 -3c33 -44 67 -93 100 -140c0 0 20 -27 35 -49v82c0 39 -1 69 -2 94v4l4 3c5 5 17 10 64 10h6l2 -5c6 -11 7 -24 7 -48v-140c15 22 34 49 34 49c34 47 68 96 100 140l3 3z" />
    <glyph glyph-name="uni0437" unicode="&#x437;" horiz-adv-x="364" 
d="M50 429l1 2c6 13 18 22 29 29c33 19 75 25 113 22c30 -2 61 -12 81 -36c17 -20 23 -45 23 -70c-2 -42 -26 -77 -58 -103c44 -15 75 -51 80 -98c4 -37 -3 -77 -23 -109c-19 -31 -49 -54 -83 -66c-24 -9 -49 -14 -75 -14c-16 0 -31 2 -46 6c-15 3 -32 10 -41 24
c-9 15 -7 35 -4 51c1 9 10 16 19 10c10 -6 22 -10 33 -13c11 -2 22 -3 33 -3c15 0 30 2 44 7c41 16 59 58 54 101c-4 27 -26 42 -51 48c-11 2 -22 3 -33 3c-13 0 -26 -1 -39 -1c-2 8 -3 16 -5 24c3 12 7 25 14 36l3 1c39 15 98 47 87 98c-7 30 -41 30 -66 26
c-17 -3 -35 -9 -50 -18c-10 -7 -22 -14 -31 -1c-8 13 -9 29 -9 44z" />
    <glyph glyph-name="uni0438" unicode="&#x438;" horiz-adv-x="453" 
d="M311 484c9 4 19 7 27 7c2 0 42 0 54 -7l4 -2l1 -4c1 -3 1 -8 1 -10c0 -4 -2 -7 -8 -15v-300c0 -56 0 -103 1 -146v-11h-11c-39 0 -51 1 -63 13c-7 9 -9 27 -9 45v168c1 36 2 69 3 99c-4 -8 -8 -17 -8 -17c-11 -23 -22 -47 -32 -68l-30 -54l-38 -67
c-22 -39 -44 -77 -63 -112l-2 -3l-4 -2c-10 -4 -31 -4 -33 -4c-15 0 -30 9 -36 13l-5 3v324c0 54 -1 102 -2 146v11h11c38 0 45 0 60 -9l3 -2l1 -3c5 -12 8 -24 8 -43v-174c0 -28 -1 -61 -2 -90c12 27 26 55 41 83l24 43l18 32l20 36c29 49 51 88 65 115l2 3z" />
    <glyph glyph-name="uni0439" unicode="&#x439;" horiz-adv-x="453" 
d="M311 484c9 4 19 7 27 7c2 0 42 0 54 -7l4 -2l1 -4c1 -3 1 -8 1 -10c0 -4 -2 -7 -8 -15v-300c0 -56 0 -103 1 -146v-11h-11c-39 0 -51 1 -63 13c-7 9 -9 27 -9 45v168c1 36 2 69 3 99c-4 -8 -8 -17 -8 -17c-11 -23 -22 -47 -32 -68l-30 -54l-38 -67
c-22 -39 -44 -77 -63 -112l-2 -3l-4 -2c-10 -4 -31 -4 -33 -4c-15 0 -30 9 -36 13l-5 3v324c0 54 -1 102 -2 146v11h11c38 0 45 0 60 -9l3 -2l1 -3c5 -12 8 -24 8 -43v-174c0 -28 -1 -61 -2 -90c12 27 26 55 41 83l24 43l18 32l20 36c29 49 51 88 65 115l2 3zM228 565
c-64 1 -116 31 -141 124c3 4 21 30 34 30c6 0 9 -3 12 -10c23 -53 48 -80 95 -80c46 0 71 27 94 80c3 7 6 10 12 10c13 0 31 -26 34 -30c-25 -93 -77 -124 -140 -124z" />
    <glyph glyph-name="uni043A" unicode="&#x43a;" horiz-adv-x="358" 
d="M322 -6c-4 0 -7 0 -11 1c-32 3 -46 35 -56 58c-19 42 -53 101 -89 142c-6 6 -14 16 -22 24v-114v-57l1 -36l-2 -3c-9 -12 -28 -12 -67 -12h-6l-3 5c-7 11 -8 23 -8 35v341c0 39 -1 69 -1 94l-1 5l4 4c7 5 19 10 66 10h7l3 -5c6 -12 7 -25 7 -49v-134c15 21 31 44 31 44
c33 47 67 96 100 140l3 3l4 1c5 1 11 1 17 1h15l12 -1c20 -1 28 -11 28 -21c0 -6 -3 -12 -7 -19s-9 -14 -13 -20c-33 -45 -80 -109 -120 -161c41 -43 78 -113 108 -171c18 -33 35 -64 44 -73l3 -3v-5c0 -11 -6 -15 -14 -18s-21 -6 -33 -6z" />
    <glyph glyph-name="uni043B" unicode="&#x43b;" horiz-adv-x="508" 
d="M87 61c12 6 28 27 37 102c8 60 9 136 9 202c0 47 -1 83 -2 106v5l3 3c11 10 29 12 65 12h240h11v-12c-1 -33 -2 -74 -2 -124v-236c0 -45 1 -77 2 -104v-4l-3 -4c-9 -10 -27 -12 -66 -12h-8l-3 7c-4 12 -6 25 -6 40v374h-147c-1 -17 -3 -96 -3 -96
c0 -163 -16 -328 -132 -328c-35 0 -62 12 -68 31v1v2c0 8 4 20 5 23l2 5l5 2c9 2 18 2 27 2l10 -1c7 0 17 1 24 4z" />
    <glyph glyph-name="uni043C" unicode="&#x43c;" horiz-adv-x="516" 
d="M383 38l-3 39l-3 35l-4 52l-1 22l-2 18c-1 20 -2 46 -2 71l-1 25v5c-11 -35 -22 -69 -31 -92c-13 -34 -26 -72 -39 -108l-10 -27v1c-4 -13 -11 -19 -24 -22c-11 -2 -24 -3 -34 -3h-8l-2 8l-36 108l-19 55c-2 7 -10 34 -20 63l-3 12c-1 -8 -1 -19 -1 -19
c0 -26 0 -54 -2 -72c-7 -69 -12 -124 -15 -164c0 -2 -1 -5 -1 -7c-2 -10 -3 -18 -7 -27l-1 -2l-2 -1c-7 -6 -16 -9 -30 -9c-9 0 -20 0 -33 3c-7 1 -12 5 -12 12c6 94 19 229 31 359l8 93v-1c0 15 6 21 11 23c4 2 8 2 12 3c12 2 31 3 46 3h7l3 -7c12 -26 35 -86 70 -188l3 -9
c1 -4 3 -8 4 -13l9 -27s9 -27 9 -28c0 0 4 -13 5 -15c2 6 4 11 6 17l7 20c5 15 10 29 15 41l29 81c13 37 25 72 37 103c0 1 1 2 1 4c2 4 4 10 10 14l2 2h2c13 2 37 5 55 5h8l2 -8c3 -10 6 -18 7 -35c6 -86 14 -174 21 -263c8 -68 12 -129 15 -168v-4l-2 -3
c-8 -13 -28 -15 -68 -15h-6l-3 5c-7 10 -9 20 -10 35z" />
    <glyph glyph-name="uni043D" unicode="&#x43d;" horiz-adv-x="435" 
d="M299 478c8 13 29 14 67 14h11l-1 -11c0 -34 -1 -75 -1 -125v-235c0 -46 1 -78 1 -105v-4l-2 -3c-11 -11 -28 -12 -67 -12h-7l-3 7c-4 12 -6 25 -6 40v180c-15 -1 -34 -2 -66 -2h-81v-169c0 -17 -2 -31 -12 -44c-9 -11 -22 -12 -63 -12h-11v11c0 34 1 75 1 125v234
c0 45 -1 80 -1 105v5l3 3c11 11 29 12 64 12h6l4 -5c7 -11 9 -24 9 -50v-142h147v138c0 19 2 33 8 45z" />
    <glyph glyph-name="uni043E" unicode="&#x43e;" horiz-adv-x="443" 
d="M414 238c0 -167 -82 -252 -193 -252c-124 0 -193 73 -193 246c0 172 81 250 196 250c126 0 190 -83 190 -244zM121 236c0 -138 43 -185 102 -185c53 0 99 46 99 184c0 131 -39 180 -99 180h-2c-53 0 -100 -49 -100 -179z" />
    <glyph glyph-name="uni043F" unicode="&#x43f;" horiz-adv-x="452" 
d="M132 13c-10 -16 -26 -16 -63 -16h-11v11c1 43 2 91 2 146v300c-7 8 -9 11 -9 16c0 1 0 6 1 9l1 4l4 2c12 7 53 8 55 8h268h11v-11c0 -20 0 -41 -1 -63c0 -27 -1 -54 -1 -84v-318v-6l-4 -3c-8 -5 -22 -13 -37 -13c-2 0 -23 0 -33 4l-7 3v8c1 42 1 92 1 145v263h-168v-362
c0 -19 -1 -32 -9 -43z" />
    <glyph glyph-name="uni0440" unicode="&#x440;" horiz-adv-x="458" 
d="M144 -197c-7 -5 -29 -9 -51 -9c-11 0 -22 1 -31 3c-3 17 -3 50 -3 100v467c0 32 -4 55 -11 75c4 6 18 13 39 23c4 1 7 1 7 1c18 0 28 -13 32 -30c24 20 46 32 69 39c21 7 38 11 60 11c95 0 172 -62 172 -216c0 -126 -36 -203 -87 -244c-36 -29 -74 -37 -105 -37
c-39 0 -72 13 -89 26v-166c0 -16 0 -30 -2 -43zM220 53c46 0 113 41 113 207c0 107 -36 150 -99 150c-35 0 -67 -21 -88 -39v-286c14 -18 43 -32 74 -32z" />
    <glyph glyph-name="uni0441" unicode="&#x441;" horiz-adv-x="368" 
d="M349 442c0 -13 -5 -35 -13 -49h-5c-7 0 -17 3 -27 6c-18 8 -40 13 -60 13c-5 0 -9 0 -14 -1c-63 -5 -108 -60 -108 -180c0 -144 63 -174 128 -174c33 0 65 9 86 19c3 -10 6 -21 6 -28c-1 -14 -10 -31 -22 -40c-19 -13 -52 -22 -88 -22c-108 0 -200 40 -200 240
c0 106 34 171 73 207c39 37 89 49 137 49c59 0 103 -27 107 -40z" />
    <glyph glyph-name="uni0442" unicode="&#x442;" horiz-adv-x="364" 
d="M316 419c12 2 21 11 24 23c4 14 5 27 5 39v11h-228c-27 0 -45 1 -62 1h-22l-3 -3c-3 -3 -8 -8 -11 -16c-3 -7 -6 -22 -6 -34c0 -3 0 -6 1 -11l1 -7l8 -1c9 -1 20 -2 31 -2h80v-379c0 -16 2 -27 8 -36l3 -6h6c40 0 53 1 65 11l4 3v6c-1 23 -2 51 -2 90v311h98z" />
    <glyph glyph-name="uni0443" unicode="&#x443;" horiz-adv-x="391" 
d="M98 475c6 0 16 -24 20 -40c10 -32 38 -124 57 -194c16 -61 30 -124 33 -133c5 14 20 77 34 138c17 76 37 155 51 217c8 7 14 9 30 9c10 0 24 -1 44 -2c3 -6 5 -13 5 -21s-2 -17 -5 -27c-27 -111 -77 -287 -131 -437c-55 -141 -106 -184 -150 -184c-47 0 -71 16 -76 33
c0 9 6 27 6 27c22 7 48 -4 79 9c27 14 58 95 72 154c-2 2 -4 3 -5 5c-9 13 -13 25 -20 46c-9 30 -79 261 -121 377c7 17 25 23 77 23z" />
    <glyph glyph-name="uni0444" unicode="&#x444;" horiz-adv-x="711" 
d="M314 324l-1 -213c-20 -17 -45 -34 -73 -43c-46 -15 -113 24 -113 190c0 89 26 136 70 136c9 0 19 -2 29 -6c32 -12 65 -38 88 -64zM400 41c17 -19 49 -43 88 -50c31 -5 69 1 105 30c51 41 87 118 87 244c0 77 -19 131 -50 165c-31 35 -75 53 -122 44
c-45 -9 -84 -36 -108 -75c0 9 1 109 1 135c0 51 -1 72 -9 71c-49 0 -73 -5 -81 -29c1 -11 2 -107 2 -177c-24 39 -63 66 -108 75c-47 9 -91 -9 -122 -44c-31 -34 -50 -88 -50 -165c0 -126 36 -203 87 -244c36 -29 74 -35 105 -30c39 7 71 31 88 50c1 -39 1 -76 1 -110v-87
c0 -16 0 -30 2 -43c7 -5 29 -9 51 -9c11 0 22 1 31 3c3 17 3 50 3 100c0 0 -1 103 -1 146zM400 111l-1 213c24 26 57 52 88 64c10 4 20 6 29 6c44 0 70 -47 70 -136c0 -166 -67 -205 -112 -190c-28 9 -54 26 -74 43z" />
    <glyph glyph-name="uni0445" unicode="&#x445;" horiz-adv-x="421" 
d="M410 4c-11 -4 -33 -6 -56 -7c-11 0 -27 2 -47 7c-10 17 -23 37 -36 59c-21 36 -48 84 -66 118c-24 -44 -56 -105 -98 -169c-7 -14 -16 -15 -46 -15c-14 0 -31 1 -46 3l9 24c41 66 89 141 138 219c-37 63 -96 156 -128 210l-3 9c7 4 34 13 52 13h33c12 -10 24 -32 41 -60
c19 -33 44 -78 62 -108c14 25 34 62 52 92c12 20 24 38 36 58c9 13 13 17 34 17c15 0 38 -3 58 -7c-4 -8 -7 -17 -11 -25c-38 -57 -84 -129 -125 -192c45 -75 96 -158 142 -234z" />
    <glyph glyph-name="uni0446" unicode="&#x446;" horiz-adv-x="455" 
d="M363 2c1 -23 2 -45 3 -67c1 -12 9 -32 57 -39l7 -1l4 6c2 4 7 12 7 19c0 53 -3 96 -4 125c0 20 -23 27 -48 32v262c0 56 1 103 2 146v11h-11c-39 0 -51 -1 -63 -13c-9 -11 -9 -30 -9 -46v-361h-168v155v133c0 44 0 84 1 119v8l-7 3c-10 4 -31 4 -33 4
c-15 0 -31 -9 -37 -13l-4 -3v-324c0 -54 -1 -103 -2 -147v-11h280c5 0 15 1 25 2z" />
    <glyph glyph-name="uni0447" unicode="&#x447;" horiz-adv-x="375" 
d="M321 27c0 -2 0 -4 -1 -6c-12 -22 -38 -24 -66 -24h-7l-3 6c-5 10 -7 21 -7 52v116c-19 -6 -49 -7 -84 -7h-16c-38 0 -60 12 -71 38c-9 24 -9 60 -9 106v173l3 3c11 11 23 12 66 12h7l3 -7c4 -9 6 -21 6 -37v-199c1 -8 8 -15 17 -15h15h18c22 0 37 2 45 7v196
c0 16 4 39 11 46c13 9 23 9 63 9h11l-1 -11c0 -43 -1 -90 -1 -148v-244c0 -30 1 -50 1 -66z" />
    <glyph glyph-name="uni0448" unicode="&#x448;" horiz-adv-x="602" 
d="M466 483c-6 -8 -9 -28 -9 -46v-362h-118v263c0 53 0 103 1 145v8l-7 3c-10 4 -31 4 -33 4c-15 0 -31 -9 -36 -13l-5 -3v-324c0 -29 0 -57 -1 -83h-119v263c0 53 0 103 2 145v8l-7 3c-11 4 -31 4 -33 4c-16 0 -31 -9 -37 -13l-5 -3v-324c0 -30 0 -57 -1 -84v-63v-11h429
c2 0 43 0 54 8l4 2l1 4c1 3 1 8 1 9c0 5 -1 8 -8 16v300c0 56 1 103 1 146l1 11h-12c-36 0 -52 0 -63 -13z" />
    <glyph glyph-name="uni0449" unicode="&#x449;" horiz-adv-x="604" 
d="M513 1c1 -22 3 -44 3 -66c1 -12 9 -33 57 -39l8 -1c6 10 10 19 10 27c-2 53 -4 94 -4 124c0 18 -23 25 -48 30v262c0 57 1 104 1 146l1 11h-11c-37 0 -53 0 -64 -13c-6 -8 -9 -29 -9 -45v-363h-118v263c0 54 0 104 1 146v7l-7 3c-10 4 -31 4 -33 4c-15 0 -30 -9 -36 -13
l-5 -3v-323c0 -30 0 -58 -1 -84h-119v263c0 54 0 104 2 146v7l-7 3c-11 4 -31 4 -33 4c-16 0 -31 -9 -37 -13l-5 -3v-323c0 -30 0 -58 -1 -84v-63v-11h429c6 0 16 0 26 1z" />
    <glyph glyph-name="uni044A" unicode="&#x44a;" horiz-adv-x="419" 
d="M316 15c-28 -20 -64 -28 -99 -28c-41 0 -75 8 -97 21l-3 2l-1 3c-5 11 -8 24 -8 45v357h-45c-12 0 -22 0 -32 2l-7 1l-2 7c-1 4 -1 7 -1 10c0 12 3 27 7 35c2 7 7 12 10 15c2 1 3 3 4 4c25 -1 55 -2 84 -1h85v-11c0 -24 -5 -53 -20 -59v-76c18 10 43 18 72 18
c37 0 69 -13 90 -38c24 -28 36 -68 36 -120c0 -110 -39 -162 -73 -187zM234 45c40 0 78 31 78 147c0 79 -17 107 -64 107c-19 0 -41 -7 -57 -20v-226c10 -5 26 -8 43 -8z" />
    <glyph glyph-name="uni044B" unicode="&#x44b;" horiz-adv-x="499" 
d="M212 361c38 0 69 -14 91 -38c24 -28 36 -69 36 -121c0 -109 -40 -161 -73 -186c-29 -19 -65 -29 -100 -29c-40 0 -74 8 -97 21l-2 2l-2 3c-5 12 -7 25 -7 45v333c0 30 -1 50 -2 68v2l1 2c11 26 43 26 67 26h7l3 -7c5 -11 7 -25 7 -58v-81c22 11 46 18 71 18zM183 45
c41 0 78 32 78 147c0 80 -17 107 -63 107c-20 0 -42 -6 -57 -20v-225c9 -5 25 -9 42 -9zM442 13l1 -4l-3 -3c-10 -11 -28 -12 -67 -12c-6 0 -16 3 -16 24v376c0 52 -2 63 -2 66l-1 3l2 3c9 22 34 23 69 23c13 0 14 -16 15 -21c1 -8 1 -20 1 -37v-89l-1 -98l1 -94v-70
c0 -27 1 -45 1 -56v-11z" />
    <glyph glyph-name="uni044C" unicode="&#x44c;" horiz-adv-x="369" 
d="M212 361c38 0 69 -14 91 -38c24 -28 36 -69 36 -121c0 -109 -40 -161 -73 -186c-29 -19 -65 -29 -100 -29c-40 0 -74 8 -97 21l-2 2l-2 3c-5 12 -7 25 -7 45v333c0 30 -1 50 -2 68v2l1 2c11 26 43 26 67 26h7l3 -7c5 -11 7 -25 7 -58v-81c22 11 46 18 71 18zM183 45
c41 0 78 32 78 147c0 80 -17 107 -63 107c-20 0 -42 -6 -57 -20v-225c9 -5 25 -9 42 -9z" />
    <glyph glyph-name="uni044D" unicode="&#x44d;" horiz-adv-x="478" 
d="M62 463c39 23 83 35 129 35c69 0 133 -27 182 -75c48 -48 75 -113 75 -182c0 -141 -115 -256 -257 -256c-31 0 -62 6 -92 17c-26 10 -42 36 -42 66c0 9 2 18 7 26l6 11l10 -8c32 -25 70 -38 111 -38c85 0 151 60 166 148h-198c-9 0 -17 4 -24 10c-8 9 -13 24 -13 40
c0 3 0 5 1 8l1 10h233c-14 88 -80 148 -166 148c-27 0 -53 -5 -77 -16c-17 -8 -27 -11 -35 -10h-5l-2 4c-10 13 -15 32 -15 53v6z" />
    <glyph glyph-name="uni044E" unicode="&#x44e;" horiz-adv-x="573" 
d="M352 499c87 0 190 -44 190 -253c0 -82 -16 -146 -48 -190c-33 -47 -82 -71 -146 -71c-62 0 -110 22 -141 64c-28 37 -44 90 -47 158c-7 0 -10 0 -17 1c0 -17 1 -68 1 -68v-60c0 -27 0 -45 1 -56v-14l-3 -3c-9 -11 -26 -13 -66 -13c-6 0 -17 3 -17 24v86l1 139l-1 84v67
c0 38 -1 61 -1 67l-1 3l1 2c9 22 34 23 69 23c9 0 14 -7 16 -20c1 -9 1 -21 1 -37v-78s-1 -62 -1 -79h17c4 71 22 126 53 163c33 40 80 61 139 61zM352 49c69 0 111 61 111 195s-49 191 -113 191c-66 0 -111 -61 -111 -198c0 -127 47 -188 113 -188z" />
    <glyph glyph-name="uni0453" unicode="&#x453;" horiz-adv-x="370" 
d="M75 492c17 -1 33 -2 50 -2h207v-11c0 -12 -2 -25 -5 -40h-1c-3 -13 -14 -20 -23 -22h-1h-163v-311c0 -39 1 -67 2 -90v-6l-4 -3c-12 -10 -25 -11 -65 -11h-7l-3 6c-5 9 -8 21 -8 36v400c0 12 3 27 7 35c3 8 7 12 11 16zM291 721c9 -2 4 -18 -5 -36l-5 -8
c-30 -56 -64 -96 -82 -114c-7 -5 -40 3 -47 8c16 34 47 108 63 139c15 7 43 14 63 14c5 0 11 -1 13 -3z" />
    <glyph glyph-name="_316" horiz-adv-x="370" 
d="M291 721c9 -2 4 -18 -5 -36l-5 -8c-30 -56 -64 -96 -82 -114c-7 -5 -40 3 -47 8c16 34 47 108 63 139c15 7 43 14 63 14c5 0 11 -1 13 -3z" />
    <glyph glyph-name="uni0455" unicode="&#x455;" horiz-adv-x="314" 
d="M228 418c-7 3 -26 11 -51 11c-21 0 -57 -6 -57 -47v-9c3 -13 10 -26 24 -42c15 -16 32 -32 51 -51l3 -2l3 -3c15 -14 28 -26 40 -39c32 -33 45 -65 45 -109c0 -42 -13 -77 -38 -102s-63 -39 -109 -39c-50 0 -84 15 -99 28c-9 8 -12 15 -12 24c0 15 7 35 15 47l7 11l9 -9
c19 -16 48 -25 78 -25c38 0 61 22 61 60c0 27 -10 46 -42 75v1h-1c-7 9 -16 18 -26 27l-9 10l-9 8c-18 17 -33 31 -45 47c-23 29 -33 56 -33 88c0 33 11 63 32 84c24 25 61 38 106 38c55 0 91 -18 102 -34l1 -3v-3c0 -13 -4 -27 -12 -40l-1 -1l-2 -2c-4 -2 -9 -4 -14 -4
c-6 0 -12 2 -17 5z" />
    <glyph glyph-name="quotedbl" unicode="&#x22;" horiz-adv-x="293" 
d="M94 520c-4 -6 -38 -12 -49 -12c-1 34 -12 174 -12 205c12 7 37 13 57 13c5 0 11 -1 14 -2c10 -3 13 -18 13 -37v-8c-2 -56 -14 -141 -23 -159zM238 520c-4 -6 -38 -12 -49 -12c-1 34 -12 174 -12 205c12 7 37 13 57 13c5 0 11 -1 14 -2c10 -3 13 -18 13 -37v-8
c-2 -56 -14 -141 -23 -159z" />
    <glyph glyph-name="exclam" unicode="!" horiz-adv-x="193" 
d="M64 205c-4 98 -14 314 -17 427c1 18 38 24 96 24c6 -15 10 -33 10 -59c-2 -85 -14 -278 -18 -355c-3 -28 -36 -37 -71 -37zM99 105c40 0 47 -18 46 -54c-1 -35 -11 -60 -52 -60c-35 0 -47 18 -47 58c0 37 17 56 53 56z" />
    </font>
</defs>
</svg>
